<?xml version="1.0" encoding="UTF-8"?><svg id="Layer_1" xmlns="http://www.w3.org/2000/svg" xmlns:xlink="http://www.w3.org/1999/xlink" viewBox="0 0 1583.36 1666.73"><defs><style>.cls-1{fill:none;}.cls-2{clip-path:url(#clippath);}</style><clipPath id="clippath"><rect class="cls-1" width="1583.36" height="1666.73"/></clipPath></defs><g class="cls-2"><path d="M796.65,557.49c160.9,0,291.34-124.8,291.34-278.75S957.55,0,796.65,0,505.3,124.8,505.3,278.75s130.44,278.75,291.34,278.75"/><path d="M340.96,729.03c121.3,0,219.63-94.08,219.63-210.13s-98.33-210.13-219.63-210.13-219.63,94.08-219.63,210.13,98.33,210.13,219.63,210.13"/><path d="M1285.21,686.15c108.92,0,197.22-84.48,197.22-188.69s-88.3-188.69-197.22-188.69-197.22,84.48-197.22,188.69,88.3,188.69,197.22,188.69"/><path d="M308.79,1473.68c11.4,9.91,19.01,23.01,27.55,38.46,7.99,14.44,16.07,28.84,24.12,43.26-12.79-5.56-33.54-.59-47.53,.15-44.02,2.33-76.89-10.91-116.78-25.91-20.53-7.72-41.93-13.55-61.2-24.07-27.29-14.9-48.59-42.57-67.67-65.89-21.11-25.81-39.89-51.87-48.76-83.9C-1.53,1283.35-.45,1206.64,.33,1132.31c.57-54.16-2.83-110.33,8.72-163.66,22.48-103.78,117.39-166.73,215.6-202.6,98.05-35.81,225.22-28.57,310.91,32.58,40.9,29.18,71.55,71.13,93.06,115,24.56,50.08,28.57,100.52,28.41,155.17-.16,58.27-2.28,116.53-2.53,174.82-.23,53.47-5.64,106.9-36.85,152.81-15.65,23.02-35.29,43.78-57.07,61.64l-20.92,17.15s-53.35-56.72-53.79-57.18c1.92,2.03,51.86-47.49,55.71-52.21,20.54-25.19,26.88-53.52,29.68-84.67,6.27-69.84-2.46-137.86-8.3-207.34-4.88-58.04,11.61-117.08-37.36-161.08-36.58-32.87-86.71-56.31-134.75-69.1-109.95-29.29-218.92,9.84-264.18,113.91-22.41,51.53-25.34,108.22-26.28,163.31-.98,57.44-9.35,118.2-1.26,175.2,8.08,56.91,45.61,107.84,97.4,136.71,26.64,14.85,54.91,17.41,83.75,25.82,11.99,3.5,21.05,8.6,28.5,15.08"/><path d="M384.31,932.02c0-.06,0-.12,0-.18,14.84,13.16,31.28,25.14,46.87,37.57,6.49,5.17,18.02,11.24,22.64,18.05,5.12,7.56,2.3,18.06,2.17,27.33-.79,56.11-.67,112.22-.35,168.33,.31,53.92-3.15,108.02-.89,161.89,1.64,39.11,30.78,69.92,55.72,98.78,51.32,59.4,116.01,113.17,193.76,137.35,80.39,24.99,169.71,15.82,245.28-19.21,67.07-31.08,127.36-82.11,158-148.04,36.71-79.01,18.2-174.76,18.34-258.75,.04-26.95,.1-53.9-.53-80.84-.53-22.66-7.76-48.95,0-71.01,2.57-7.3,11.69-12.24,18.17-17.55,18.34-15.04,36.69-30.09,55.03-45.13,3.49-2.87,7.23-5.82,10.48-8.79-4.09,3.74-.01,32.44-.02,38.61,0,12.59-.02,25.19,0,37.78,.04,26.86,.5,53.71,1.05,80.56,1.11,54.73,2.56,109.48,1.17,164.22-.78,30.62-2.44,61.23-5.58,91.72-10.97,106.56-54.43,202.6-153.34,258.68-44.38,25.16-97.28,53.62-148.94,60.13-29.1,3.67-58.41,.41-87.6,.31-28.12-.1-56.17,2.35-84.27,2.86-104.86,1.89-211.28-52.56-273.58-132.73-59.65-76.77-73.4-167.69-75.57-260.87-2.32-99.79,1.95-199.57,1.95-299.36,0-13.9-.09-27.81,.02-41.71"/><path d="M1226.94,1556.84c10.16-16.23,20.36-32.45,30.49-48.69,8.15-13.07,15.27-30.16,27.43-40.37,27.96-23.49,74.42-13.77,107.03-30.98,32.19-16.99,54.83-46.14,74.8-74.85,31.6-45.44,32.2-95.73,30.75-148.48-2.58-93.68,19.32-203.45-40.41-285.57-46.9-64.48-138.66-98.47-219.03-91.55-43.76,3.78-80.99,22.92-116.37,46.84-44.97,30.4-73.68,66.1-76.06,120.05-5.07,115.1-26.97,232.61,10.65,345.55,11.71,35.16,56.75,61.17,29.1,98.69-7.55,10.25-15.79,23.63-25.7,31.57-20.29-22.22-45.38-41-65.34-63.61-24.34-27.56-39.53-57.97-43.15-94.09-3.76-37.56,2.97-75.11,1.4-112.69-1.3-31.08-4.16-61.92-4.69-93.07-.58-33.99-.89-68.01,0-102,.79-30.07,.63-61.46,11.46-90.09,22.65-59.86,87.64-95.97,144.96-121.09,110.65-48.5,258.4-57.7,363.51,9.16,120.68,76.77,112.69,221.26,113.17,343.83,.28,71.49,11.12,152.5-15.37,220.83-24.9,64.23-83.81,115.58-150.05,139.67-24.81,9.03-49.39,19.43-75.49,24.63-30.87,6.15-62.35,8.73-93.47,13.38-6.54,.97-13.33,1.81-19.72,3.09,.04-.06,.07-.11,.1-.17"/><path d="M456,764.5h0c65.48-48.21,129.23-97.83,209.42-121.44,71.78-21.13,149.81-24.84,223.26-9.56,40.81,8.49,80.4,23.03,115.84,44.29,27.68,16.6,53.33,36.47,74.58,60.29,9.68,10.84,39.19,60.78,58.2,50.99h0s-77.69,40.03-77.69,40.03c-26.3-26.15-50.73-58.85-81.26-80.42-21.52-15.21-50.43-22.61-75.64-30.31-50.31-15.37-108.95-19.07-161.29-12.42-73.32,9.31-126.04,57.36-180.83,100.29-34.71-13.85-69.39-29.75-104.75-41.6,.05-.04,.11-.08,.17-.12"/></g></svg>