<?xml version="1.0" encoding="UTF-8"?><svg id="Layer_1" xmlns="http://www.w3.org/2000/svg" viewBox="0 0 3090.76 1920"><defs><style>.cls-1{fill:#f6ee5b;}.cls-2{fill:#f6f6f5;}.cls-3{fill:#f2f2f2;}.cls-4{fill:#f7cb00;}.cls-5{fill:#e8e9e8;}.cls-6{fill:#fee074;}.cls-7{fill:#feef0e;}.cls-8{fill:#fedf73;}.cls-9{fill:#fecb1b;}.cls-10{fill:#fecc1c;}.cls-11{fill:#fbc80f;}.cls-12{fill:#fde070;}.cls-13{fill:#d7b439;}.cls-14{fill:#c4c4c3;}.cls-15{fill:#dab015;}.cls-16{fill:#d4b01a;}.cls-17{fill:#c6af06;}.cls-18{fill:#e2b919;}.cls-19{fill:none;stroke:#fbae17;stroke-miterlimit:10;stroke-width:5px;}</style></defs><rect class="cls-3" x="561.76" width="1919" height="1920"/><g><path class="cls-14" d="M1645.07,1284.68c.84,.61,1.95,1.04,2.46,1.86,6.55,10.58,17.44,16.07,26.73,23.81-1.57,3.46-2.9,6.29-4.24,9.12,1.8,.81,3.58,1.6,5.38,2.41,1.07-2.69,2.16-5.38,3.22-8.08,.08-.2,.05-.43,.07-.64,2.29,.87,4.8,1.4,6.83,2.71,14.62,9.37,29.76,7.47,45.59,2.89,.25,1.02-.25,1.65-.16,2.18,.41,2.34,.43,5.08,1.75,6.76,.59,.74,3.93-.66,6.01-1.09-.53-2.36-.97-4.74-1.63-7.05-.26-.91-1.01-1.68-1.53-2.52,10.63-5.73,21.32-11.3,31.84-17.19,10.41-5.82,20.57-12.09,30.97-17.9,16.43-9.19,33.33-7.99,49.58-.2,16.15,7.75,31.3,17.59,47.55,25.1,14.09,6.5,28.73,12.74,43.79,15.87,13.27,2.77,27.39,1.63,40.93-2.66,22.42-7.08,45.04-13.56,67.63-20.15,10.28-3,19.98,.4,29.55,3.91-.81,2.54-1.75,4.37-2.06,6.32-.25,1.57,.28,3.25,.46,4.88,2.28-.51,5.49-.3,6.62-1.72,1.48-1.9,1.34-5.07,1.9-7.69,7.99,2.14,15.95,4.39,23.97,6.4,8.71,2.19,17.41,4.7,26.25,6.06,4.16,.64,8.76-.79,13.03-1.8,8.12-1.91,12.23-.3,16.63,6.5,4.32,6.7,8.76,13.35,13.56,19.7,3.17,4.21,5.46,9.47,2.99,13.36-2.31,3.65-7.61,6.3-12.09,7.49-18.86,4.95-37.93,9.06-56.89,13.69-15.81,3.86-31.45,4.52-47.55,1.11-15.53-3.3-31.35-6.63-47.11-7.01-13.08-.31-26.37,3.13-39.37,5.87-9.47,2-18.46,6.34-27.95,8.27-14.87,3.02-29.93,2.64-44.65-1.55-23.05-6.57-44.32-17.03-65.47-28.33-16.3-8.71-34.35-14.67-52.24-19.63-8.56-2.38-18.79-.73-27.85,1.12-16.96,3.43-33.18,1.57-49.6-2.79-6.14-1.62-12.06-3.51-19.09-3.32-19.07,.51-37.83-2.79-51.16-18.73-3.22-3.84-4.92-8.96-6.95-14.16,4.34-4.83,8.32-9.03,12.29-13.2m403.1,68.98c-1.78-1.32-3.58-2.66-6.45-4.78-1.5,3.43-2.92,5.92-3.51,8.61-.13,.54,3.38,2.9,4.09,2.49,2.38-1.37,4.24-3.63,5.87-6.32m-212-26.7c2.01-1.67,4.01-3.35,6.02-5.02-1.45-1.63-2.64-3.99-4.45-4.69-1.32-.5-5.08,1.48-5.02,1.88,.45,2.54,1.65,4.95,3.45,7.82m83.21,26.27c-1.57-2.1-2.87-4.52-4.87-6.06-.53-.41-4.04,1.55-4.57,3-.54,1.53,.81,5.36,1.44,5.38,2.52,.1,5.1-.89,8-2.34m38.46,8.17c-2.74,1.24-5.48,2.47-8.23,3.7,.1,1.11,.18,2.21,.28,3.33,3,.68,6.63,2.72,8.89,1.72,4.44-1.98,2.21-5.46-.96-8.74m44.93-26.68c-2.31,.28-4.88,.05-6.8,1.07-.92,.5-1.29,3.65-.66,5.05,.64,1.42,2.87,3.13,4.27,3.02,5.69-.48,5.3-4.32,3.17-9.12m23.96-3.33c1.9,.26,5.13,1.25,5.46,.66,1.04-1.88,1.72-6.14,1.22-6.34-2.87-1.2-6.12-1.52-9.24-2.13-.31,.66-.61,1.34-.92,2,.91,1.75,1.8,3.5,3.46,5.81m-214.9-12.82c-1.95-.91-3.83-2.31-5.84-2.51-.94-.1-3.17,2.43-2.95,3.27,.61,2.31,1.88,5.84,3.5,6.2,4.19,.94,5.99-1.98,5.3-6.98m.73-28c-1.78,1.52-3.55,3.02-5.33,4.54,1.45,1.62,2.64,3.98,4.44,4.59,1.2,.41,4.26-1.3,4.72-2.66,.84-2.52,1.93-6.2-3.81-6.47m259.57,77.02c-.63-1.04-1.25-2.1-2.05-3.43-.81,1.32-1.34,2.16-2.03,3.32-.41-1.62-.74-2.94-1.07-4.26-.56-.2-1.12-.41-1.68-.61-1.14,2.34-2.95,4.64-3.13,7.06-.1,1.25,3.37,4.17,4.03,3.86,2.33-1.11,4.12-3.3,5.96-5.92m-180.67-50.26c-.58-2.52-.89-5.16-1.96-7.46-.18-.4-3.94,.15-5.28,1.22-1.07,.86-1.52,4.55-1.3,4.64,2.56,1.02,5.3,1.62,8.55,1.6m-52.27,26.4c1.29,1.77,2.56,3.55,3.84,5.31,1.86-1.48,4.34-2.66,5.31-4.59,.49-.97-1.95-4.87-2.67-4.77-2.21,.31-4.24,1.93-6.48,4.04m-184.46-39.12c-.59,2.23-2.14,4.8-1.48,6.57,.53,1.45,3.71,2.67,5.64,2.57,1.09-.07,2.87-3.02,2.85-4.65-.05-3.7-2.36-5.61-7-4.49m478.35,30.21c2.01-1.17,5.81-2.57,5.69-3.45-.36-2.66-2.24-5.11-3.61-7.85-5.1,3.66-8.32,6.6-2.06,11.3m-255.21,21.45c-2,1.65-3.99,3.3-5.99,4.95,1.15,1.37,2.19,3.75,3.48,3.89,1.93,.21,4.04-1.12,6.09-1.8-.92-2.38-1.83-4.75-3.58-7.05m136.35,5.31c3.63-1.91,2.95-4.39,.3-6.27-1.65-1.17-4.01-1.34-6.06-1.96-.28,2.77-.56,5.54-.84,8.33,1.93-.02,3.86-.05,6.6-.1m-161.71-62.25c-1.39-3.86-3.13-7.79-7.9-4.16-1.27,.97-1.52,6.01-.61,6.58,2.62,1.65,6.42,3.5,8.51-2.43m312.17,58.47c3.02,1.45,5.96,1.02,7.42-1.9,.63-1.27-.3-4.24-1.5-5.25-1.25-1.04-4.26-1.48-5.53-.66-2.72,1.72-3.89,4.54-.4,7.8m-261.88-28.33c-5.35,1.35-4.78,4.85-3.38,9.6,3.17-1.19,5.86-2.21,8.55-3.22-1.44-2.08-2.87-4.14-5.18-6.39m47.85,4.6c-1.85-1.39-3.58-2.95-5.61-3.99-.36-.2-2.29,1.6-2.72,2.77-.92,2.52-2.14,5.49,1.85,6.76,4.27,1.37,5.79-1.22,6.48-5.54m15.71,10.21c5.51-3.68,5.38-4.42-1.67-9.19-.33,1.25-.63,2.44-1.04,4.04-.66-1.39-1.04-2.21-1.57-3.32-3.6,6.07-2.66,8.15,4.29,8.46m-194.26-24.14c-2.94-.82-6.65-2.69-7.21,2.33-.82,7.29,6.04,2.18,7.99,5.31,.48-.25,.96-.51,1.44-.76-.46-2.28-.91-4.57-2.21-6.88m290.92,12.23c-.58,1.83-1.15,3.68-1.63,5.21,3.02,.84,5.41,1.52,8.73,2.44,0-2.31,.76-5.03-.18-5.89-1.45-1.32-4.06-1.39-6.91-1.77h0Z"/><path class="cls-9" d="M1088.25,1142.78c1.39-.51,2.77-1.01,4.98-1.57,1.47-.38,2.11-.69,2.77-1.02,0,0,.56-.2,1.22-.21,.89,0,1.12,0,1.67,.3,1.4,.53,2.49,.76,3.6,.99,0,0,.02,0,.17,.28,.38,.61,.69,.87,1.12,1.47,.82,1.47,1.6,2.54,2.49,4.01,1.37,1.85,2.61,3.28,4.06,4.98,.46,.56,.79,.79,1.32,1.22,.41,.63,.74,.87,1.22,1.15,.07,.12,.43,.1,.43,.1,0,0-.38-.33-.54-.61-.43-.61-.76-.86-1.3-1.29-.41-.59-.71-.86-1.06-1.53-1.27-1.9-2.54-3.33-3.84-5.21-.92-1.4-1.8-2.36-2.74-3.65-.07-.31-.23-.92,.03-1.29,1.02-1.11,1.68-2.21,2.59-2.49,3.09-.97,6.27-1.65,9.4-2.44-.33,3.18-.71,6.35-.96,9.54-.13,1.62-.02,3.25-.02,4.88,.76,.15,1.52,.3,2.29,.45,1.83-4.65,3.65-9.32,5.58-14.24,1.77,1.3,3.09,2.29,4.88,3.32,1.47,.07,2.44,.1,3.46,.58,1.3,1.42,2.56,2.39,3.78,3.79,.07,1.01,.17,1.58,.28,2.51,.28,.99,.56,1.62,.87,2.66,.89,1.48,1.73,2.56,2.69,3.99,1.2,1.32,2.29,2.26,3.83,3.28,.76,.07,1.06,.07,1.35,.07,0,.02-.03-.02,.12,.26,.41,.64,.76,.89,1.14,1.06-.02,0,0-.05-.05,.49,.1,3.48-1.06,7.18,3.91,7.26l.13,.28c.41,.64,.74,.89,1.15,1.02l.13,.26c.41,.64,.74,.89,1.15,1.02l.1,.43c1.48,1.01,2.85,1.58,4.39,2.28,.35,.33,.51,.54,.74,1.25,1.77,1.14,3.46,1.8,5.11,2.47-.02,.02,0-.03,.1,.41,4.34,2.28,8.6,4.12,13.15,5.86,.59-.64,.89-1.19,1.39-1.75,.2-.02,.61,.02,.58,.4,.49,1.14,1.02,1.91,1.9,2.71,.54,0,.76,0,1.34,.2,1.75,1.07,3.13,1.95,4.6,3.2,2.61,1.75,5.11,3.1,7.77,4.92,6.04,3.94,11.93,7.46,18.18,11.29,1.29,.64,2.21,.94,3.3,1.39,.36,.33,.51,.56,.66,1.27,.54,1.15,1.06,1.88,1.85,2.89,2.97,1.4,5.66,2.52,8.48,4.04,3.33,2.46,6.52,4.5,9.7,6.55-1.07,.49-2.34,1.09-4.85,2.26,6.42,.86,11.65,.76,16.32,2.34,9.97,3.4,18.89,8.99,30.08,9.82,13.99,1.02,27.78,4.55,41.84,7.42,3.32,1.39,6.5,3.25,9.62,3.12,8.84-.36,17.67-1.52,26.93-2.06,10.92,.54,21.4,.76,32.17,1.4,9.16,.53,18.02,.64,27.34,.81,7.97,.41,14.93-.86,22.22-3.48,7.29-2.62,15.72-2.31,23.69-2.62,1.6-.07,3.42,2.69,4.97,4.31,2.66,2.77,5.18,5.68,7.84,8.99,.63,5.07,2.79,7.79,7.84,7.57,.08,.94,.15,1.48-.4,2.06-8.73,.33-16.93-.05-24.91,1.11-11.91,1.72-23.74,4.26-35.47,6.96-6.04,1.4-11.83,3.93-18.35,5.99-8.46,.08-16.32,.12-24.62,.16-2.23,.54-3.99,1.5-5.76,1.52-15.18,.05-30.38-.07-45.55-.18-1.9,0-4.12,.16-5.63-.73-10.77-6.32-22.84-3.35-34.25-4.95-.26-.03-.66,.97-1.4,1.57-.68,.12-.94,.15-1.42-.23-1.57-1.68-2.76-3.73-4.34-4.11-7.41-1.77-14.93-3.09-22.74-4.85-1.15-.61-1.96-.94-3.1-1.53-4.54-2.52-8.51-5.59-13.02-6.88-9.59-2.72-19.44-4.52-29.68-6.72-1.81-.02-3.13,0-4.47,0,0,0-.03,0,0-.49-.97-2.03-1.62-4.29-3.04-5.02-9.59-4.85-19.34-9.36-29.35-14.3-6.7-6.48-13.1-12.62-19.39-18.88-.66-.66-.79-1.95-.96-2.99-1.85-11.45-10.82-17.57-18.71-25-3.1-2.52-5.87-4.8-8.84-7.44-1.52-2.06-2.84-3.78-4.16-5.49-.61,.46-1.24,.91-1.85,1.37,1.24,1.53,2.47,3.07,3.68,5.11,.87,2.97,1.58,5.54,2.76,7.89,1.44,2.9,3.27,5.61,4.82,8.6,.35,.48,.79,.78,1.45,1.45,6.65,7.06,13.07,13.74,19.72,20.76,3.45,3.6,6.67,6.85,10,10.48,.91,.89,1.73,1.4,2.59,1.88,.03-.02,.08,0,.03,.53,1.67,3.94,3.09,7.56,5.16,10.76,2.94,4.5,9.75,7.77,3.88,14.57-.12,.13,0,.41-.03,.63-.82,6.96-5.28,11.6-12.21,12.85-1.04,.18-1.98,.84-3.51,1.5,9.03,3.58,18.66-1.09,19.5-8.74,.84-7.64,5.77-10.43,12.94-8.43,6.17,1.72,12.69,2.24,19.42,3.61,1.95,.63,3.51,.94,5.11,1.27,.03,.02,.07,.08,.1,.45,.46,.94,.89,1.5,1.3,2.06-.02,0,.02-.02,.08,.45,2.54,1.52,5.03,2.56,7.71,3.84,.43,.56,.74,.82,1.3,1.5,7.47,.99,14.73,1.5,22.36,2.28,3.84,1.07,7.39,1.72,10.81,2.77,7.38,2.26,14.68,4.75,22.44,7.13,1.12-.41,1.81-.81,3-1.11,2.74,.48,5,.84,7.24,1.24-.02,0,0-.03,.05,.43,3.46,4.9,6.88,9.34,10.25,14.31-1.5,2.34-3.17,5.89-4.39,5.74-11.55-1.4-23.05-3.33-34.52-5.35-2.36-.41-4.98-1.72-1.09-4.75,1.06-.59,1.83-.89,2.82-.97,.89,0,1.57-.18,2.49-.76,1.17-2.29,2.11-4.21,3.05-6.12-2.31,.16-4.95-.31-6.88,.63-4.14,2-7.92,4.74-12.03,7.44-.51,.54-.86,.82-1.67,1.01-14.35-3.13-27.85-9.52-43.41-5.49,2.03-3.96,4.16-8.3,7.62-10.25,5.21-2.94,2.19-5.38,1.32-8.88-4.57,4.04-9.82,6.91-12.29,11.34-3.46,6.2-8.38,7.49-14.12,6.91-5.05-.51-9.9-2.94-14.95-3.65-8.15-1.14-16.42-1.42-24.6-2.34-7.05-.79-14.06-1.9-21.04-3.07-4.34-.73-9.03-1.01-12.85-2.9-8.55-4.22-16.55-10.15-26.5-3.79-4.69-2.21-9.59-4.08-14.01-6.73-3.35-2.01-6.1-5-9.32-8.43-1.5-3.48-2.82-6.1-4.14-9.14-.73-1.53-1.44-2.64-2.23-4.08-.1-.56-.15-.79-.26-1.42-.87-1.02-1.67-1.67-2.66-2.52-.46-.51-.78-.76-1.12-1.58,.82-18.78,1.63-36.94,2.46-55.11,0,0,.05-.02,.43-.07,1.06-.46,1.73-.87,2.79-1.39,1.34-1.68,2.29-3.25,3.53-5.08,.56-.99,.84-1.72,1.27-2.69,.43-.59,.73-.86,1.35-1.2,.59-.41,.86-.71,1.48-1.2,4.01-3.25,6.34-8.84,12.8-6.3,.07,.18,.54,.25,.54,.25,0,0,.28-.45,.31-.94,2.23-4.78,4.41-9.06,6.6-13.35m10.02,103.98c-.07,1.25-.13,2.51-.18,3.35,4.08-.54,7.49-1.01,11.35-1.06,.68-.2,1.35-.38,2.41-1.34,1.24-.97,2.47-1.93,3.93-2.66,.38,.08,.61-.08,.92-1.39,.76-2.94,1.53-5.89,2.29-8.83-.58-.25-1.15-.48-1.73-.73-4.55,5.66-8.83,11.76-17.89,10.87-.33,.26-.59,.59-1.14,1.77m.69-58.61c-.25-2.34-.49-4.7-.74-7.05-3,2.97-4.22,5.63,.74,7.05m-20.36,56.02c.94,.87,1.86,1.75,2.8,2.61,.41-1.04,.82-2.08,1.22-3.13-1.29-.08-2.59-.16-4.03,.51m9.7-47.91c.76,.82,1.5,1.63,2.26,2.46,.38-.41,.76-.84,1.14-1.25-.94-.54-1.88-1.09-3.4-1.2m25.44,10.71c.81,0,1.6,0,2.41-.02l-.49-1.62c-.73,.33-1.45,.64-1.91,1.65m-7.52-45.36c-.58,.23-1.15,.46-1.73,.69,.51,.51,1.02,1.01,1.52,1.52,.23-.58,.46-1.15,.21-2.21m-1.63,6.6c.64,.12,1.29,.25,1.93,.36-.2-.54-.4-1.11-.59-1.65-.53,.25-1.04,.48-1.34,1.29m-24.7,1.91c-.41-.25-.82-.49-1.24-.74l-.38,1.12c.48,.05,.94,.1,1.62-.38m20.26,71.51c-.3,0-.59-.03-.87,0-.03,0-.03,.31-.05,.48,.3-.03,.58-.05,.94-.46m-3.73-37.72c-.21,.18-.43,.36-.64,.54,.12,.13,.25,.25,.36,.38,.18-.21,.38-.41,.28-.92m-7.47-10.94c-.31-.13-.64-.28-.96-.41,.23,.23,.45,.45,.96,.41m44.75,21.89c-.18-.21-.36-.41-.54-.63-.12,.12-.25,.25-.36,.36,.21,.18,.41,.36,.91,.26m-39.43-15.59l-.38,.12s.38,.12,.38-.12m23.58-8.46l.12,.38s.12-.38-.12-.38m-13.25,22.67l-.38,.12s.38,.12,.38-.12m6.22-37.98s.05-.02,0,0m9.04,18.08s.05-.02,0,0m-5.1-9.04s-.05,.02,0,0m-23.3,19.42s-.02-.05,0,0m1.3,5.08s.02,.05,0,0m14.21-37.39s-.02-.05,0,0m-7.74,50.31s.02,.05,0,0m10.36,.05s-.05,.02,0,0m23.21,2.62s-.02-.05,0,0m-49.05-60.75s-.05,.02,0,0Z"/><path class="cls-8" d="M1184.88,1185.47c-1.39-.86-2.79-1.73-4.54-3.12-.58-1.06-.79-1.57-1.01-2.08l-.64,2.18c-.53-.76-1.07-1.53-1.52-3.09,0-1.44-.08-2.1-.17-2.74-.21,0-.43,.03-.66,.05v2.74c-.3,.54-.58,1.07-1.29,1.29-4.65-2.18-8.89-4.01-13.13-5.86,0,0-.02,.05-.03-.38-.89-1.06-1.75-1.67-2.69-2.72-2.97-5.73-5.48-11.45-12.77-12.57-.56-.56-.94-.82-1.32-1.09,0,0-.02,.05-.13-.25-.46-.54-.81-.79-1.15-1.04,0,0,0,.05,0-.41-.45-1.24-.89-2-1.68-2.94-1.44-.23-2.51-.28-3.56-.35-.84-1.07-1.68-2.14-2.23-3.78,.96-1.32,1.62-2.05,2.69-2.79,1.47-.26,2.52-.51,3.58-.76v-1.83c-2.14,0-4.29,0-6.47-.02-.03-.02-.1-.08-.1-.38s0-.91,.02-1.37c-.78-2.24-1.57-4.03-2.38-5.86-.03-.03-.12-.08,.07-.46,2.28-3.09,4.37-5.81,6.47-8.51,0,0,.38-.15,.89,.25,2.08,1.01,3.65,1.63,5.08,2.61,.23,1.22,.61,2.1,.99,2.97,.61-1.11,1.24-2.19,2.08-3.53,6.1,1.67,11.98,3.56,17.87,5.86,.35,1.04,.68,1.68,1.02,2.33,.63-.63,1.25-1.27,2.19-1.6,6.58,6.43,12.72,12.72,19.17,18.66,2.97,2.74,6.55,4.8,9.5,7.38-.81,1.3-1.25,2.39-1.72,3.48,.49,.15,.99,.3,1.48,.45,.2-1.37,.38-2.74,1.06-4.06,2.82,.81,5.15,1.57,7.05,2.38-1.52,.54-2.61,1.02-3.7,1.5,.4,.48,.78,.96,1.17,1.44,1.01-.99,2.01-2,3.43-2.95,2.44,.21,4.47,.36,7.06,.58,0,.58,0,2.66-.3,5-.73,1.57-1.15,2.85-1.58,4.12,.74,.21,1.48,.41,2.21,.63,.38-1.65,.78-3.3,1.48-5.25,4.54,.13,8.79,.3,12.95,1.04,7.92,1.42,15.77,3.15,23.66,4.74,5.53,1.11,11.05,2.18,16.6,3.28,2.11,.43,4.27,1.45,6.3,1.24,4.92-.56,9.77-1.7,14.8-2.21,4.17,3.07,3.58-.36,4.52-2.52,7.49,.08,14.44,.35,21.37,.26,9.36-.1,17.52-2.44,22.16-11.81,2.85-5.76,6.24-11.25,9.59-16.75,4.7-7.74,5.97-18.97,18.64-18.91,.02,0,.05-.4,.07-.61,1.12,.35,2.26,.68,3.88,1.58,5.79,7.13,13.41,8.6,21.1,9.97,7.41,4.75,14.82,9.5,22.54,15.11,2.49,4.93,4.12,9.44,6.98,12.97,2.38,2.95,6.17,4.77,9.34,7.08,0,0,.38,.05,.1,.66,.48,6.52,4.7,8.4,9.78,9.29,0,0-.07,0-.15,.46,.71,1.83,1.2,3.6,2.36,4.55,3.43,2.85,7.11,5.4,10.1,8-10.46-.15-20.31-.26-30.34-.82-6.57-2.26-12.97-4.06-19.5-6.14-.41-.61-.74-.86-1.29-1.29-.41-.59-.74-.84-1.35-1.39-1.8-.99-3.38-1.62-5.11-2.49-.41-.59-.73-.84-1.32-1.37-1.37-.99-2.51-1.62-3.89-2.62-1.75-1.04-3.28-1.7-4.95-2.8-2.62-1.44-5.11-2.43-7.77-3.86-2.33-.94-4.49-1.44-6.65-1.91-.08,.61-.18,1.22-.26,1.83,2.14,.43,4.27,.84,6.63,1.65,2.64,1.39,5.07,2.41,7.74,3.78,1.86,.92,3.48,1.5,5.26,2.44,1.35,.99,2.56,1.58,3.93,2.46,.41,.58,.73,.82,1.25,1.44,1.78,1.01,3.42,1.6,5.2,2.44,.41,.58,.73,.82,1.25,1.29,.41,.61,.76,.86,1.3,1.44,6.47,2.38,12.75,4.34,19.35,6.72,8.33,.81,16.35,1.15,24.39,1.62,2.29,.13,5.28-.15,6.73,1.14,4.26,3.75,8.63,2.72,13.22,1.57,9.5,4.65,19.07,9.22,28.49,14.04,2.67,1.37,4.97,3.5,8.18,5.68,1.53,.58,2.33,.74,3.12,.91,0,0-.07,0-.1,.46,2.87,1.86,5.68,3.58,8.71,4.64,5.54,1.95,11.22,3.5,16.85,5.21,16.43,6.04,32.87,12.08,50.08,18.58,3.84,2.31,6.91,4.14,9.4,6.02-7.74-.99-15.44-.66-21.89-3.37-7.33-3.07-14.45-3.15-21.89-3.17-7.71-.02-15.41,.03-23.12,.07l-.03-.46c-4.77-1.9-9.47-3.3-14.17-4.7,0,0,.03,.03-.18-.4-7.97-3.15-15.64-6.15-23.51-8.5-5.97-1.78-12.18-2.71-18.3-4.01,0,0-.03,0-.46-.36-2.94-.54-5.44-.74-7.94-.94l-.03-.46c-2.16-1.67-4.31-2.87-6.55-4.17-.1-.1-.49-.49-.73-.94-2.05-1.02-3.83-1.6-5.61-2.18,0,0,.03,.03-.15-.38-1.8-1.01-3.4-1.6-5-2.19l.1-.41c.89-1.11,1.7-2.34,2.51-2.34,5.08,0,10.16,.25,15.43,.81,1.78,.99,3.38,1.58,5.18,2.59,1.78,1.01,3.38,1.62,5.16,2.66,4.62,1.45,9.07,2.49,13.51,3.5,11.65,2.64,23.31,5.26,34.96,7.89,.2-.73,.38-1.45,.58-2.16-5.89-1.6-11.7-3.58-17.67-4.75-10.36-2.03-20.81-3.56-31.45-5.69-1.8-.99-3.35-1.6-5.15-2.59-1.8-.99-3.37-1.6-5.23-2.64-1.2-.94-2.08-1.83-3.02-1.91-11.83-.99-23.68-2.11-35.52-2.69-9.39-.46-18.79-.2-28.38-.73-5.87-2.66-11.62-6.72-17.29-6.63-10.21,.15-19.09-2.79-28.07-7.26-.41-.59-.73-.84-1.27-1.29-.41-.61-.74-.86-1.4-1.44-3.17-1.04-6.06-1.68-8.94-2.31l-.26,2.21c3.04,.28,6.09,.56,9.29,1.12,.4,.63,.73,.87,1.3,1.27,.41,.58,.73,.82,1.25,1.44,6.98,5.4,14.17,9.29,23.08,8.37,1.85-.18,3.86,.1,5.66,.61,5.43,1.57,10.79,3.37,16.47,5.49,2.77,.81,5.25,1.5,7.74,1.53,11.93,.12,23.84,.05,35.77,.05v.94c-26.1,.58-52.2,1.15-78.29,1.73,0,0,.03,.03-.18-.4-6.55-1.86-12.87-3.32-19.19-4.75l-.03-.48c-2.23-1.48-4.36-3.1-6.62-3.35-8.51-.92-17.06-1.4-26.13-2.08,3.13-2.51,5.81-4.65,8.74-6.96,.58-.41,.82-.73,1.2-1.2-.05-.15-.3-.2-.79-.08-.59,.41-.84,.74-1.47,1.19-8.93,3.56-17.39,7.08-25.87,10.54-3.22,1.32-6.48,2.49-9.73,3.73l-.59-.03c-6.29-.03-12.01-.38-17.65,.13-2.24,.2-4.31,2.34-6.91,3.66-1.4,.1-2.34,.16-3.28,.13,0-.08,.03-.21-.12-.63-6.24-3.6-12.23-7.01-18.51-9.77-1.5-.66-3.99,.96-6.39,1.25-2.16-1.06-3.99-1.83-6.04-2.99-1.44-1.06-2.64-1.77-3.86-2.46-.1-.26-.26-.49-.79-1.24-1.24-1.14-2.14-1.72-3.05-2.31l.07-.46c-1.72-1.9-3.48-3.32-5.23-4.72,0,0,.03,.03-.1-.26-.49-.54-.86-.79-1.19-1.02,0,0,.03,.03,0-.41-.2-1.32-.33-2.19-.13-3.22,.73-.51,1.09-.89,1.47-1.29-.43-.28-.86-.58-1.29-.86-.38,.82-.74,1.65-1.5,2.62-2.8-.63-5.21-1.4-7.8-2.41-.43-.51-.73-.73-1.07-.91v-.43c.43-1.44,.86-2.44,1.42-3.3,.13,.15,.71,.23,.71,.23,0,0,.46-.36,.58-.43,.1-.05,.12-.33,.12-.33,0,0-.25,.36-.56,.36s-.96,0-.97-.4c-.81-.73-1.58-1.06-2.38-1.39-.48,1.37-.94,2.76-1.88,3.98-2.43-.31-4.37-.48-6.34-.64m23.31-15.66v.28s.23-.38,.45-.48v-.28s-.23,.36-.45,.48m27.36,30.24c0-.21,0-.43,.36-.96,.08-.28,.17-.58,.23-.86-.2,.38-.4,.78-.91,1.44-.21,.41-.12,.76,.38,1.25h.28s-.38-.23-.38-.87m40.31,3.17v-.35s-.35,.36-.54,.51v.33s.33-.35,.54-.49m-69.81-21.99v-.28s-.23,.38-.45,.48v.28s.23-.36,.45-.48m3.88-1.29v-.28s-.23,.38-.45,.48v.28s.23-.36,.45-.48m125.74-2.21c-.03,.49-.07,1.01-.1,1.5,.33-.53,.66-1.06,1.5-1.9,.33-.26,.58-.58,1.55-1.04,.74-.58,1.48-1.15,2.24-1.75-.26-.28-.53-.58-.78-.86-.86,.78-1.73,1.57-3.12,2.66-.33,.26-.58,.58-1.3,1.37m12.92-13.5l.13-1.57c-.41,.46-.82,.94-1.73,1.78-.26,.33-.45,.71-1.2,1.58-.49,.94-.99,1.88-1.48,2.84,.26,.15,.54,.3,.81,.45,.64-1.04,1.3-2.06,2.43-3.48,.3-.3,.51-.66,1.04-1.6m-26.66,30.13c.94-.87,1.9-1.77,3.48-2.84,.21-.38,.41-.74,1.55-1.09,1.5-.79,2.99-1.57,5.2-2.67,.54-.92,1.07-1.83,1.62-2.76-.28-.16-.58-.35-.86-.51-.63,1.04-1.25,2.06-2.82,3.13-.92,.05-1.86,.08-2.92-.43-.36,.66-.74,1.32-1.17,2.54,0,0-.03,.56-.66,.58,0,0-.63,.02-1.01-.61-.74-.45-1.48-.89-2.24-1.34-.15,.33-.3,.68-.46,1.01,1.02,.33,2.05,.64,3.04,1.58,0,0-.03,.61-.84,.69-1.04,.81-2.08,1.62-3.86,2.61-.45,.58-.89,1.15-1.32,1.75,.26,.2,.53,.4,.81,.59,.54-.71,1.09-1.44,2.49-2.28m-5.86-2.71c-1.01,.41-2.03,.84-3.65,1.42-.36,.41-.73,.81-1.07,1.24,0,0,.26,.25,.41,.38,.46-.56,.91-1.12,2.06-1.4,1.06-.53,2.13-1.06,3.38-1.72v-.31s-.28,.35-1.14,.4m-143.92-36.4h-.28s.36,.23,.56,1.01c.79,.59,1.58,1.2,2.57,2.71,2.82,1.96,5.64,3.94,8.46,5.91,.49-.54,.97-1.09,1.47-1.62-1.22-2.14-2.43-4.29-3.71-6.96-.41,.16-.81,.33-1.9,.38-1.5,.03-2.99,.08-4.49-.54-.86-.21-1.72-.43-2.67-.84m117.57,42.63h-.28s.36,.23,.58,.99c.81,.45,1.63,.89,2.44,1.34,.17-.38,.33-.78,.48-1.15-1.04-.31-2.08-.63-3.23-1.15m-66.39-1.75l8.79,.48c.13-.71,.25-1.42,.38-2.13-2.99-1.47-5.89-3.17-9.01-4.22-.76-.25-2.24,1.7-3.84,3.2,.96,.69,1.91,1.37,3.68,2.66m75.4-1.48c.64-1.95,1.11-3.98,2.01-5.79,.87-1.77,2.19-3.3,3.51-5.05v-.28s-.23,.36-1.02,.48c-2.23-.64-4.47-1.29-8.15-2.33,.15,2.67,.43,5.46,.43,8.27,0,1.86-.38,3.71-.78,5.71v.3s.28-.36,.89,.31c1.19,1.01,2.24,2.51,3.6,2.87,.84,.23,2.16-1.22,3.25-1.93-1.2-.56-2.41-1.11-3.75-2.54m-63.28-16.12h-.25s.38,.18-.03,.86c-1.11,.94-2.21,1.88-3.38,2.87,.4,.53,.66,1.27,1.17,1.5,9.06,4.34,18.1,8.71,27.27,12.77,1.29,.58,3.37-.23,4.95-.79,4.8-1.68,9.54-3.56,14.49-4.7,.71-.03,1.42-.07,2.13-.08-.78-.64-1.55-1.27-3.42-1.9-5.73,.08-11.63,1.6-16.63-2.92-2.99-2.71-6.47-2.76-10.64-2.82-4.62-.07-11.05,1.4-14.06-4.72l.03-.25s-.21,.36-.87,.38c-.21,0-.43,0-.76-.21m-14.09-4.16c.17,4.62,1.87,6.56,5.11,5.82-.4-1.37-.46-3-1.29-4.06-.89-1.14-2.47-1.75-3.83-1.77m305.06,61.86c-1.45-.12-2.9-.25-4.36-.36-.07,.68-.15,1.35-.21,2.03,3.32,.48,6.63,.96,9.95,1.44,.1-.59,.2-1.2,.28-1.8-1.57-.31-3.13-.64-5.64-1.29m-239.16-52.11c-1.07,1.24-2.14,2.47-3.94,4.55h8.02c-1.5-1.98-2.71-3.58-4.06-4.55m77.68-15.76c-2.33,.13-4.64,.26-6.96,.4,.05,.53,.1,1.04,.15,1.57h9.73c.07-.31,.12-.63,.18-.94-.69-.31-1.37-.63-3.09-1.01m-176.43-1.25c1.11,.1,2.21,.2,4.85,.45-3.37-2.42-4.98-2.57-4.85-.45m92.64,33.81c-.63,.33-1.25,.66-1.86,1.01,.58,.38,1.15,.76,1.72,1.14,.28-.64,.56-1.29,.15-2.14m-84.87-27.03c.26-.81,.54-1.62,.81-2.44-.45-.08-.89-.18-1.34-.26,.03,.74,.08,1.48,.53,2.71m156.23-16.17l-3.13,1.14c.25,.43,.49,.86,.76,1.29,.78-.56,1.55-1.14,2.39-2.43m-98.88,45.52c-.15,.53-.28,1.06-.43,1.58h1.09c-.03-.54-.07-1.07-.66-1.58m-62.42-25.11c.25-.41,.49-.82,.74-1.24-.38-.13-.74-.25-1.12-.38-.05,.48-.1,.94,.38,1.62m-39.8-46.46c-.03,.35-.05,.68-.08,1.02h.58c0-.35-.03-.68-.49-1.04m38.15,27.98c-.21-.26-.43-.53-.66-.79-.15,.13-.28,.26-.43,.4,.25,.23,.49,.46,1.07,.4m83.64,37.75c.03-.35,.05-.68,.08-1.02h-.58c0,.35,.03,.68,.49,1.04m-70.22-24.7c.3,0,.59,.03,.87,0,.03,0,.03-.31,.05-.48-.3,.03-.58,.05-.94,.46m46.56,31.22c-.23-.13-.46-.28-.69-.41-.05,.16-.17,.46-.12,.49,.21,.15,.48,.21,.81-.08m-62.25-27.88l-.38,.12s.38,.12,.38-.12m61.79,1.67l.13-.43s-.31,.28-.13,.43m-31.15-1.67l.25,.35s-.03-.45-.25-.35m-12.59,.26l-.25-.35s.03,.45,.25,.35m51.51,.56s-.02-.05,0,0m77.25,5.07l.41,.2s-.08-.48-.41-.2m-41.07,.1s-.02-.05,0,0m50.42-10.72l-.18,.45s.43-.12,.18-.45m-175.7-7.41s-.05,.02,0,0Z"/><path class="cls-4" d="M1146.32,1129.8c-1.57-.63-3.13-1.24-5.03-2.18,10.21-.4,20.74-.36,31.27-.54,44.75-.82,89.49-1.9,134.24-2.46,16.47-.21,32.93,.69,49.4,1.22,3.33,.12,6.67,.81,10.54,1.35,.54,.31,.51,.71,.49,.71-12.67-.07-13.93,11.17-18.64,18.91-3.35,5.49-6.73,10.99-9.59,16.75-4.64,9.37-12.8,11.7-22.16,11.81-6.95,.08-13.89-.18-21.55-.54-1.44-.08-2.14,.1-3.17,.46-.59,.84-.89,1.48-1.15,2.06,0-.08-.15-.13-.15-.13-4.88,.91-9.73,2.05-14.65,2.59-2.03,.23-4.19-.81-6.3-1.24-5.53-1.11-11.07-2.16-16.6-3.28-7.89-1.58-15.74-3.33-23.66-4.74-4.16-.74-8.41-.92-13.31-1.06-.94,.26-1.19,.25-1.44,.21v-4.74c-2.59-.21-4.62-.38-7.13-.49-.48,.03-.4-.13-.4-.13-2.33-.76-4.67-1.52-7.47-2.33-.48-.07-.49-.05-.49-.05-3.3-2.36-6.88-4.42-9.85-7.16-6.45-5.94-12.57-12.23-19.24-18.64-.4-.28-.43-.15-.48-.49-.89-.48-1.72-.59-2.62-.73-.05,0-.07,.12-.07,.12-5.87-1.9-11.75-3.79-18.3-5.46-1.27,.23-1.88,.21-2.47,.2h-.02Z"/><path class="cls-1" d="M1088.92,1263.89c9.44-6.43,17.42-.53,25.99,3.7,3.83,1.9,8.51,2.18,12.85,2.9,7,1.17,14.01,2.26,21.04,3.07,8.18,.92,16.45,1.2,24.6,2.34,5.05,.71,9.9,3.13,14.95,3.65,5.73,.59,10.66-.69,14.12-6.91,2.47-4.42,7.72-7.29,12.29-11.34,.87,3.5,3.89,5.94-1.32,8.88-3.46,1.95-5.58,6.29-7.62,10.25,15.56-4.01,29.04,2.38,43.69,5.82,3.22,.18,5.68-.03,8.41-.51,1.27-.41,2.26-.56,3.23-.73-3.6,2.74-.97,4.03,1.39,4.44,11.47,2.01,22.97,3.94,34.52,5.35,1.22,.15,2.89-3.38,4.67-6.07-.41-4.09-1.12-7.34-2.21-12.24,3.38,1.5,5.16,2.29,6.98,3.66,.03,5.46,.03,10.35,.03,15.51,5.86,.64,11.95,1.32,18.13,2.36,3.94,.96,7.79,1.53,12.23,2.14,17.39,.05,34.17-.16,50.93,.2,5.64,.12,6.6-4.04,7.19-7.29,.76-4.19-.18-8.73-.76-13.05-.05-.41-2.77-.73-4.22-.64-4.47,.26-8.93,.76-13.4,.96-.02-.2-.13-.59,.2-.99,9.34-4.41,18.41-3.1,27.22-.61-1.67,2.9-3.73,5.4-4.22,8.17-.68,3.88-.17,7.97-.17,10.76,10.02,0,20.23,.1,30.44-.1,1.86-.03,4.7-.81,5.38-2.13,2.99-5.82,4.41-12.03,1.93-18.69,1.37-.13,2.49-.05,3.61,.64,0,5.53,.1,10.44,0,15.34-.08,3.48,1.35,5.35,4.92,4.88,6.67-.87,13.5-1.24,19.93-3.04,8.23-2.31,7.64-2.72,5.61-10.84-1.17-4.7-.66-9.83-.51-14.67,.66,.13,.92,.15,1.48,.51,2.34,7.29,4.41,14.24,6.48,21.3,8.1-1.11,17.08-2.56,26.12-3.45,3.84-.38,4.87-2.24,4.36-5.4-.54-3.46-1.52-6.85-1.95-10.43,2.23-.05,4.08,.05,5.96,.73,0,3.15-.45,5.81,.05,8.28,2.03,9.97,9.17,.56,13.33,3.13,.1,.07,2.66-2.85,3.1-4.62,.35-1.44-.76-3.25-1.19-4.93,.05-.05,.07-.2,.48-.07,1.9,1.47,3.37,2.8,4.83,4.6-1.02,7.09-.61,7.39,5.68,6.32,2.92-.5,5.99,0,8.93-.41,1.9-.26,3.66-1.39,5.81-2.24,9.21,3.73,19.6,2.76,30.49,2.23,9.67,.86,18.76,1.98,27.9,2.59,3.93,.26,7.92-.51,11.88-.82,.07-.86,.15-1.72,.21-2.57-2.23-.91-4.37-2.29-6.68-2.64-5.48-.81-12.01,3.05-16.04-3.94-.23-.4-1.63-.2-2.49-.12-4.24,.41-8.46,.89-13,1.15-1.01-1.15-1.7-2.13-2.72-3.53-3.5,3.73-6.35,2.01-9.14-2.03-5.71-.96-11.07-1.52-16-2.21,21.7,.64,42.93,1.95,63.64,7.09,3.28,.82,5.77,4.83,8.58,7.84-1.39,2.28-2.71,4.08-4.03,5.87-25.39-.92-50.8-2.77-76.18-2.52-28.46,.26-56.96,1.98-84.43,10.86-3.56,1.15-7.47,1.67-11.24,1.77-37.68,.96-75.37,2.62-113.04,2.26-18.2-.18-36.48-3.65-54.53-6.72-20.18-3.43-40.14-8.17-60.22-12.21-2.06-.41-4.29-.13-6.43-.07-15.72,.43-31.3-.48-46.78-3.78-10.86-2.31-21.93-3.84-32.97-5.18-12.9-1.55-25.69-3.09-37.77-8.56-4.26-1.93-9.29-2.18-14.49-3.3l-.07,.05Z"/><path class="cls-6" d="M1631.06,1285.01c-2.85-2.54-5.35-6.55-8.65-7.36-20.71-5.15-41.94-6.45-64.07-7.21-3.07-.03-5.26-.1-7.72-.53-6.15-3.09-12.06-5.79-17.95-8.48,0,.02,.05,.02-.21-.43-2.39-1.04-4.52-2.06-6.68-2.13-7.18-.23-14.35-.13-21.8-.53-7.79-5.46-15.41-10.44-22.8-15.76-2.13-1.53-3.6-3.99-4.85-5.96,2.33,.54,4.12,1.02,5.91,1.5,9.5,2.61,19.01,5.21,28.51,7.82,0,0-.03-.02,.05,.43,4.77,1.88,9.45,3.3,14.14,4.74l.12,.48c2.11,.99,4.09,1.88,6.09,1.91,7.31,.16,14.65-.31,21.93,.2,5.21,.36,10.31,2.18,15.53,2.84,8.37,1.06,16.78,1.7,25.69,2.56,2.69-.49,4.87-1.01,7.05-1.5,10.31,5.58,20.69,11.05,30.89,16.83,2.41,1.35,4.22,3.75,6.42,6.55-2.46,1.95-5.03,2.99-7.59,4.03h.02Z"/><path class="cls-17" d="M1054.67,1230.53c.35,.21,.66,.45,1.27,1.32,1.09,1.24,1.83,1.91,2.57,2.57,.03,.23,.08,.45-.13,1.32-4.16,5.89-7.74,11.42-12.04,16.3-3.42,3.88-5.11,10.44-12.37,9.44-6.55-2.69-8.76-13.73-3.6-18.25,3.4-2.97,6.91-5.77,11.15-8.53,2.51,.4,4.6,1.4,5.96,.79,2.62-1.17,4.82-3.27,7.19-4.97h0Z"/><path class="cls-11" d="M935.69,1059.86c-6.43,1.17-13.51-1.68-16.04-6.47-.49-.96-.64-2.8-.07-3.5,4.32-5.18,8.86-10.18,13.35-15.23,9.65,8.65,10.91,17.93,2.77,25.19h-.02Z"/><path class="cls-7" d="M1054.67,1229.9c-2.38,2.33-4.59,4.41-7.19,5.59-1.35,.61-3.43-.4-5.54-.96,1.52-2.29,3.17-4.6,5.31-6.29,3.86-3.04,3.46-6.3,1.15-9.87-1.7-2.61-3.53-5.13-4.83-8.05,2.57-.48,5.77,.25,6.63-.84,3.55-4.59-.25-12.16-5.97-12.67,6.32-5.91,10.77-12.85,12.49-21.8-.38,17.93-1.2,36.12-2.01,54.89l-.03-.02Z"/><path class="cls-11" d="M998.42,1014.63c.2-1.19,.31-2.61,.59-2.62,5.03-.53,11.25,4.49,11.37,10.41,.05,2.56-2.67,6.52-5.08,7.47-6.27,2.52-10.44-.1-12.77-6.55-.21-.59-.66-1.09-.17-.28,2.28-3.02,4.17-5.51,6.06-8.43h0Z"/><path class="cls-7" d="M1080.74,1156.66c-6.4-2.38-8.73,3.22-13,6.62-1.01,.56-1.27,.86-1.48,1.22-.36,.2-.68,.46-1.44,1.12-.74,1.19-.99,2.03-1.22,2.89-.96,1.57-1.9,3.13-3.45,4.55-.92-.45-1.25-.74-1.57-1.04-.38-6.6,2.18-11.38,7.95-14.98,7.16-4.45,13.88-9.59,21.25-14.35-1.72,4.37-3.91,8.65-6.35,13.45-.25,.51-.69,.51-.69,.51v.02Z"/><path class="cls-11" d="M1127.08,1139.86c-1.32-.99-2.64-1.96-4.41-3.27-1.93,4.92-3.76,9.59-5.58,14.24-.76-.15-1.52-.3-2.29-.45,0-1.63-.1-3.27,.02-4.88,.25-3.18,.63-6.37,.96-9.54-3.15,.79-6.32,1.47-9.4,2.44-.91,.28-1.57,1.39-2.85,2.49-.53,.38-1.04,.38-1.04,.38l-.05-.4c-.46-.99-.89-1.6-1.32-2.19,8.32-3.43,16.63-6.88,25.44-9.72,.49,4.03,.51,7.46,.53,10.89h0Z"/><path class="cls-7" d="M1034.18,1261.92c7.03,.54,8.73-6.02,12.16-9.9,4.31-4.88,7.9-10.41,12.11-15.97,1.04,.81,1.75,1.91,2.14,3.68-2.49,3.78-4.67,6.9-6.86,10.02-3.32,3.43-6.27,7.36-10.08,10.11-2.43,1.75-6.14,1.75-9.49,2.06h.02Z"/><path class="cls-17" d="M1043.76,1197.06c6.15,.26,9.95,7.84,6.4,12.42-.84,1.09-4.04,.36-6.67,.38-.38-4.26-.28-8.4,.26-12.8Z"/><path class="cls-13" d="M1466.96,1201.78c-4.42,1.44-8.79,2.46-13.05-1.29-1.45-1.29-4.44-1.01-6.73-1.14-8.02-.48-16.05-.81-24.22-1.81-.13-.61,.2-.96,.2-.96,9.85,.1,19.7,.2,30.51,.64,4.65,1.44,8.35,2.51,12.04,3.6,.36,.21,.73,.45,1.25,.94v.02Z"/><path class="cls-2" d="M1631.01,1285.47c2.62-1.52,5.18-2.56,7.87-4.09,2.03,.53,3.93,1.52,6.01,2.9-3.79,4.55-7.75,8.74-12.14,13.08-2.08-1.62-3.75-3.42-5.59-5.63,1.15-2.21,2.47-4.01,3.86-6.29v.02Z"/><path class="cls-2" d="M2083.87,1305.4c-.12,2.82,.03,6.01-1.45,7.9-1.12,1.42-4.34,1.2-6.62,1.72-.18-1.63-.71-3.32-.46-4.88,.31-1.93,1.25-3.78,2.28-5.87,2.16,.16,3.99,.54,6.25,1.14h0Z"/><path class="cls-4" d="M1127.58,1139.89c-.49-3.46-.51-6.9-.51-10.82,3.99-.99,7.99-1.48,12.57-1.88-1.52,2.8-3.61,5.51-6.27,8.51-1.15,1.63-1.77,2.99-2.38,4.32-.97-.03-1.95-.07-3.42-.13h0Z"/><path class="cls-2" d="M1735.12,1317.08c.96,.76,1.7,1.55,1.96,2.46,.66,2.31,1.11,4.7,1.63,7.05-2.1,.43-5.43,1.85-6.01,1.09-1.32-1.68-1.34-4.42-1.75-6.76-.1-.53,.41-1.17,.68-2.19,1.06-.82,2.06-1.19,3.5-1.63h-.02Z"/><path class="cls-2" d="M1678.53,1312.77c.13,.59,.16,.82,.08,1.01-1.07,2.71-2.14,5.4-3.22,8.08-1.8-.81-3.58-1.6-5.38-2.41,1.34-2.82,2.67-5.66,4.42-8.7,1.58,.4,2.76,1.02,4.09,2.01h0Z"/><path class="cls-4" d="M1465.54,1200.38c-3.53-.64-7.23-1.73-11.27-3.1-3.93-2.95-7.61-5.49-11.04-8.35-1.15-.96-1.65-2.72-2.34-4.59,8.22,4.88,16.35,10.23,24.65,16.04h0Z"/><path class="cls-4" d="M1430.95,1173.59c-2.99-1.93-6.78-3.75-9.16-6.7-2.85-3.53-4.49-8.05-6.75-12.64,5.18,5.99,10.44,12.47,15.89,19.34h.02Z"/><path class="cls-4" d="M1532.21,1232.55c-5.46-1.27-11.14-2.82-16.68-4.77-3.04-1.06-5.82-2.77-8.7-4.67,7.44,2.39,14.83,5.3,22.24,8.15,.96,.38,2,.56,3.15,1.29h-.02Z"/><path class="cls-11" d="M1392.01,1138.39c-7.41-.94-15.03-2.41-20.38-9.42,6.68,2.71,13.4,5.86,20.38,9.42Z"/><path class="cls-2" d="M1054.24,1249.76c1.67-3.13,3.86-6.25,6.37-9.6,1.63,2.38,2.95,5,4.29,8.07-3.37,.82-6.75,1.19-10.66,1.53Z"/><path class="cls-4" d="M1601.13,1257.14c-1.96,.96-4.14,1.47-7.03,1.68-1.04-.63-1.35-.94-1.67-1.27-3.07-1.85-6.14-3.68-9.5-5.89,5.79,1.44,11.88,3.22,18.2,5.48Z"/><path class="cls-4" d="M1440.9,1183.5c-4.95-.48-9.19-2.36-9.64-8.68,3.37,2.47,6.45,5.36,9.64,8.68Z"/><path class="cls-15" d="M1100.69,1138.72c.86,.58,1.27,1.19,1.73,2.16-1.06,.15-2.14-.08-3.55-.87-.31-.56-.33-1.09-.33-1.09,.56-.07,1.14-.12,2.13-.21l.02,.02Z"/><path class="cls-10" d="M1058.18,1172.2c.71,.13,1.04,.41,1.57,.97-.48,.68-1.14,1.09-2.23,1.52-.18-.76,.03-1.53,.64-2.49h.02Z"/><path class="cls-10" d="M1095.59,1140.11c-.25,.41-.89,.73-1.91,1.09,.26-.36,.87-.78,1.91-1.09Z"/><path class="cls-4" d="M1506.75,1222.24c-.63,.26-1.42,.1-2.52-.36,.58-.21,1.47-.13,2.52,.36Z"/><path class="cls-10" d="M1098.21,1138.87c.33,.05,.36,.58,.35,.84-.25,.26-.48,.25-1.07,.23-.12-.4,.13-.76,.71-1.07h.02Z"/><path class="cls-2" d="M2048.38,1354.06c-1.85,2.29-3.71,4.55-6.09,5.92-.71,.41-4.22-1.93-4.09-2.49,.61-2.67,2.01-5.16,3.51-8.61,2.87,2.13,4.67,3.45,6.67,5.16v.02Z"/><path class="cls-2" d="M1835.73,1326.77c-1.37-2.66-2.57-5.07-3.02-7.61-.07-.4,3.68-2.39,5.02-1.88,1.81,.68,3,3.04,4.45,4.69-2.01,1.67-4.01,3.35-6.45,4.82v-.02Z"/><path class="cls-2" d="M1919.19,1353.68c-2.74,1.02-5.3,2.01-7.82,1.91-.63-.02-1.98-3.86-1.44-5.38,.51-1.45,4.03-3.42,4.57-3,2,1.53,3.3,3.96,4.69,6.48v-.02Z"/><path class="cls-2" d="M1958.21,1361.66c2.77,3.02,5,6.5,.56,8.48-2.26,1.01-5.89-1.04-8.89-1.72-.1-1.11-.18-2.21-.28-3.33,2.74-1.24,5.48-2.47,8.61-3.45v.02Z"/><path class="cls-2" d="M2003.12,1335.1c1.77,4.44,2.16,8.3-3.53,8.76-1.4,.12-3.63-1.6-4.27-3.02-.63-1.39-.28-4.54,.66-5.05,1.9-1.02,4.49-.79,7.14-.71v.02Z"/><path class="cls-2" d="M2026.33,1331.12c-1.29-2.03-2.18-3.78-3.09-5.53,.31-.66,.61-1.34,.92-2,3.12,.61,6.37,.92,9.24,2.13,.49,.2-.2,4.45-1.22,6.34-.33,.59-3.56-.4-5.84-.92l-.02-.02Z"/><path class="cls-2" d="M1812.01,1319.01c.51,4.57-1.29,7.49-5.48,6.55-1.62-.36-2.89-3.89-3.5-6.2-.23-.84,2.01-3.37,2.95-3.27,2.01,.2,3.91,1.6,6.04,2.94l-.02-.02Z"/><path class="cls-2" d="M1812.96,1290.5c5.33,.33,4.22,4.03,3.38,6.55-.45,1.35-3.51,3.07-4.72,2.66-1.8-.61-2.99-2.97-4.44-4.59,1.78-1.52,3.55-3.02,5.76-4.6l.02-.02Z"/><path class="cls-5" d="M2072.18,1368.01c-1.91,2.21-3.71,4.39-6.04,5.49-.66,.31-4.12-2.61-4.03-3.86,.18-2.43,2-4.72,3.13-7.06,.56,.2,1.12,.41,1.68,.61,.33,1.32,.66,2.64,1.07,4.26,.71-1.15,1.24-2,2.03-3.32,.79,1.34,1.42,2.38,2.14,3.84v.03Z"/><path class="cls-2" d="M1891.15,1317.69c-2.97-.35-5.71-.92-8.27-1.96-.21-.08,.23-3.78,1.3-4.64,1.34-1.07,5.08-1.62,5.28-1.22,1.07,2.29,1.39,4.93,1.68,7.82Z"/><path class="cls-2" d="M1839.23,1343.23c2.18-1.6,4.21-3.23,6.4-3.55,.73-.1,3.17,3.79,2.67,4.77-.97,1.93-3.46,3.1-5.31,4.59-1.29-1.77-2.56-3.55-3.76-5.81Z"/><path class="cls-2" d="M1655.05,1304.41c4.29-.92,6.6,.97,6.65,4.67,.02,1.63-1.77,4.59-2.85,4.65-1.93,.12-5.11-1.12-5.64-2.57-.64-1.78,.89-4.34,1.85-6.76v.02Z"/><path class="cls-5" d="M2132.57,1334.7c-5.77-4.6-2.56-7.54,2.54-11.2,1.39,2.72,3.25,5.18,3.61,7.85,.12,.87-3.68,2.29-6.15,3.35Z"/><path class="cls-5" d="M1878.23,1356.22c1.34,2.34,2.24,4.72,3.17,7.09-2.03,.68-4.16,2.01-6.09,1.8-1.29-.15-2.33-2.52-3.48-3.89,2-1.65,3.99-3.3,6.4-5Z"/><path class="cls-2" d="M2013.78,1361.58c-2.33,.03-4.26,.05-6.19,.08,.28-2.77,.56-5.54,.84-8.33,2.05,.63,4.41,.79,6.06,1.96,2.66,1.9,3.33,4.36-.71,6.29Z"/><path class="cls-2" d="M1852.35,1299.74c-1.96,5.48-5.76,3.63-8.38,2-.91-.58-.66-5.61,.61-6.58,4.75-3.63,6.52,.3,7.77,4.59Z"/><path class="cls-2" d="M1903.2,1329.55c1.86,2.16,3.3,4.22,4.74,6.3-2.69,1.01-5.38,2.03-8.55,3.22-1.4-4.75-1.96-8.23,3.81-9.52h0Z"/><path class="cls-2" d="M1950.68,1334.47c-.76,3.91-2.28,6.5-6.55,5.13-3.99-1.29-2.79-4.24-1.85-6.76,.43-1.17,2.36-2.95,2.72-2.77,2.01,1.04,3.76,2.61,5.68,4.41h0Z"/><path class="cls-2" d="M1965.91,1344.52c-6.53-.54-7.47-2.64-3.89-8.7,.53,1.12,.91,1.93,1.57,3.32,.41-1.6,.71-2.79,1.04-4.04,7.06,4.77,7.18,5.51,1.27,9.42h.02Z"/><path class="cls-2" d="M1772.47,1320.17c.87,2.29,1.34,4.59,1.8,6.86-.48,.25-.96,.51-1.44,.76-1.95-3.13-8.81,1.98-7.99-5.31,.56-5.02,4.27-3.15,7.64-2.31h-.02Z"/><path class="cls-2" d="M2063.34,1332.28c2.49,.5,5.1,.54,6.55,1.88,.94,.86,.18,3.58,.18,5.89-3.32-.92-5.73-1.6-8.73-2.44,.48-1.53,1.06-3.37,2.01-5.31l-.02-.02Z"/><path class="cls-1" d="M1210.77,1247.3c9.75,2.18,19.6,3.96,29.19,6.68,4.5,1.27,8.48,4.36,12.47,6.95-4.45,.31-8.66,.3-13-.2-5.76-1.63-11.38-2.8-17.51-4.12-2.23-.23-3.96-.33-5.69-.41,0,0-.05,.02-.02-.35-.43-.94-.87-1.5-1.34-2.06,0,0-.03-.05-.25-.46-1.91-.68-3.61-.94-5.31-1.2-6.35-1.06-12.87-1.57-19.04-3.28-7.16-2-12.09,.79-12.94,8.43-.86,7.66-10.48,12.31-19.5,8.74,1.52-.68,2.47-1.32,3.51-1.5,6.91-1.24,11.37-5.87,12.21-12.85,.03-.21-.07-.51,.03-.63,5.87-6.8-.96-10.06-3.88-14.57-2.08-3.2-3.5-6.81-4.75-10.69,1.85,.43,3.23,1.29,4.8,2.46,4.08,3,9.01,4.93,11.68,8.53,6.29,8.51,15.43,8.91,24.35,10.49,0,0,.03,0,.18,.38,1.7,.15,3.27-.1,4.83-.33h-.05Z"/><path class="cls-1" d="M1402.39,1274.17c5.91-2.01,11.68-4.55,17.74-5.94,11.75-2.71,23.56-5.25,35.47-6.96,7.99-1.15,16.19-.78,25.48-1.07,4.64,.1,8.08,.2,12.01,.51,13.53,.4,26.58,.58,39.63,.74,0,0-.03,0,.02,.41,3.05,3.1,6.06,5.77,8.53,8.45-8.38-.63-16.25-1.24-24.34-2.16-3.89,.08-7.56,.48-11.2,.53,1.17-1.14,2.33-1.91,3.46-2.69-.12-.54-.21-1.09-.33-1.65-9.72,0-19.42,0-29.73-.08-7.36-.13-14.12-.49-20.84-.03-2.43,.16-4.7,2.34-7.03,3.63,.03,0-.02-.03-.4-.16-2.71,.82-5.05,1.78-7.38,2.74,.02,0-.03-.03-.36-.08-.56-.05-.78-.05-1.48,.08-13.41,1.34-26.35,2.52-39.28,3.73l.03,.02Z"/><path class="cls-15" d="M1318.13,1239.6c-13.88-2.44-27.69-5.96-41.66-7-11.2-.82-20.11-6.42-30.08-9.82-4.65-1.58-9.9-1.48-16.32-2.34,2.52-1.17,3.78-1.75,4.85-2.26-3.2-2.05-6.37-4.09-9.67-6.58-.12-.45-.05-.53,.41-.43,5.77,2.59,11.07,5.08,16.58,7.85,.63,.45,1.06,.59,1.88,.56,2.14-.46,3.89-.71,5.64-.97,0,0-.03,.15-.02,.64,.49,1.44,.99,2.38,1.93,3.43,12.56,3.27,24.6,6.7,36.76,9.54,8.43,1.98,17.08,3.1,25.59,4.77,1.55,.31,2.95,1.45,4.34,2.31-.08,.1-.25,.3-.25,.3h0Z"/><path class="cls-1" d="M1130.85,1190.41c-1.65-2.79-3.48-5.49-4.92-8.4-1.17-2.34-1.86-4.9-2.34-7.9,1.01-.56,1.55-.58,2.11-.59,2.77,2.29,5.53,4.57,8.78,7.59,3.89,6.25,6.62,12.41,10.94,17.08,3.96,4.31,6.86,8.32,6.29,14.27-6.43-6.67-12.85-13.33-19.6-20.67-.56-1.01-.87-1.24-1.25-1.39v.02Z"/><path class="cls-1" d="M1284.97,1271.53c.33-.53,.74-1.53,.99-1.48,11.4,1.6,23.46-1.37,34.25,4.95,1.5,.87,3.73,.71,5.63,.73,15.18,.13,30.38,.23,45.55,.18,1.77,0,3.53-.97,5.66-1.14-.02,1.3-.4,2.24-1.37,3.27-20.95-.3-41.33-.49-61.69-1.17-7.64-.26-15.26-1.65-22.88-2.54,0,0-.02,.05-.08-.45-2.06-1.11-4.08-1.73-6.07-2.34h.02Z"/><path class="cls-16" d="M1291.19,1274.78c7.57,.43,15.18,1.81,22.82,2.08,20.36,.69,40.74,.87,61.74,1.63,.68,.68,.71,.97,.73,1.29,0,0,.12,.38-.49,.66-8.05,.71-15.48,1.15-23.26,1.45-2.21-.43-4.09-.69-6.5-1.01-7.87-.87-15.18-2.11-22.54-2.41-5.73-.23-11.5,.71-17.24,1.14-1.78-.79-3.56-1.58-6.96-3.09,1.09,4.9,1.81,8.15,2.26,11.73-3.68-4.12-7.09-8.56-10.56-13.46l.02-.02Z"/><path class="cls-18" d="M1205.79,1246.79c-8.94-1.11-18.08-1.5-24.37-10.02-2.66-3.61-7.61-5.53-11.15-8.55,1.39-.36,2.43-.4,3.46-.43,9.7,4.62,19.45,9.14,29.04,13.99,1.42,.71,2.06,2.99,3.04,5.02l-.02-.02Z"/><path class="cls-18" d="M1376.82,1279.38c-.38,.08-.41-.21-.48-.99,.33-1.4,.71-2.34,1.19-3.65,7.94-.41,15.79-.45,24.25-.53,13.56-1.24,26.5-2.44,40.11-3.48,1.02,.48,1.37,.79,1.5,1.45-.94,1.78-1.67,3.2-2.39,4.62-1.12-.08-2.23-.15-4.22-.03-6.19,.18-11.52,0-16.83,.23-5.21,.25-10.41,.97-15.61,1.48-9.11-2.21-18.2-3.51-27.52,.89h0Z"/><path class="cls-15" d="M1173.4,1227.47c-.71,.35-1.75,.38-3.3,.43-1.91-.84-3.3-1.7-5.1-2.64-.41-.07-.46-.1-.48-.51-.91-.89-1.8-1.37-2.69-1.85-3.23-3.25-6.47-6.5-9.9-10.1,.38-6.3-2.52-10.31-6.5-14.62-4.31-4.69-7.03-10.84-10.59-16.85,7.41,6.7,16.38,12.82,18.23,24.27,.17,1.04,.3,2.33,.96,2.99,6.29,6.25,12.69,12.39,19.39,18.88h-.02Z"/><path class="cls-16" d="M1472.99,1250.04c-2.57-2.85-5.1-5.74-7.75-8.51-1.55-1.62-3.37-4.37-4.97-4.31-7.95,.33-16.4,0-23.69,2.62-7.29,2.62-14.26,3.89-22.69,3.2-3.22-.51-5.51-.68-7.82-.89-4.75-.43-9.5-.87-14.24-1.32,0-.02,.02-.05,.63-.07,10.48-.02,20.36,.21,30.23-.16,3.7-.15,8.07-.79,10.84-2.9,4.39-3.35,8.93-3.5,13.84-3.43,4.29,.07,8.58-.03,13.35-.02,1.44,.05,2.39,.07,3.46,.49,2.26,3.12,4.41,5.81,6.57,8.94,.91,2.31,1.8,4.16,2.57,6.09-.12,.08-.33,.26-.33,.26h0Z"/><path class="cls-1" d="M1280.46,1274.23c-7.34-2.39-14.65-4.88-22.03-7.14-3.42-1.06-6.98-1.68-10.43-3.07,2.82-.81,5.61-1.06,8.38-1.3,7.47,1.47,15,2.79,22.41,4.55,1.58,.38,2.77,2.43,4.34,4.11,.2,.41,.2,.4-.15,.56-1.07,.87-1.81,1.58-2.56,2.29h.03Z"/><path class="cls-7" d="M1109,1248.66c-3.42,.46-6.83,.91-10.91,1.45,.05-.84,.12-2.1,.61-3.93,.74-.84,1.01-1.15,1.22-1.52,8.55,1.24,12.82-4.87,17.37-10.53,.58,.25,1.15,.48,1.73,.73-.76,2.94-1.53,5.89-2.66,9.34-.36,.49-.81,.66-.81,.66-1.24,.97-2.47,1.93-4.31,3.3-1.15,.45-1.7,.48-2.24,.53l-.02-.03Z"/><path class="cls-7" d="M1261.42,1284.71c-1.27,.46-2.26,.63-4.01,.97-2.62-.21-4.49-.61-6.35-1.02,3.93-2.44,7.71-5.18,11.85-7.18,1.95-.94,4.57-.46,6.88-.63-.94,1.91-1.86,3.83-3.45,6.15-1.2,.45-1.75,.48-2.29,.53-.78,.28-1.55,.58-2.61,1.17h-.02Z"/><path class="cls-15" d="M1354.41,1240.79c-8.83,.84-17.65,2.01-26.5,2.38-3.1,.13-6.29-1.73-9.62-3.12-.17-.45,0-.64,.59-.59,7.69-.21,14.77-.63,21.86-.71,4.55-.05,9.11,.41,13.66,.99v1.06Z"/><path class="cls-16" d="M1354.84,1241.1c-.43-.54-.43-.78,.18-1.32,11.81-.33,23.03-.33,34.63-.28,.99,.48,1.62,.87,2.23,1.27,0,0,0,.03-.48,.07-1.86,.43-3.27,.84-4.67,1.25-10.48-.23-20.97-.45-31.88-.99h-.02Z"/><path class="cls-10" d="M1387.02,1242.5c1.11-.82,2.51-1.22,4.37-1.65,5.21,.43,9.95,.87,14.7,1.29,2.29,.2,4.6,.38,7.36,.84-8.41,.15-17.27,.03-26.43-.49v.02Z"/><path class="cls-10" d="M1146.62,1159.43c7.11,.84,9.6,6.55,12.14,12.29-.92,.36-1.48,.26-2.05,.18-.15-.23-.31-.43-.87-1.17-1.67-1.14-2.97-1.73-4.29-2.31l-.15-.26c-.41-.61-.74-.87-1.15-1.02l-.15-.26c-.41-.61-.74-.87-1.15-1.02l-.18-.38c-.86-2.26-1.52-4.14-2.18-6.01l.03-.03Z"/><path class="cls-15" d="M1256.08,1262.42c-2.46,.54-5.23,.79-8.4,1.34-7.66-.21-14.92-.74-22.34-1.78-.15-.53-.03-.64,.54-.63,4.95-.03,9.31-.08,13.68-.12,4.21,.02,8.43,.05,13.18,0,1.37,.25,2.18,.58,3.33,1.19h0Z"/><path class="cls-6" d="M1210.55,1201.72c-5.89-3.5-11.78-7-17.34-10.81,4.01,.92,7.67,2.14,11.35,3.37,0,0-.02-.03,.07,.3,.46,.54,.84,.78,1.24,1.01,0,0-.02-.03,0,.4,1.73,1.86,3.43,3.32,5.13,4.77l-.13,.23c-.13,.25-.31,.76-.31,.76v-.02Z"/><path class="cls-13" d="M1204.52,1193.83c-3.63-.78-7.29-2-11.43-3.37-2.99-1.5-5.51-2.85-8.1-4.6,1.86-.21,3.83-.05,6.57,.45,1.42,.71,2.05,1.11,2.66,1.48l.15,.25c.38,.58,.69,.78,1.09,.87,2.41,.78,4.83,1.57,7.77,2.13,.53-.21,.82-.3,.82-.3,.15,.87,.28,1.75,.48,3.09h0Z"/><path class="cls-16" d="M1162.01,1175.27c4.14,1.4,8.38,3.23,12.74,5.51-4.14-1.4-8.38-3.23-12.74-5.51Z"/><path class="cls-10" d="M1098.57,1188.25c-4.57-1.52-3.35-4.19-.35-7.14,.25,2.34,.49,4.7,.35,7.14Z"/><path class="cls-16" d="M1492.63,1260.47c-3.45-.1-6.9-.2-10.92-.33-.63-.58-.69-1.11-.74-2.11,.03-.46,.12-.56,.69-.54,3.3-.05,6.02-.12,9.07-.07,.86,.53,1.4,.94,1.93,1.78,0,.71,0,.99-.02,1.27h-.02Z"/><path class="cls-15" d="M1216.28,1256.69c1.67-.38,3.4-.3,5.76,.28,1.07,1.35,1.52,2.23,1.91,3.15-.05,.05-.15,.16-.15,.16-2.49-1.04-4.98-2.08-7.52-3.6h0Z"/><path class="cls-16" d="M1480.95,1257.63c-5.08,.66-7.24-2.06-7.87-7.13-.08-.48,.13-.66,.59-.48,2.77,2.59,5.1,5.02,7.41,7.44,0,0-.08,.1-.13,.16h0Z"/><path class="cls-10" d="M1078.69,1243.79c1.37-.3,2.66-.21,3.96-.13-.41,1.04-.82,2.08-1.22,3.13-.94-.87-1.86-1.75-2.72-2.99l-.02-.02Z"/><path class="cls-10" d="M1125.5,1173.16c-.35,.38-.91,.4-1.88,.45-1.65-1.5-2.89-3.04-4.12-4.57,.61-.46,1.24-.91,1.85-1.37,1.32,1.72,2.64,3.43,4.16,5.49h0Z"/><path class="cls-1" d="M1131.04,1140.49c.56-1.8,1.15-3.13,2.13-4.39,.36,.1,.46,.13,.36,.58-1.3,3.25-1.06,5.36,2.49,5.92,0,0,0,.61-.3,.92s-.87,.33-.87,.33c-1.25-.97-2.51-1.95-3.81-3.35v-.02Z"/><path class="cls-15" d="M1218.92,1207.08c1.83,.79,3.65,1.57,5.82,2.9,.36,.54,.45,1.09,.45,1.09,0,0-.07,.08-.1,.12-2.71-1.07-5.4-2.19-7.95-3.63,.66-.38,1.22-.43,1.78-.48h0Z"/><path class="cls-10" d="M1250.88,1284.92c2.05,.13,3.91,.54,6.25,1.01-1.98,.28-4.44,.5-7.16,.4,.05-.59,.4-.87,.91-1.42v.02Z"/><path class="cls-16" d="M1284.55,1271.61c2.41,.54,4.42,1.17,6.5,2.26-2.18,.1-4.44-.28-7.19-1.06-.49-.41-.51-1.04-.51-1.04v.02c.26-.03,.54-.07,1.2-.18h0Z"/><path class="cls-10" d="M1088.59,1196.04c1.22,.33,2.18,.87,3.12,1.42-.38,.41-.76,.84-1.14,1.25-.76-.82-1.5-1.63-1.98-2.67Z"/><path class="cls-16" d="M1146.42,1159.13c.86,2.16,1.52,4.04,2.38,6.3-4.78,.31-3.63-3.38-3.73-6.86,.41-.26,.79,0,1.35,.56h0Z"/><path class="cls-1" d="M1138.68,1153.42c.96-.3,2.01-.25,3.38,.49,.2,1.35,.1,2.03,0,2.72-1.09-.94-2.18-1.9-3.38-3.2v-.02Z"/><path class="cls-15" d="M1110.11,1151.77c-1.25-1.45-2.51-2.89-3.76-4.82,0-.49,.21-.68,.21-.68,1.27,1.44,2.54,2.89,3.75,4.85-.07,.51-.18,.66-.18,.66l-.02-.02Z"/><path class="cls-16" d="M1156.82,1172.4c.48-.4,1.04-.3,2.03-.21,1.29,.59,2.16,1.22,3.07,2.26-1.65-.23-3.33-.89-5.1-2.03v-.02Z"/><path class="cls-10" d="M1113.64,1206.63c.59-.66,1.32-.99,2.05-1.3l.49,1.62c-.81,0-1.6,0-2.54-.31h0Z"/><path class="cls-15" d="M1209.68,1252.45c1.32-.05,3.02,.21,4.9,.86-1.39,.08-2.95-.23-4.9-.86Z"/><path class="cls-10" d="M1106.48,1161.85c0,.82-.21,1.4-.45,1.98-.51-.51-1.02-1.01-1.52-1.52,.58-.23,1.15-.46,1.98-.46h-.02Z"/><path class="cls-16" d="M1151.67,1168.85c1.19,.13,2.49,.73,4.03,1.73-1.15-.15-2.52-.71-4.03-1.73Z"/><path class="cls-10" d="M1104.5,1167.94c.41-.53,.92-.76,1.45-1.01,.2,.54,.4,1.11,.59,1.65-.64-.12-1.29-.25-2.05-.64Z"/><path class="cls-15" d="M1106.23,1146.54c-.87-.97-1.65-2.05-2.44-3.55-.02-.43,.05-.49,.05-.49,.87,.97,1.77,1.93,2.69,3.33,.03,.43-.17,.61-.28,.71h-.02Z"/><path class="cls-18" d="M1210.27,1247.29c-1.07,.26-2.62,.51-4.32,.38,1.19-.38,2.51-.4,4.32-.38Z"/><path class="cls-13" d="M1218.69,1206.72c-.33,.41-.89,.45-1.85,.54-.91-.68-1.42-1.39-1.96-2.56,1.17,.25,2.38,.96,3.81,2.01Z"/><path class="cls-1" d="M1138.6,1146.49c-.66,.73-1.32,1.47-2.33,2.36-.61-.46-.89-1.09-.81-2.08,.86-.38,1.35-.4,2.16-.36,.31,.03,.96,.1,.96,.1l.02-.02Z"/><path class="cls-10" d="M1079.8,1170.4c-.58,.21-1.04,.16-1.52,.12,.13-.38,.25-.74,.38-1.12,.41,.25,.82,.49,1.14,1.01Z"/><path class="cls-1" d="M1161.9,1223.3c.81,.1,1.7,.58,2.57,1.48-.84-.08-1.67-.58-2.57-1.48Z"/><path class="cls-10" d="M1063.88,1168.24c-.05-.58,.18-1.44,.78-2.36,.07,.64-.2,1.37-.78,2.36Z"/><path class="cls-13" d="M1210.92,1202.06c-.36-.35-.2-.87-.07-1.11,1.04,.35,1.96,.94,3.04,1.93-.76,.12-1.68-.18-2.97-.82Z"/><path class="cls-10" d="M1100.14,1241.84c-.31,.21-.61,.25-.91,.28,.02-.16,.02-.48,.05-.48,.3-.03,.58,0,.84,.2h.02Z"/><path class="cls-8" d="M1137.33,1146.38c-.49,0-.99,.03-1.85,.05-.48-.56-.58-1.14-.64-2.14,.03-.43,.61-.45,.91-.46,.28,0,.36,.03,.51,.38,.46,.96,.78,1.57,1.07,2.18h0Z"/><path class="cls-10" d="M1283.02,1271.94c.35-.16,.35,.45,.36,.76-.68,.71-1.39,1.11-2.51,1.52,.31-.69,1.06-1.4,2.13-2.28h.02Z"/><path class="cls-12" d="M1176.57,1179.38c-.2-.89-.2-1.8-.2-2.72,.21,0,.43-.03,.66-.05,.08,.66,.17,1.3,.21,2.38-.05,.41-.46,.36-.66,.38l-.02,.02Z"/><path class="cls-10" d="M1096.56,1204.06c-.05,.35-.23,.56-.43,.78-.12-.13-.25-.25-.36-.38,.21-.18,.43-.36,.79-.4Z"/><path class="cls-10" d="M1088.81,1193.12c-.36-.1-.59-.31-.81-.54,.31,.13,.64,.28,.81,.54Z"/><path class="cls-10" d="M1058.43,1234.01c-.66-.26-1.4-.92-2.31-1.95,.64,.28,1.44,.91,2.31,1.95Z"/><path class="cls-12" d="M1179.02,1182.48c-.12-.76,.1-1.48,.31-2.21,.21,.51,.43,1.04,.66,1.86-.21,.33-.43,.35-.97,.35Z"/><path class="cls-10" d="M1133.57,1215.03c-.35-.03-.56-.21-.76-.4,.12-.12,.25-.25,.36-.36,.18,.21,.36,.41,.4,.76h0Z"/><path class="cls-10" d="M1094.27,1199.41c0,.12-.38,0-.38,0,0,0,.38-.12,.38,0Z"/><path class="cls-15" d="M1214.89,1254.19c.43,.2,.87,.76,1.32,1.68-.43-.2-.86-.76-1.32-1.68Z"/><path class="cls-10" d="M1264.26,1283.74c.33-.25,.87-.3,1.83-.35-.26,.16-.94,.36-1.83,.35Z"/><path class="cls-10" d="M1117.96,1190.83c.12,0,0,.38,0,.38,0,0-.12-.38,0-.38Z"/><path class="cls-10" d="M1130.75,1190.61c.48-.07,.79,.18,1.14,.78-.35,0-.79-.3-1.14-.78Z"/><path class="cls-16" d="M1142.5,1156.71c-.35-.74-.25-1.44-.08-2.62,.51,.25,.94,1.02,1.42,2.23-.28,.45-.58,.46-1.34,.4h0Z"/><path class="cls-10" d="M1109.22,1248.86c.33-.25,.87-.3,1.83-.35-.26,.16-.94,.36-1.83,.35Z"/><path class="cls-10" d="M1104.61,1213.63c0,.12-.38,0-.38,0,0,0,.38-.12,.38,0Z"/><path class="cls-15" d="M1111.56,1152.86c.4,.16,.73,.43,1.12,1.06,.13,.3,.07,.36,.07,.36-.41-.16-.74-.41-1.12-1.07-.12-.31-.07-.36-.07-.36v.02Z"/><path class="cls-15" d="M1111.48,1152.94c-.41-.13-.74-.36-1.2-.92-.18-.25-.07-.38,0-.45,.41,.15,.71,.43,1.12,1.02,.15,.26,.1,.31,.07,.35h.02Z"/><path class="cls-15" d="M1102.63,1141.56c-.13-.28,.38-.28,.64-.28s.43,.61,.49,.92c.07,.31,0,.36-.03,.4-.41-.16-.71-.43-1.09-1.04h-.02Z"/><path class="cls-10" d="M1115.67,1244.95c-.12-.12,.33-.26,.56-.31,.17,.36-.07,.53-.56,.31Z"/><path class="cls-10" d="M1099.66,1244.83c.05,.2-.21,.51-.79,.96-.07-.2,.2-.51,.79-.96Z"/><path class="cls-16" d="M1149.13,1166.11c.26-.12,.59,.13,1.01,.74-.26,.13-.61-.12-1.01-.74Z"/><path class="cls-16" d="M1150.41,1167.4c.26-.12,.59,.13,1.01,.74-.26,.13-.61-.12-1.01-.74Z"/><path class="cls-10" d="M1080.8,1156.82c-.07-.18,.38-.16,.59-.18s-.07,.43-.07,.43c0,0-.48-.07-.54-.25h.02Z"/><path class="cls-16" d="M1143.98,1157.04c.2-.03,.54,.21,1.02,.76-.26,.13-.61-.12-1.02-.76Z"/><path class="cls-15" d="M1112.85,1154.18l.41,.31s-.36,0-.43-.1c-.07-.12,0-.18,.02-.21Z"/><path class="cls-10" d="M1066.52,1164.35c-.05-.2,.21-.51,.81-.91,.05,.2-.23,.49-.81,.91Z"/><path class="cls-15" d="M1225.12,1261.51c-.41-.15-.71-.41-1.15-.97-.17-.25-.08-.36,.23-.25,.63,.38,.89,.68,1.09,1.04,0,0-.12,.12-.17,.18h0Z"/><path class="cls-6" d="M1392.48,1240.75c-1.22-.4-1.83-.79-3-1.72-4.82-1.5-9.04-3-13.36-3.37-20.34-1.68-40.98,3.17-61.16-3.75-8.38-2.87-17.46-3.73-26.17-5.66-10.96-2.43-21.88-5.03-32.37-7.92,5.66-.56,10.91-.56,16.1-1.07,1.95-.2,3.79-1.55,5.69-2.38l.54,.05c3.1-.21,5.79-.05,8.18-.82,17.31-5.54,34.62-3.75,51.97-.51l.1,.46c6.5,1.88,12.9,3.3,19.3,4.7,0,0-.03-.02,.1,.46,2.51,.99,4.92,1.96,7.31,1.93,22.62-.31,45.22-.84,67.85-1.15,2.9-.03,5.81,.86,8.71,1.34l.08,.45c1.77,1.02,3.43,1.58,5.11,2.14,0,0-.03-.02,.08,.46,1.98,1.02,3.86,1.58,5.74,2.13,0,0,.4,.4,.51,1.01,2.26,1.78,4.42,2.97,6.57,4.16l-.07,.41c-.05,.96-.05,1.52-.03,2.06-4.29,.03-8.58,.13-12.87,.07-4.92-.07-9.44,.08-13.84,3.43-2.77,2.11-7.14,2.76-10.84,2.9-9.87,.38-19.75,.15-30.23,.16l-.02,.02Z"/><path class="cls-13" d="M1442.35,1220.97c-2.99-.03-5.89-.94-8.79-.91-22.62,.31-45.22,.84-67.85,1.15-2.39,.03-4.8-.94-7.33-1.93,25.97-1.07,52.07-1.65,78.17-2.21v-.94c-11.93,0-23.84,.07-35.77-.05-2.47-.02-4.97-.73-7.57-1.72-.13-.61,.2-.97,.2-.97,9.4,.07,18.83-.18,28.2,.26,11.86,.58,23.69,1.7,35.52,2.69,.94,.08,1.81,.97,2.92,2.01,.2,.51,0,.71,0,.71-5.08-.16-10.16-.43-15.25-.41-.81,0-1.62,1.24-2.51,2.34l.05-.03Z"/><path class="cls-1" d="M1236.82,1178.75c3.22,6.02,9.65,4.55,14.27,4.62,4.17,.05,7.66,.12,10.64,2.82,5.02,4.52,10.91,3,17.19,3.25,.54,.54,.56,.76,.56,.99-4.77,1.8-9.5,3.68-14.3,5.38-1.58,.56-3.66,1.35-4.95,.79-9.17-4.06-18.22-8.45-27.27-12.77-.51-.25-.78-.97-1.17-1.5,1.17-.99,2.28-1.93,3.58-3.2l.2-.33h.97c.33,0,.31,0,.31,0l-.03-.05Z"/><path class="cls-1" d="M1492.66,1258.79c-.54-.41-1.07-.82-2.14-1.73-6.95-4.93-13.36-9.39-19.8-13.83-2.14-2.69-4.27-5.36-6.09-8.63,1.58-.91,2.82-1.24,4.06-1.57,0,0,.02,0,.25,.36,1.12,.96,2.01,1.57,3.07,2.33,.56,.07,.94-.03,1.68-.12,.94,.33,1.52,.63,2.11,.94,1.77,2.03,3.23,4.5,5.38,6.04,7.39,5.31,15.01,10.3,22.22,15.81-3.81,.41-7.29,.41-10.77,.41l.03-.02Z"/><path class="cls-13" d="M1338.87,1213.15c-17.31-2.76-34.63-4.54-51.94,1.01-2.39,.76-5.08,.59-8.18,.82,2.69-1.29,5.96-2.47,9.17-3.78,8.48-3.46,16.94-6.98,25.95-10.46,.54,0,.73,.18,.73,.18-2.67,2.14-5.36,4.29-8.48,6.8,9.07,.68,17.64,1.15,26.13,2.08,2.26,.25,4.39,1.86,6.62,3.35Z"/><path class="cls-13" d="M1591.84,1257.58c.91,.3,1.22,.61,1.75,1.2-8.18-.54-16.61-1.19-24.98-2.24-5.21-.66-10.31-2.47-15.53-2.84-7.28-.49-14.62-.02-21.93-.2-2-.05-3.98-.92-6.09-1.91,7.57-.51,15.28-.58,22.98-.56,7.42,.02,14.55,.1,21.89,3.17,6.45,2.71,14.16,2.38,21.89,3.37v.02Z"/><path class="cls-13" d="M1470.8,1223.84c10.41,1.75,20.86,3.28,31.22,5.31,5.97,1.17,11.8,3.13,17.67,4.75-.2,.73-.38,1.45-.58,2.16-11.65-2.62-23.31-5.25-34.96-7.89-4.44-1.01-8.89-2.03-13.43-3.6-.1-.54,.08-.74,.08-.74h0Z"/><path class="cls-13" d="M1392.94,1213.93c-5.54-1.52-10.91-3.32-16.33-4.88-1.8-.53-3.81-.81-5.66-.61-8.93,.91-16.1-2.97-23-8.45-.05-.51,.12-.68,.12-.68,8.83,4.21,17.7,7.14,27.92,7,5.68-.08,11.42,3.98,17.29,6.63,.17,.46-.17,.82-.33,1.01v-.02Z"/><path class="cls-13" d="M1476.36,1236.63c-1.12-.38-1.7-.69-3.02-1.04-.97-.03-1.22-.03-1.47-.03-.89-.59-1.78-1.2-2.9-2.16,5.89,.94,12.11,1.86,18.07,3.65,7.87,2.34,15.54,5.35,23.51,8.5-9.29-2.18-18.79-4.8-28.3-7.39-1.78-.49-3.58-.96-5.91-1.5l.02-.02Z"/><path class="cls-12" d="M1294.93,1195.51c.21-1.86,.59-3.71,.58-5.58,0-2.79-.28-5.58-.43-8.27,3.68,1.06,5.91,1.7,8.55,2.29,.4-.05,.41-.03,.41-.03-1.12,1.63-2.44,3.18-3.32,4.93-.89,1.81-1.35,3.86-2.05,6.29-.03,.49-.05,.76-.05,.76l.23-.38c1.2,.56,2.41,1.11,3.61,1.67-1.11,.69-2.41,2.16-3.25,1.93-1.35-.36-2.43-1.85-3.93-3.22-.31-.36-.36-.4-.36-.4Z"/><path class="cls-12" d="M1225.65,1211.17c-.48-.1-.56-.66-.58-.92,2.03-.84,4.52-2.46,6.02-1.8,6.29,2.74,12.28,6.17,18.51,9.77-1.6,.68-3.35,.92-5.76,1.17-1.04-.21-1.44-.43-1.83-.63-5.3-2.49-10.61-4.98-16.38-7.57l.02-.02Z"/><path class="cls-13" d="M1277.59,1214.9c-1.29,.86-3.13,2.21-5.08,2.41-5.2,.51-10.44,.53-16.47,1.12-1.27,.45-1.73,.51-2.29,.49-.08-.1-.26-.28-.26-.28,2.14-1.25,4.21-3.4,6.45-3.61,5.64-.51,11.37-.16,17.65-.13Z"/><path class="cls-1" d="M1220.07,1192.94c1.15-.94,2.64-2.9,3.4-2.64,3.12,1.04,6.02,2.76,9.01,4.22-.13,.71-.25,1.42-.38,2.13-2.94-.16-5.86-.33-9.07-1.11-1.17-1.29-2.06-1.93-2.95-2.59v-.02Z"/><path class="cls-1" d="M1181.27,1156.81c1.22,2.14,2.43,4.29,3.65,6.45-.49,.54-.97,1.09-1.47,1.62-2.82-1.96-5.64-3.94-8.55-6.68-.08-.99-.08-1.2-.08-1.42,1.5-.03,2.99-.08,5.15-.05,.66,.07,1.3,.08,1.3,.08h0Z"/><path class="cls-13" d="M1403.61,1190.25c6.39,1.8,12.77,3.6,19.35,5.87,.18,.46-.15,.82-.31,1.01-6.47-1.77-12.77-3.73-19.14-6.2-.07-.51,.1-.69,.1-.69v.02Z"/><path class="cls-13" d="M1358.09,1218.4c-6.17-.97-12.57-2.39-19.09-4.27,6.22,.96,12.54,2.41,19.09,4.27Z"/><path class="cls-12" d="M1221.38,1173.98c1.32,.43,2.9,1.04,3.79,2.18,.82,1.06,.89,2.71,1.29,4.06-3.24,.73-4.94-1.35-5.08-6.24Z"/><path class="cls-13" d="M1524.9,1250.64c-4.64-.94-9.34-2.36-14.11-4.26,4.64,.96,9.34,2.36,14.11,4.26Z"/><path class="cls-13" d="M1526.88,1236.4c2.05,.48,3.61,.81,5.18,1.12-.1,.59-.2,1.2-.28,1.8-3.32-.48-6.63-.96-9.95-1.44,.07-.68,.15-1.35,.21-2.03,1.45,.12,2.9,.25,4.83,.53v.02Z"/><path class="cls-12" d="M1287.33,1183.82c1.29,1.29,2.49,2.89,3.99,4.87h-8.02c1.81-2.08,2.87-3.32,4.03-4.87h0Z"/><path class="cls-13" d="M1365.45,1168.4c1.2,.35,1.88,.66,2.57,.97-.07,.31-.12,.63-.18,.94h-9.73c-.05-.53-.1-1.04-.15-1.57,2.33-.13,4.64-.26,7.47-.35h.02Z"/><path class="cls-13" d="M1345.14,1197.08c-3.04-.28-6.09-.56-9.12-.84l.26-2.21c2.89,.63,5.77,1.27,8.84,2.39,.18,.49,0,.68,0,.68l.02-.02Z"/><path class="cls-12" d="M1137.64,1146.41c-.63-.64-.92-1.25-1.35-2.19,2.01-.31,4.16-.31,6.3-.31v1.83c-1.06,.25-2.11,.49-3.58,.76-.41,0-1.06-.03-1.39-.08h.02Z"/><path class="cls-13" d="M1384.99,1179.16c-2.43-1.01-4.85-2.03-7.33-3.61-.05-.56,.28-.92,.28-.92,2.49,.99,4.98,2,7.44,3.6-.03,.61-.38,.94-.38,.94h-.02Z"/><path class="cls-13" d="M1377.43,1175.17c-2.29-.23-4.44-.66-6.58-1.07,.08-.61,.18-1.22,.26-1.83,2.16,.49,4.32,.99,6.65,1.91,.17,.45-.17,.81-.33,.99h0Z"/><path class="cls-12" d="M1214.55,1169.99c.54-.25,.79-.21,1.42-.18,0,1.65-.4,3.3-.78,4.95-.74-.21-1.48-.41-2.21-.63,.43-1.29,.86-2.57,1.58-4.12l-.02-.02Z"/><path class="cls-12" d="M1136.04,1142.12c-3.56-.08-3.81-2.21-2.47-5.41,.91,1.39,1.7,3.17,2.47,5.41Z"/><path class="cls-12" d="M1188.23,1166.85c.04-1.96,1.75-1.73,5.11,.69-2.62-.23-3.75-.33-5.11-.69Z"/><path class="cls-12" d="M1292.44,1175.09c.71-.18,1.42-.36,2.31-.26-.21,2.41,.38,5.86-3.79,2.77-.15-.4,0-.35,.28-.48,.58-.78,.89-1.4,1.19-2.03h.02Z"/><path class="cls-13" d="M1460.32,1231.27c-2.13-.73-4.27-1.9-6.43-3.58,2.13,.71,4.27,1.91,6.43,3.58Z"/><path class="cls-13" d="M1468.29,1232.67c-.82,.68-2.06,1.01-3.76,1.48-1.4,.13-2.36,.13-3.79,.08-.49-.59-.51-1.14-.45-2.1,2.57-.21,5.08-.02,8.02,.53h-.02Z"/><path class="cls-12" d="M1194.22,1187.36c-.64,.03-1.27-.35-2.21-.92,.15-1.57,.63-2.94,1.09-4.31,.79,.33,1.57,.64,2.38,1.39,.02,.4,.02,.41,.02,.41-.43,1.01-.84,2.01-1.29,3.45l.02-.02Z"/><path class="cls-13" d="M1211.05,1200.25c-1.75-.97-3.46-2.43-5.2-4.31,1.72,.99,3.5,2.41,5.2,4.31Z"/><path class="cls-12" d="M1281.49,1201.02c.07,.74-.21,1.4-.49,2.05-.58-.38-1.15-.76-1.72-1.14,.63-.33,1.25-.66,2.23-.89l-.02-.02Z"/><path class="cls-12" d="M1279.57,1190.74c-.1-.56-.1-.78-.1-1.34,.78,.3,1.55,.94,2.31,1.58-.71,.03-1.42,.07-2.21-.25Z"/><path class="cls-12" d="M1146.19,1130.14c.74-.35,1.34-.33,2.39-.33-.17,1.09-.79,2.19-1.4,3.3-.38-.87-.76-1.73-.99-2.97Z"/><path class="cls-13" d="M1453.03,1226.14c-1.63-.12-3.51-.66-5.51-1.7,1.68,.1,3.48,.68,5.51,1.7Z"/><path class="cls-12" d="M1207.3,1164.44c-.94,.92-1.95,1.91-2.95,2.92-.4-.48-.78-.96-1.17-1.44,1.09-.48,2.18-.96,3.7-1.5,.43-.05,.36,.12,.43,.03v-.02Z"/><path class="cls-13" d="M1331.43,1188.09c-1.5,.79-2.99,1.57-4.97,2.33-.48-.03-.51-.07-.51-.07,0,0,.03-.56,.31-1.04,.59-.78,.84-1.12,1.01-1.52,.92-.05,1.86-.08,3.37-.02,.58,.1,.78,.33,.78,.33l.02-.02Z"/><path class="cls-13" d="M1251.23,1222.57c-.48-.94-.97-1.9-1.47-3.25,.92-.48,1.86-.53,3.27-.63,.46-.05,.64,.13,.61,.58-.82,1.4-1.62,2.34-2.41,3.3Z"/><path class="cls-13" d="M1460.39,1218.76c1.67,.51,3.23,1.14,4.93,2.21,.15,.46-.05,.66-.05,.66-1.6-.59-3.2-1.2-4.98-2.19-.18-.4,0-.58,.1-.68h0Z"/><path class="cls-13" d="M1395.86,1185.09c1.57,.61,3.15,1.24,4.87,2.31,.15,.46-.02,.64-.02,.64-1.63-.59-3.25-1.19-4.95-2.28-.07-.49,.1-.68,.1-.68h0Z"/><path class="cls-13" d="M1465.55,1221.35c1.65,.53,3.22,1.14,5,2.13,.23,.36,.07,.56-.02,.68-1.68-.51-3.28-1.11-5.08-2.11-.18-.4,0-.58,.1-.68v-.02Z"/><path class="cls-12" d="M1199.37,1161.97c-.2,1.39-.4,2.76-.58,4.14-.49-.15-.99-.3-1.48-.45,.46-1.09,.91-2.18,1.72-3.48,.35-.21,.36-.23,.36-.21h-.02Z"/><path class="cls-13" d="M1385.5,1178.65c1.7,.49,3.23,1.15,4.88,2.29,.13,.46-.05,.64-.05,.64-1.62-.56-3.25-1.14-5.11-2.06-.25-.36,.1-.69,.28-.87Z"/><path class="cls-12" d="M1219.86,1193.22c1.11,.38,2,1.04,2.77,2.01-1.09-.36-2.03-1.06-2.77-2.01Z"/><path class="cls-13" d="M1447.27,1223.58c-1.48-.16-3.17-.73-4.93-1.75,1.52,.15,3.13,.74,4.93,1.75Z"/><path class="cls-12" d="M1196.07,1173.67c-.25-.97-.28-1.73-.31-2.47,.45,.08,.89,.18,1.34,.26-.26,.81-.54,1.62-1.02,2.19v.02Z"/><path class="cls-13" d="M1352.47,1158.09c-.81,.92-1.58,1.5-2.36,2.06-.25-.43-.49-.86-.76-1.29,1.04-.38,2.1-.76,3.12-.78h0Z"/><path class="cls-12" d="M1289.82,1198.12c1.04,.31,2.08,.63,3.12,.96-.17,.38-.33,.78-.48,1.15-.81-.45-1.63-.89-2.54-1.72-.1-.38-.08-.4-.08-.4h-.02Z"/><path class="cls-12" d="M1174.82,1156.46v1.3c-.81-.28-1.6-.87-2.47-1.86-.1-.4-.08-.4-.08-.4,.86,.21,1.72,.43,2.57,.97l-.02-.02Z"/><path class="cls-13" d="M1390.61,1181.29c1.25,.54,2.41,1.17,3.68,2.24,.12,.45-.05,.61-.05,.61-1.2-.61-2.39-1.2-3.76-2.19-.17-.38,.03-.56,.13-.66h0Z"/><path class="cls-12" d="M1169.93,1135.87c-.56,.63-1.19,1.25-1.81,1.88-.33-.64-.68-1.3-1.02-2.33,0-.38,0-.49,.38-.35,1.04,.41,1.68,.68,2.34,.94,0,0,.03-.13,.1-.13l.02-.02Z"/><path class="cls-12" d="M1253.9,1203.23c.31,.53,.35,1.06,.38,1.6h-1.09c.15-.53,.28-1.06,.71-1.6Z"/><path class="cls-12" d="M1204.38,1190.63c-.35,.13-.64,.23-.79,.28,.23-.78,.59-1.58,.97-2.41,.43,.28,.86,.58,1.29,.86-.38,.38-.74,.76-1.47,1.29v-.02Z"/><path class="cls-12" d="M1324.71,1190.38c-1.02-.33-2.05-.64-3.07-.97,.15-.33,.3-.68,.46-1.01,.74,.45,1.48,.89,2.43,1.65,.18,.31,.2,.33,.2,.33h-.02Z"/><path class="cls-13" d="M1337.48,1176.06c.86-.78,1.73-1.57,2.59-2.34,.26,.28,.53,.58,.78,.86-.74,.58-1.48,1.15-2.72,1.7-.48-.05-.64-.21-.64-.21h0Z"/><path class="cls-12" d="M1190.94,1178.04c-.21-.58-.17-1.04-.12-1.52,.38,.13,.74,.25,1.12,.38-.25,.41-.49,.82-1.01,1.14Z"/><path class="cls-12" d="M1313.03,1192.92c1.01-.41,2.03-.84,3.48-1.25,.45,0,.49,.03,.49,.03-1.06,.53-2.13,1.06-3.55,1.42-.36-.16-.41-.2-.41-.2h-.02Z"/><path class="cls-13" d="M1324.76,1191.73c-.94,.87-1.9,1.77-3.37,2.61-.51-.03-.71-.21-.71-.21,1.04-.81,2.08-1.62,3.56-2.44,.45,0,.51,.05,.51,.05h0Z"/><path class="cls-13" d="M1347.07,1166.23c-.64,1.04-1.3,2.06-1.95,3.1-.26-.15-.54-.3-.81-.45,.49-.94,.99-1.88,1.96-2.9,.48-.08,.81,.25,.81,.25h-.02Z"/><path class="cls-13" d="M1320.97,1194.41c-.45,.81-1.01,1.52-1.55,2.23-.26-.2-.53-.4-.81-.59,.45-.58,.89-1.15,1.7-1.83,.36-.08,.56,.1,.66,.2Z"/><path class="cls-12" d="M1151.62,1131.68c.25,.35,.25,.69,.26,1.02h-.58c.03-.35,.05-.68,.31-1.02Z"/><path class="cls-13" d="M1331.12,1187.74c.53-1.15,1.15-2.19,1.78-3.22,.28,.16,.58,.35,.86,.51-.54,.92-1.07,1.83-1.98,2.9-.35,.15-.56-.08-.66-.2h0Z"/><path class="cls-12" d="M1189.39,1159.81c-.41-.08-.66-.31-.91-.54,.15-.13,.28-.26,.43-.4,.21,.26,.43,.53,.49,.94h-.02Z"/><path class="cls-12" d="M1272.96,1197.39c-.25-.35-.25-.69-.26-1.02h.58c-.03,.35-.05,.68-.31,1.02Z"/><path class="cls-12" d="M1313.1,1192.99c-.43,.58-.89,1.15-1.35,1.72-.15-.13-.41-.36-.41-.38,.35-.43,.71-.82,1.39-1.32,.31-.08,.35-.03,.38,0v-.02Z"/><path class="cls-12" d="M1203,1172.51c.33-.21,.61-.25,.91-.28-.02,.16-.02,.48-.05,.48-.3,.03-.58,0-.84-.2h-.02Z"/><path class="cls-12" d="M1249.49,1204.11c-.3,.1-.56,.03-.78-.12-.05-.03,.07-.33,.12-.49,.23,.13,.46,.28,.64,.61h.02Z"/><path class="cls-12" d="M1327.22,1187.51c-.1,.68-.35,1.02-.92,1.52,.12-.46,.48-1.12,.92-1.52Z"/><path class="cls-13" d="M1347.48,1164.08c.41-.46,.82-.94,1.24-1.4-.05,.53-.1,1.04-.51,1.67-.38,.1-.73-.26-.73-.26h0Z"/><path class="cls-12" d="M1187.29,1176.16c0,.12-.38,0-.38,0,0,0,.38-.12,.38,0Z"/><path class="cls-1" d="M1235.57,1199.39c.2-.38,.4-.78,.59-1.15-.08,.28-.17,.58-.43,1.02-.2,.16-.17,.13-.17,.13h0Z"/><path class="cls-12" d="M1181.24,1156.54c.03,.26-.61,.25-.92,.23,.08-.16,.49-.33,.92-.23Z"/><path class="cls-13" d="M1336.56,1177.68c-.33,.53-.66,1.06-.99,1.58,.03-.49,.07-1.01,.45-1.63,.36-.12,.54,.05,.54,.05h0Z"/><path class="cls-12" d="M1249,1177.63c-.08-.08,.21-.35,.21-.35,0,0-.13,.43-.21,.35Z"/><path class="cls-12" d="M1218.05,1175.98c.1-.05,.13,.4,.13,.4,0,0-.25-.35-.13-.4Z"/><path class="cls-12" d="M1205.26,1176.36c-.1,.05-.13-.4-.13-.4,0,0,.25,.35,.13,.4Z"/><path class="cls-12" d="M1316.93,1191.65l.26-.38s0,.31-.1,.38-.15,.03-.17,0Z"/><path class="cls-13" d="M1324.66,1191.65s0-.64,.02-.96,0-.31,0-.31c0,0,.63,0,.94-.03,.31,0,.35,.02,.36,.03-.2,.4-.4,.76-.92,1.24-.31,.1-.38,.03-.41,0l.02,.03Z"/><path class="cls-13" d="M1403.35,1190.51c-.48-.08-.81-.33-1.14-1.02-.07-.36,.12-.53,.12-.53,.4,.16,.73,.41,1.14,1.02,.17,.26,0,.45-.1,.53h-.02Z"/><path class="cls-13" d="M1336.3,1177.41c.08-.46,.33-.79,.92-1.2,.26-.16,.43,0,.53,.1-.1,.46-.35,.78-.92,1.19-.26,.16-.43,0-.51-.1l-.02,.02Z"/><path class="cls-1" d="M1235.55,1178.75l-.36-.21s.25,.02,.3,.13c.05,.1,.07,.1,.07,.08Z"/><path class="cls-13" d="M1402.06,1189.21c-.46-.1-.78-.35-1.19-.92-.17-.26,0-.43,.1-.51,.46,.08,.79,.33,1.2,.92,.17,.26,0,.43-.1,.53l-.02-.02Z"/><path class="cls-12" d="M1195.28,1188.7c-.21,.13-.53-.08-.92-.66,.2-.08,.49,.15,.92,.66Z"/><path class="cls-1" d="M1236.84,1178.75l.21-.36s-.03,.25-.13,.3-.1,.05-.08,.07h0Z"/><path class="cls-13" d="M1394.51,1183.9c.46,.08,.79,.33,1.2,.92,.17,.26,0,.43-.1,.53-.46-.1-.78-.35-1.19-.92-.17-.26,0-.43,.1-.51l-.02-.02Z"/><path class="cls-12" d="M1209.7,1180.04l.25-.38s0,.28-.13,.33c-.12,.05-.12,.03-.12,.03v.02Z"/><path class="cls-12" d="M1196.79,1183.93l-.46,.36s-.56-.08-.71-.23l-.13-.15h1.32l-.02,.02Z"/><path class="cls-12" d="M1304.02,1183.91l.25-.38s0,.28-.12,.33c-.1,.05-.12,.05-.13,.03v.02Z"/><path class="cls-12" d="M1196.78,1183.91l.25-.38s0,.28-.12,.33c-.1,.05-.12,.05-.12,.03l-.02,.02Z"/><path class="cls-13" d="M1334.27,1181.79c.17-.13,.25,.35,.25,.35,0,0-.41-.2-.25-.35Z"/><path class="cls-12" d="M1205.82,1181.32l.25-.38s0,.28-.12,.33-.13,.03-.13,.03v.02Z"/><path class="cls-12" d="M1209.71,1180.05l-.23,.38s0-.28,.12-.33,.12-.05,.12-.03v-.02Z"/><path class="cls-12" d="M1205.84,1181.34l-.25,.38s0-.28,.12-.33c.1-.05,.12-.05,.12-.03l.02-.02Z"/><path class="cls-13" d="M1343.59,1171.47c.13,.16-.31,.28-.31,.28,0,0,.18-.45,.31-.28Z"/><path class="cls-12" d="M1275.51,1203.25l.33-.36s.02,.35-.12,.38-.21-.02-.21-.02Z"/><path class="cls-12" d="M1275.61,1203.33l-.28,.38s-.02-.33,.08-.4,.17,0,.2,.02h0Z"/><path class="cls-13" d="M1346.58,1165.73c-.03-.56,.17-.94,.66-1.47,.25-.2,.59,.16,.78,.33,.03,.58-.18,.92-.71,1.42-.25,.2-.58-.13-.74-.3l.02,.02Z"/><path class="cls-12" d="M1235.57,1200.69l.38,.25s-.28-.02-.33-.13-.03-.12-.03-.12h-.02Z"/><path class="cls-12" d="M1208.43,1169.72l-.25,.38s0-.28,.12-.33,.12-.03,.12-.03l.02-.02Z"/><path class="cls-12" d="M1208.41,1169.71l.23-.38s0,.28-.12,.33c-.1,.05-.12,.05-.12,.03v.02Z"/><path class="cls-13" d="M1345.4,1196.82c.48,.08,.81,.33,1.14,1.02,.07,.36-.1,.53-.1,.53-.41-.15-.74-.4-1.14-1.02-.17-.26,0-.45,.1-.53Z"/><path class="cls-12" d="M1172.23,1155.5l-.38-.23s.28,0,.33,.12c.05,.1,.05,.12,.03,.12h.02Z"/><path class="cls-13" d="M1205.72,1195.27c-.25,.08-.63-.15-1.11-.71,.26-.08,.63,.16,1.11,.71Z"/><path class="cls-12" d="M1295,1195.56l-.26,.38s0-.3,.1-.36,.15-.03,.17,0v-.02Z"/><path class="cls-12" d="M1289.8,1198.14l-.38-.25s.28,0,.33,.12c.05,.1,.05,.12,.03,.12l.02,.02Z"/><path class="cls-13" d="M1315.52,1199.31c.25,.05,.48,.1,.45,.15-.28,.02-.45-.15-.45-.15Z"/><path class="cls-13" d="M1346.71,1198.1c.46,.08,.79,.33,1.2,.92,.17,.26,0,.43-.1,.53-.46-.1-.78-.35-1.19-.92-.17-.26,0-.43,.1-.51l-.02-.02Z"/><path class="cls-12" d="M1235.53,1200.71c-.4-.28-.49-.63-.13-1.19,.15-.13,.13-.12,.15-.13v.96q0,.33-.02,.35v.02Z"/><path class="cls-13" d="M1315.77,1199.57c-.1,.46-.35,.78-.92,1.19-.26,.16-.43,0-.51-.1,.08-.46,.33-.79,.92-1.2,.26-.16,.43,0,.53,.1l-.02,.02Z"/><path class="cls-8" d="M1169.78,1135.67c-.61,.08-1.25-.18-2.24-.59,.51,0,1.35,.12,2.24,.59Z"/><path class="cls-8" d="M1292.13,1175.27c0,.45-.3,1.07-.87,1.93,0-.45,.28-1.09,.87-1.93Z"/><path class="cls-10" d="M1353.06,1282.02c7.44-.45,14.88-.87,22.93-1.39,5.08-.48,9.54-.96,14.01-1.22,1.45-.08,4.17,.23,4.22,.64,.58,4.34,1.52,8.88,.76,13.05-.59,3.27-1.55,7.42-7.19,7.29-16.76-.36-33.54-.15-50.62-.53,1.37-1.95,3.04-3.53,5.05-5.2,3.84-4.29,7.34-8.46,10.84-12.66Z"/><path class="cls-9" d="M1441,1277.42c.73-2.05,1.45-3.46,2.39-5.59,.18-.94,.15-1.19,.12-1.42,0,0,.05,.02,.56,.05,2.74-.86,4.98-1.73,7.21-2.62,0,0,.05,.05,.56,0,6.67-1.07,12.92-3.4,18.71,1.19,.25,4.95-.28,10.08,.89,14.78,2.03,8.12,2.62,8.51-5.61,10.84-6.42,1.8-13.25,2.18-19.93,3.04-3.56,.46-5-1.4-4.92-4.88,.1-4.92,0-9.82,0-15.34l.02-.03Z"/><path class="cls-9" d="M1404.04,1278.77c5.51-.79,10.69-1.52,15.91-1.77,5.31-.25,10.64-.05,16.57-.03,3.35,6.47,1.91,12.69-1.07,18.5-.68,1.32-3.51,2.08-5.38,2.13-10.21,.2-20.41,.1-30.44,.1,0-2.79-.51-6.88,.17-10.76,.48-2.77,2.56-5.26,4.22-8.17h.03Z"/><path class="cls-10" d="M1306.47,1280.17c5.73-1.01,11.48-1.95,17.21-1.72,7.36,.3,14.67,1.55,22.34,2.82-1.7,2.97-3.86,5.43-5.76,8.07-1.88,2.61-3.48,5.41-5.79,8.15-3.71,.07-6.83,.13-9.95,.18-6.07-.68-12.16-1.35-18.02-2,0-5.16,0-10.05-.03-15.51Z"/><path class="cls-9" d="M1507.05,1271.81c.79,3.42,1.77,6.81,2.31,10.26,.49,3.15-.51,5.02-4.36,5.4-9.03,.89-18,2.34-26.12,3.45-2.08-7.06-4.14-14.01-6.29-21.71,1.91-.87,3.99-1.37,5.92-1.04,2.19,.38,4.22,2,6.42,2.19,7.36,.69,14.73,.99,22.11,1.45h0Z"/><path class="cls-10" d="M1584.33,1284.73c-10.35,.46-20.74,1.45-29.95-2.29-2.14,.86-3.91,1.98-5.81,2.24-2.94,.41-6.01-.08-8.93,.41-6.29,1.07-6.7,.76-5.54-6.75,5.73-1.02,11.32-1.15,16.88-1.04,.2,.48,.41,.69,.63,.91,.07-.38,.15-.76,.63-1.02,5.81,0,11.2-.13,16.6-.25,0,0,.03,.03,.13,.46,4.75,1.85,9.4,3.27,14.06,4.69,0,0,.05,.03,.07,.41,.41,.99,.81,1.6,1.2,2.23h.03Z"/><path class="cls-18" d="M1584.88,1284.68c-.94-.56-1.34-1.17-1.39-2.23,.69-2.21,7.23,1.53,3.46-3.93,4.22-.46,8.46-.92,12.69-1.35,.84-.08,2.26-.28,2.49,.12,4.04,6.98,10.58,3.12,16.04,3.94,2.31,.35,4.47,1.73,6.68,2.64-.07,.86-.15,1.72-.21,2.57-3.96,.3-7.95,1.09-11.88,.82-9.14-.61-18.23-1.73-27.9-2.59h.02Z"/><path class="cls-18" d="M1551.02,1277.05c-5.59,.13-11.17,.28-16.9,.84-1.62-.91-3.09-2.26-5.15-4.14-4.32-2.13-8.05-3.7-11.8-5.28,7.85,.61,15.72,1.22,24.6,1.9,3.71,0,6.42-.03,9.12-.08,2.19,.07,4.39,.13,7.01,.31,5.79,.68,11.17,1.22,16.3,2.18-5.13,.4-10.03,.4-14.72,.4,3.1,1.25,6.22,2.51,9.36,3.78-5.4,.13-10.79,.25-16.8,.25-.63-.13-1.04-.12-1.04-.12v-.03Z"/><path class="cls-15" d="M1516.96,1268.16c3.96,1.88,7.71,3.46,11.6,5.46,.16,.41,.15,.56-.43,.63-5.31-.78-10.05-1.62-14.77-2.46-1.85-.1-3.7-.2-5.92-.15-7.75-.3-15.13-.59-22.49-1.29-2.18-.2-4.21-1.81-6.42-2.19-1.93-.33-4.01,.16-6.22,.71-.46,.4-.73,.38-1.39,.25-6.17-4.69-12.42-2.38-19.12-1.3,1.81-1.22,4.09-3.4,6.52-3.56,6.72-.46,13.5-.1,20.97,.48,2.08,1.39,3.37,2.85,4.78,2.99,7.21,.64,14.44,.92,21.66,1.34,3.66-.4,7.34-.79,11.24-.87l-.02-.02Z"/><path class="cls-9" d="M1513.37,1272.37c4.72,.26,9.44,1.11,14.72,1.93,1.01,1.63,2.11,3.43,1.77,4.87-.43,1.77-2.99,4.67-3.1,4.62-4.14-2.57-11.3,6.83-13.33-3.13-.49-2.47-.05-5.13-.05-8.28h0Z"/><path class="cls-10" d="M1568.86,1276.94c-3.13-1.27-6.27-2.52-9.37-3.78h15.05c3.02,3.63,5.89,5.36,9.39,1.63,1.02,1.42,1.72,2.38,2.72,3.53,4.08,5.66-2.46,1.9-3.18,3.75-.36,.07-.4,.03-.51-.45-4.77-1.88-9.4-3.27-14.06-4.67l-.03-.03v.02Z"/><path class="cls-15" d="M1324.63,1298.06c3.02-.41,6.14-.48,10.18-.76,2.97-.99,5.02-1.75,7.06-2.51-1.67,1.58-3.35,3.17-5.31,5.07-4.14-.26-7.97-.84-11.93-1.8Z"/><path class="cls-13" d="M1492.64,1259.22c3.5-.43,6.98-.43,11.04-.46,7.75-.02,14.95-.12,22.13,.12,2.16,.07,4.29,1.09,6.68,2.13-12.8,.28-25.85,.1-39.38-.3-.46-.51-.46-.79-.45-1.48h-.02Z"/><path class="cls-13" d="M1550.64,1269.91c-2.44,.41-5.13,.46-8.33,.46-3.5-2.72-6.48-5.4-9.55-8.51,5.82,2.28,11.73,4.98,17.89,8.07v-.02Z"/><path class="cls-10" d="M1225.88,1261.35c-.79-.38-1.06-.68-1.63-1.11-.69-1.04-1.14-1.91-1.72-3.13,5.49,.82,11.12,2,16.88,3.65-4.24,.51-8.6,.56-13.55,.59h.02Z"/><path class="cls-10" d="M1505.76,1268.69c-7.26-.07-14.49-.35-21.7-.99-1.42-.13-2.71-1.6-4.17-2.9,9.59-.45,19.3-.45,29.01-.45,.12,.54,.21,1.09,.33,1.65-1.14,.78-2.29,1.55-3.46,2.69Z"/><path class="cls-15" d="M1450.9,1267.68c-1.86,1.02-4.11,1.91-6.86,2.77,1.81-.99,4.16-1.95,6.86-2.77Z"/><path class="cls-15" d="M1443.16,1270.35c.36,.3,.4,.53,.43,1.12-.35,.05-.69-.26-1.24-.87,.03-.3,.26-.3,.81-.25h0Z"/><path class="cls-1" d="M1251.69,1222.67c.33-1.06,1.12-2,2.03-3.32,.59-.41,1.06-.48,1.88-.59,11.29,2.49,22.21,5.1,33.16,7.52,8.71,1.93,17.79,2.79,26.17,5.66,20.16,6.91,40.82,2.05,61.16,3.75,4.32,.36,8.55,1.86,12.98,3.28-11.04,.46-22.26,.46-34.07,.45-5.16-.26-9.72-.73-14.27-.68-7.09,.07-14.19,.48-21.78,.61-1.98-.91-3.37-2.05-4.92-2.36-8.51-1.68-17.14-2.8-25.59-4.77-12.18-2.85-24.2-6.27-36.76-9.54v-.02Z"/><path class="cls-13" d="M1242.23,1219.02c.2-.08,.58,.13,1.24,.54-.17,.05-.59-.1-1.24-.54Z"/><path class="cls-7" d="M1342.22,1294.67c-2.39,.86-4.45,1.6-6.83,2.59,1.39-2.49,3-5.3,4.87-7.92,1.9-2.64,4.06-5.1,6.3-8.04,2.06-.13,3.94,.15,6.15,.58-3.15,4.34-6.65,8.51-10.49,12.8v-.02Z"/><path class="cls-10" d="M1470.75,1243.69c6.39,3.99,12.82,8.43,19.44,13.25-2.52,.43-5.25,.49-8.55,.56-2.89-2.44-5.21-4.85-7.87-7.54-1.22-2.11-2.11-3.96-3.02-6.27h0Z"/><path class="cls-6" d="M1472.02,1235.71c.08-.16,.35-.16,.97-.15-.02,.12-.41,.21-.97,.15Z"/><path class="cls-8" d="M1298.74,1195.6c.1-.05-.13,.31-.13,.31,0,0,.02-.26,.13-.31Z"/><path class="cls-18" d="M1569,1277.4c4.54,.96,9.17,2.34,13.94,4.21-4.54-.94-9.19-2.36-13.94-4.21Z"/><path class="cls-1" d="M1551,1277.3c.02-.25,.43-.26,.64-.25,.13,.4,.07,.78,0,1.15-.21-.21-.43-.43-.63-.91h-.02Z"/></g><g><path d="M770.67,683.66c13.65,8.4,33.6,15.4,54.6,15.4,31.15,0,49.35-16.45,49.35-40.25,0-22.05-12.6-34.65-44.45-46.9-38.5-13.65-62.3-33.6-62.3-66.85,0-36.75,30.45-64.05,76.3-64.05,24.15,0,41.65,5.6,52.15,11.55l-8.4,24.85c-7.7-4.2-23.45-11.2-44.8-11.2-32.2,0-44.45,19.25-44.45,35.35,0,22.05,14.35,32.9,46.9,45.5,39.9,15.4,60.2,34.65,60.2,69.3,0,36.4-26.95,67.9-82.6,67.9-22.75,0-47.6-6.65-60.2-15.05l7.7-25.55Z"/><path d="M980.67,503.75c.35,10.5-7.35,18.9-19.6,18.9-10.85,0-18.55-8.4-18.55-18.9s8.05-19.25,19.25-19.25,18.9,8.4,18.9,19.25Zm-34.3,217v-169.4h30.8v169.4h-30.8Z"/><path d="M1028.26,472.25h30.8v248.5h-30.8v-248.5Z"/><path d="M1122.76,551.35l33.25,95.2c5.6,15.4,10.15,29.4,13.65,43.4h1.05c3.85-14,8.75-28,14.35-43.4l32.9-95.2h32.2l-66.5,169.4h-29.4l-64.4-169.4h32.9Z"/><path d="M1292.86,641.66c.7,41.65,27.3,58.8,58.1,58.8,22.05,0,35.35-3.85,46.9-8.75l5.25,22.05c-10.85,4.9-29.4,10.5-56.35,10.5-52.15,0-83.3-34.3-83.3-85.4s30.1-91.35,79.45-91.35c55.3,0,70,48.65,70,79.8,0,6.3-.7,11.2-1.05,14.35h-119Zm90.3-22.05c.35-19.6-8.05-50.05-42.7-50.05-31.15,0-44.8,28.7-47.25,50.05h89.95Z"/><path d="M1451.06,604.2c0-19.95-.35-37.1-1.4-52.85h26.95l1.05,33.25h1.4c7.7-22.75,26.25-37.1,46.9-37.1,3.5,0,5.95,.35,8.75,1.05v29.05c-3.15-.7-6.3-1.05-10.5-1.05-21.7,0-37.1,16.45-41.3,39.55-.7,4.2-1.4,9.1-1.4,14.35v90.3h-30.45v-116.55Z"/><path d="M1671.21,510.75h-71.75v-25.9h174.65v25.9h-72.1v210h-30.8v-210Z"/><path d="M1783.55,604.2c0-19.95-.35-37.1-1.4-52.85h26.95l1.05,33.25h1.4c7.7-22.75,26.25-37.1,46.9-37.1,3.5,0,5.95,.35,8.75,1.05v29.05c-3.15-.7-6.3-1.05-10.5-1.05-21.7,0-37.1,16.45-41.3,39.55-.7,4.2-1.4,9.1-1.4,14.35v90.3h-30.45v-116.55Z"/><path d="M1990.06,720.76l-2.45-21.35h-1.05c-9.45,13.3-27.65,25.2-51.8,25.2-34.3,0-51.8-24.15-51.8-48.65,0-40.95,36.4-63.35,101.85-63v-3.5c0-14-3.85-39.2-38.5-39.2-15.75,0-32.2,4.9-44.1,12.6l-7-20.3c14-9.1,34.3-15.05,55.65-15.05,51.8,0,64.4,35.35,64.4,69.3v63.35c0,14.7,.7,29.05,2.8,40.6h-28Zm-4.55-86.45c-33.6-.7-71.75,5.25-71.75,38.15,0,19.95,13.3,29.4,29.05,29.4,22.05,0,36.05-14,40.95-28.35,1.05-3.15,1.75-6.65,1.75-9.8v-29.4Z"/><path d="M2099.25,503.75c.35,10.5-7.35,18.9-19.6,18.9-10.85,0-18.55-8.4-18.55-18.9s8.05-19.25,19.25-19.25,18.9,8.4,18.9,19.25Zm-34.3,217v-169.4h30.8v169.4h-30.8Z"/><path d="M2146.85,472.25h30.8v248.5h-30.8v-248.5Z"/><path d="M2225.25,689.26c9.1,5.95,25.2,12.25,40.6,12.25,22.4,0,32.9-11.2,32.9-25.2,0-14.7-8.75-22.75-31.5-31.15-30.45-10.85-44.8-27.65-44.8-47.95,0-27.3,22.05-49.7,58.45-49.7,17.15,0,32.2,4.9,41.65,10.5l-7.7,22.4c-6.65-4.2-18.9-9.8-34.65-9.8-18.2,0-28.35,10.5-28.35,23.1,0,14,10.15,20.3,32.2,28.7,29.4,11.2,44.45,25.9,44.45,51.1,0,29.75-23.1,50.75-63.35,50.75-18.55,0-35.7-4.55-47.6-11.55l7.7-23.45Z"/></g><line class="cls-19" x1="971.19" y1="829.57" x2="2110.76" y2="829.57"/></svg>