<?xml version="1.0" encoding="UTF-8"?><svg id="Layer_1" xmlns="http://www.w3.org/2000/svg" xmlns:xlink="http://www.w3.org/1999/xlink" viewBox="0 0 1171.69 1710.09"><defs><style>.cls-1{fill:none;}.cls-2{clip-path:url(#clippath);}.cls-3{fill:#fff;}.cls-4{fill:#231f20;}</style><clipPath id="clippath"><rect class="cls-1" x="0" width="1171.69" height="1710.09"/></clipPath></defs><g class="cls-2"><path class="cls-4" d="M582.72,1710.09c84.28-131.25,169.12-264.23,252.83-394.57,82.06-127.76,170.39-252.03,244.31-385.69,35.67-64.5,66.26-133.2,81.1-207.06,14.65-72.94,13.17-151.25,2.33-224.74-21.18-143.7-105.24-261.44-207.57-351.36C853.69,57.02,726.41-.91,594.17,.01,462.46,.93,331.96,47.44,224.91,130.46,127.56,205.97,53.15,309.76,20.74,435.59c-34.78,135.07-25.19,280.76,24.04,410.18,52.86,138.96,144.2,260.3,224.75,381.16,86.42,129.67,168.88,262.37,254.66,392.53,19.76,29.99,41.07,58.94,58.53,90.63"/><path class="cls-3" d="M585.85,904.32c197.3,0,357.25-162.26,357.25-362.42s-159.95-362.41-357.25-362.41S228.6,341.75,228.6,541.91s159.95,362.42,357.25,362.42"/></g></svg>