<?xml version="1.0" encoding="UTF-8"?><svg id="Layer_1" xmlns="http://www.w3.org/2000/svg" xmlns:xlink="http://www.w3.org/1999/xlink" viewBox="0 0 1740.29 1755.86"><defs><style>.cls-1,.cls-2{fill:none;}.cls-3{clip-path:url(#clippath);}.cls-2{stroke:#231f20;stroke-width:20px;}</style><clipPath id="clippath"><rect class="cls-1" width="1740.29" height="1755.86"/></clipPath></defs><g class="cls-3"><path d="M334.19,1513.3h0c-4.2-17.71,3.43-37.41,6.68-54.7,8.67-46.08,15.01-85.49,42.61-124.29,25.87-36.38,50.83-74,78.62-108.91,26.96-33.85,59.09-56.48,94.62-80.28,23.52-15.75,49.04-27.97,76.32-35.41h0c19.8-5.4,41.03-14.91,61.94-10.44,18.46,3.95,32.11,18.38,46.02,30.18,22.87,19.4,48.55,20.27,77.06,22.53,32.17,2.54,64.34,5.39,96.66,4.39,30.86-.96,58.1-11.76,86.3-23.52,26.5-11.05,53.12-24.75,82.19-26.84,29.92-2.16,57.85,9.93,84.24,22.75,27.62,13.42,59,34.99,82.88,54.36,87.95,71.34,140.07,185.1,168.21,292.83,9.14,35.01-3.8,43.78-29.34,65.34-23.33,19.7-46.96,39.04-71.3,57.46-48.38,36.63-99.7,69.94-155.38,94.14-31.65,13.76-64.61,24.5-98.44,31.27h0c-74.74,14.95-151.87,13.01-227.53,8.15-75.93-4.88-152.02-15.99-225.05-37.98-55.83-16.81-111.05-37.44-162.03-66.16-45.51-25.63-95.11-58.87-113.95-110.39-.54-1.48-.99-2.98-1.34-4.49"/><path d="M870.14,1109.36c162.66,0,294.52-133.04,294.52-297.16s-131.86-297.15-294.52-297.15-294.52,133.04-294.52,297.15,131.86,297.16,294.52,297.16"/><ellipse class="cls-2" cx="870.14" cy="877.93" rx="845.97" ry="853.54"/></g></svg>