<?xml version="1.0" encoding="UTF-8"?><svg id="Layer_1" xmlns="http://www.w3.org/2000/svg" viewBox="0 0 1080 1920"><defs><style>.cls-1{fill:#f6ee5b;}.cls-2{fill:#f6f6f5;}.cls-3{fill:#f2f2f2;}.cls-4{fill:#f7cb00;}.cls-5{fill:#e8e9e8;}.cls-6{fill:#fee074;}.cls-7{fill:#feef0e;}.cls-8{fill:#fedf73;}.cls-9{fill:#fecb1b;}.cls-10{fill:#fecc1c;}.cls-11{fill:#fbc80f;}.cls-12{fill:#fde070;}.cls-13{fill:#d7b439;}.cls-14{fill:#c4c4c3;}.cls-15{fill:#dab015;}.cls-16{fill:#d4b01a;}.cls-17{fill:#c6af06;}.cls-18{fill:#e2b919;}.cls-19{fill:none;stroke:#fbae17;stroke-miterlimit:10;stroke-width:5px;}</style></defs><rect class="cls-3" width="1080" height="1920"/><g><path d="M181.53,676.83c6.16,3.79,15.17,6.95,24.65,6.95,14.06,0,22.28-7.43,22.28-18.17,0-9.95-5.69-15.64-20.07-21.17-17.38-6.16-28.12-15.17-28.12-30.18,0-16.59,13.75-28.92,34.45-28.92,10.9,0,18.8,2.53,23.54,5.21l-3.79,11.22c-3.48-1.9-10.59-5.06-20.22-5.06-14.54,0-20.07,8.69-20.07,15.96,0,9.95,6.48,14.85,21.17,20.54,18.01,6.95,27.18,15.64,27.18,31.29,0,16.43-12.17,30.65-37.29,30.65-10.27,0-21.49-3-27.18-6.79l3.48-11.53Z"/><path d="M276.33,595.62c.16,4.74-3.32,8.53-8.85,8.53-4.9,0-8.37-3.79-8.37-8.53s3.63-8.69,8.69-8.69,8.53,3.79,8.53,8.69Zm-15.48,97.96v-76.47h13.9v76.47h-13.9Z"/><path d="M297.81,581.4h13.9v112.18h-13.9v-112.18Z"/><path d="M340.47,617.11l15.01,42.98c2.53,6.95,4.58,13.27,6.16,19.59h.47c1.74-6.32,3.95-12.64,6.48-19.59l14.85-42.98h14.54l-30.02,76.47h-13.27l-29.07-76.47h14.85Z"/><path d="M417.26,657.87c.32,18.8,12.32,26.54,26.23,26.54,9.95,0,15.96-1.74,21.17-3.95l2.37,9.95c-4.9,2.21-13.27,4.74-25.44,4.74-23.54,0-37.6-15.48-37.6-38.55s13.59-41.24,35.87-41.24c24.97,0,31.6,21.96,31.6,36.02,0,2.84-.32,5.06-.47,6.48h-53.72Zm40.77-9.95c.16-8.85-3.63-22.59-19.28-22.59-14.06,0-20.22,12.96-21.33,22.59h40.61Z"/><path d="M488.67,640.97c0-9.01-.16-16.75-.63-23.86h12.17l.47,15.01h.63c3.48-10.27,11.85-16.75,21.17-16.75,1.58,0,2.69,.16,3.95,.47v13.11c-1.42-.32-2.84-.47-4.74-.47-9.8,0-16.75,7.43-18.64,17.85-.32,1.9-.63,4.11-.63,6.48v40.77h-13.75v-52.62Z"/><path d="M588.06,598.78h-32.39v-11.69h78.84v11.69h-32.55v94.8h-13.9v-94.8Z"/><path d="M638.77,640.97c0-9.01-.16-16.75-.63-23.86h12.17l.47,15.01h.63c3.48-10.27,11.85-16.75,21.17-16.75,1.58,0,2.69,.16,3.95,.47v13.11c-1.42-.32-2.84-.47-4.74-.47-9.8,0-16.75,7.43-18.64,17.85-.32,1.9-.63,4.11-.63,6.48v40.77h-13.75v-52.62Z"/><path d="M732,693.58l-1.11-9.64h-.47c-4.27,6-12.48,11.38-23.38,11.38-15.48,0-23.38-10.9-23.38-21.96,0-18.49,16.43-28.6,45.98-28.44v-1.58c0-6.32-1.74-17.7-17.38-17.7-7.11,0-14.54,2.21-19.91,5.69l-3.16-9.16c6.32-4.11,15.48-6.79,25.12-6.79,23.38,0,29.07,15.96,29.07,31.29v28.6c0,6.64,.32,13.11,1.26,18.33h-12.64Zm-2.05-39.03c-15.17-.32-32.39,2.37-32.39,17.22,0,9.01,6,13.27,13.11,13.27,9.95,0,16.27-6.32,18.49-12.8,.47-1.42,.79-3,.79-4.42v-13.27Z"/><path d="M781.29,595.62c.16,4.74-3.32,8.53-8.85,8.53-4.9,0-8.38-3.79-8.38-8.53s3.63-8.69,8.69-8.69,8.53,3.79,8.53,8.69Zm-15.48,97.96v-76.47h13.9v76.47h-13.9Z"/><path d="M802.78,581.4h13.9v112.18h-13.9v-112.18Z"/><path d="M838.17,679.36c4.11,2.69,11.38,5.53,18.33,5.53,10.11,0,14.85-5.06,14.85-11.38,0-6.64-3.95-10.27-14.22-14.06-13.75-4.9-20.22-12.48-20.22-21.65,0-12.32,9.95-22.44,26.39-22.44,7.74,0,14.54,2.21,18.8,4.74l-3.48,10.11c-3-1.9-8.53-4.42-15.64-4.42-8.22,0-12.8,4.74-12.8,10.43,0,6.32,4.58,9.16,14.54,12.96,13.27,5.06,20.07,11.69,20.07,23.07,0,13.43-10.43,22.91-28.6,22.91-8.37,0-16.12-2.05-21.49-5.21l3.48-10.59Z"/></g><line class="cls-19" x1="178" y1="728.71" x2="884.51" y2="728.71"/><g><path class="cls-14" d="M635.26,1025.85c.51,.37,1.18,.63,1.49,1.13,3.97,6.41,10.57,9.74,16.2,14.43-.95,2.1-1.76,3.81-2.57,5.53,1.09,.49,2.17,.97,3.26,1.46,.65-1.63,1.31-3.26,1.95-4.9,.05-.12,.03-.26,.04-.39,1.39,.53,2.91,.85,4.14,1.64,8.86,5.68,18.04,4.53,27.63,1.75,.15,.62-.15,1-.1,1.32,.25,1.42,.26,3.08,1.06,4.1,.36,.45,2.38-.4,3.64-.66-.32-1.43-.59-2.87-.99-4.27-.16-.55-.61-1.02-.93-1.53,6.44-3.47,12.92-6.85,19.3-10.42,6.31-3.53,12.47-7.33,18.77-10.85,9.96-5.57,20.2-4.84,30.05-.12,9.79,4.7,18.97,10.66,28.82,15.21,8.54,3.94,17.41,7.72,26.54,9.62,8.04,1.68,16.6,.99,24.81-1.61,13.59-4.29,27.3-8.22,40.99-12.21,6.23-1.82,12.11,.24,17.91,2.37-.49,1.54-1.06,2.65-1.25,3.83-.15,.95,.17,1.97,.28,2.96,1.38-.31,3.33-.18,4.01-1.04,.9-1.15,.81-3.07,1.15-4.66,4.84,1.3,9.67,2.66,14.53,3.88,5.28,1.33,10.55,2.85,15.91,3.67,2.52,.39,5.31-.48,7.9-1.09,4.92-1.16,7.41-.18,10.08,3.94,2.62,4.06,5.31,8.09,8.22,11.94,1.92,2.55,3.31,5.74,1.81,8.1-1.4,2.21-4.61,3.82-7.33,4.54-11.43,3-22.99,5.49-34.48,8.3-9.58,2.34-19.06,2.74-28.82,.67-9.41-2-19-4.02-28.55-4.25-7.93-.19-15.98,1.9-23.86,3.56-5.74,1.21-11.19,3.84-16.94,5.01-9.01,1.83-18.14,1.6-27.06-.94-13.97-3.98-26.86-10.32-39.68-17.17-9.88-5.28-20.82-8.89-31.66-11.9-5.19-1.44-11.39-.44-16.88,.68-10.28,2.08-20.11,.95-30.06-1.69-3.72-.98-7.31-2.13-11.57-2.01-11.56,.31-22.93-1.69-31.01-11.35-1.95-2.33-2.98-5.43-4.21-8.58,2.63-2.93,5.04-5.47,7.45-8m244.31,41.81c-1.08-.8-2.17-1.61-3.91-2.9-.91,2.08-1.77,3.59-2.13,5.22-.08,.33,2.05,1.76,2.48,1.51,1.44-.83,2.57-2.2,3.56-3.83m-128.49-16.18c1.22-1.01,2.43-2.03,3.65-3.04-.88-.99-1.6-2.42-2.7-2.84-.8-.3-3.08,.9-3.04,1.14,.27,1.54,1,3,2.09,4.74m50.43,15.92c-.95-1.27-1.74-2.74-2.95-3.67-.32-.25-2.45,.94-2.77,1.82-.33,.93,.49,3.25,.87,3.26,1.53,.06,3.09-.54,4.85-1.42m23.31,4.95c-1.66,.75-3.32,1.5-4.99,2.24,.06,.67,.11,1.34,.17,2.02,1.82,.41,4.02,1.65,5.39,1.04,2.69-1.2,1.34-3.31-.58-5.3m27.23-16.17c-1.4,.17-2.96,.03-4.12,.65-.56,.3-.78,2.21-.4,3.06,.39,.86,1.74,1.9,2.59,1.83,3.45-.29,3.21-2.62,1.92-5.53m14.52-2.02c1.15,.16,3.11,.76,3.31,.4,.63-1.14,1.04-3.72,.74-3.84-1.74-.73-3.71-.92-5.6-1.29-.19,.4-.37,.81-.56,1.21,.55,1.06,1.09,2.12,2.1,3.52m-130.25-7.77c-1.18-.55-2.32-1.4-3.54-1.52-.57-.06-1.92,1.47-1.79,1.98,.37,1.4,1.14,3.54,2.12,3.76,2.54,.57,3.63-1.2,3.21-4.23m.44-16.97c-1.08,.92-2.15,1.83-3.23,2.75,.88,.98,1.6,2.41,2.69,2.78,.73,.25,2.58-.79,2.86-1.61,.51-1.53,1.17-3.76-2.31-3.92m157.32,46.68c-.38-.63-.76-1.27-1.24-2.08-.49,.8-.81,1.31-1.23,2.01-.25-.98-.45-1.78-.65-2.58-.34-.12-.68-.25-1.02-.37-.69,1.42-1.79,2.81-1.9,4.28-.06,.76,2.04,2.53,2.44,2.34,1.41-.67,2.5-2,3.61-3.59m-109.5-30.46c-.35-1.53-.54-3.13-1.19-4.52-.11-.24-2.39,.09-3.2,.74-.65,.52-.92,2.76-.79,2.81,1.55,.62,3.21,.98,5.18,.97m-31.68,16c.78,1.07,1.55,2.15,2.33,3.22,1.13-.9,2.63-1.61,3.22-2.78,.3-.59-1.18-2.95-1.62-2.89-1.34,.19-2.57,1.17-3.93,2.45m-111.8-23.71c-.36,1.35-1.3,2.91-.9,3.98,.32,.88,2.25,1.62,3.42,1.56,.66-.04,1.74-1.83,1.73-2.82-.03-2.24-1.43-3.4-4.24-2.72m289.92,18.31c1.22-.71,3.52-1.56,3.45-2.09-.22-1.61-1.36-3.1-2.19-4.76-3.09,2.22-5.04,4-1.25,6.85m-154.68,13c-1.21,1-2.42,2-3.63,3,.7,.83,1.33,2.27,2.11,2.36,1.17,.13,2.45-.68,3.69-1.09-.56-1.44-1.11-2.88-2.17-4.27m82.64,3.22c2.2-1.16,1.79-2.66,.18-3.8-1-.71-2.43-.81-3.67-1.19-.17,1.68-.34,3.36-.51,5.05,1.17-.01,2.34-.03,4-.06m-98.01-37.73c-.84-2.34-1.9-4.72-4.79-2.52-.77,.59-.92,3.64-.37,3.99,1.59,1,3.89,2.12,5.16-1.47m189.2,35.44c1.83,.88,3.61,.62,4.5-1.15,.38-.77-.18-2.57-.91-3.18-.76-.63-2.58-.9-3.35-.4-1.65,1.04-2.36,2.75-.24,4.73m-158.72-17.17c-3.24,.82-2.9,2.94-2.05,5.82,1.92-.72,3.55-1.34,5.18-1.95-.87-1.26-1.74-2.51-3.14-3.87m29,2.79c-1.12-.84-2.17-1.79-3.4-2.42-.22-.12-1.39,.97-1.65,1.68-.56,1.53-1.3,3.33,1.12,4.1,2.59,.83,3.51-.74,3.93-3.36m9.52,6.19c3.34-2.23,3.26-2.68-1.01-5.57-.2,.76-.38,1.48-.63,2.45-.4-.84-.63-1.34-.95-2.01-2.18,3.68-1.61,4.94,2.6,5.13m-117.74-14.63c-1.78-.5-4.03-1.63-4.37,1.41-.5,4.42,3.66,1.32,4.84,3.22,.29-.15,.58-.31,.87-.46-.28-1.38-.55-2.77-1.34-4.17m176.32,7.41c-.35,1.11-.7,2.23-.99,3.16,1.83,.51,3.28,.92,5.29,1.48,0-1.4,.46-3.05-.11-3.57-.88-.8-2.46-.84-4.19-1.07h0Z"/><path class="cls-9" d="M297.78,939.85c.84-.31,1.68-.61,3.02-.95,.89-.23,1.28-.42,1.68-.62,0,0,.34-.12,.74-.13,.54,0,.68,0,1.01,.18,.85,.32,1.51,.46,2.18,.6,0,0,.01,0,.1,.17,.23,.37,.42,.53,.68,.89,.5,.89,.97,1.54,1.51,2.43,.83,1.12,1.58,1.99,2.46,3.02,.28,.34,.48,.48,.8,.74,.25,.38,.45,.53,.74,.7,.04,.07,.26,.06,.26,.06,0,0-.23-.2-.33-.37-.26-.37-.46-.52-.79-.78-.25-.36-.43-.52-.64-.93-.77-1.15-1.54-2.02-2.33-3.16-.56-.85-1.09-1.43-1.66-2.21-.04-.19-.14-.56,.02-.78,.62-.67,1.02-1.34,1.57-1.51,1.87-.59,3.8-1,5.7-1.48-.2,1.93-.43,3.85-.58,5.78-.08,.98-.01,1.97-.01,2.96,.46,.09,.92,.18,1.39,.27,1.11-2.82,2.21-5.65,3.38-8.63,1.07,.79,1.87,1.39,2.96,2.01,.89,.04,1.48,.06,2.1,.35,.79,.86,1.55,1.45,2.29,2.3,.04,.61,.1,.96,.17,1.52,.17,.6,.34,.98,.53,1.61,.54,.9,1.05,1.55,1.63,2.42,.73,.8,1.39,1.37,2.32,1.99,.46,.04,.64,.04,.82,.04,0,.01-.02-.01,.07,.16,.25,.39,.46,.54,.69,.64-.01,0,0-.03-.03,.3,.06,2.11-.64,4.35,2.37,4.4l.08,.17c.25,.39,.45,.54,.7,.62l.08,.16c.25,.39,.45,.54,.7,.62l.06,.26c.9,.61,1.73,.96,2.66,1.38,.21,.2,.31,.33,.45,.76,1.07,.69,2.1,1.09,3.1,1.5-.01,.01,0-.02,.06,.25,2.63,1.38,5.21,2.5,7.97,3.55,.36-.39,.54-.72,.84-1.06,.12-.01,.37,.01,.35,.24,.3,.69,.62,1.16,1.15,1.64,.33,0,.46,0,.81,.12,1.06,.65,1.9,1.18,2.79,1.94,1.58,1.06,3.1,1.88,4.71,2.98,3.66,2.39,7.23,4.52,11.02,6.84,.78,.39,1.34,.57,2,.84,.22,.2,.31,.34,.4,.77,.33,.7,.64,1.14,1.12,1.75,1.8,.85,3.43,1.53,5.14,2.45,2.02,1.49,3.95,2.73,5.88,3.97-.65,.3-1.42,.66-2.94,1.37,3.89,.52,7.06,.46,9.89,1.42,6.04,2.06,11.45,5.45,18.23,5.95,8.48,.62,16.84,2.76,25.36,4.5,2.01,.84,3.94,1.97,5.83,1.89,5.36-.22,10.71-.92,16.32-1.25,6.62,.33,12.97,.46,19.5,.85,5.55,.32,10.92,.39,16.57,.49,4.83,.25,9.05-.52,13.47-2.11,4.42-1.59,9.53-1.4,14.36-1.59,.97-.04,2.07,1.63,3.01,2.61,1.61,1.68,3.14,3.44,4.75,5.45,.38,3.07,1.69,4.72,4.75,4.59,.05,.57,.09,.9-.24,1.25-5.29,.2-10.26-.03-15.1,.67-7.22,1.04-14.39,2.58-21.5,4.22-3.66,.85-7.17,2.38-11.12,3.63-5.13,.05-9.89,.07-14.92,.1-1.35,.33-2.42,.91-3.49,.92-9.2,.03-18.41-.04-27.61-.11-1.15,0-2.5,.1-3.41-.44-6.53-3.83-13.84-2.03-20.76-3-.16-.02-.4,.59-.85,.95-.41,.07-.57,.09-.86-.14-.95-1.02-1.67-2.26-2.63-2.49-4.49-1.07-9.05-1.87-13.78-2.94-.7-.37-1.19-.57-1.88-.93-2.75-1.53-5.16-3.39-7.89-4.17-5.81-1.65-11.78-2.74-17.99-4.07-1.1-.01-1.9,0-2.71,0,0,0-.02,0,0-.3-.59-1.23-.98-2.6-1.84-3.04-5.81-2.94-11.72-5.67-17.79-8.67-4.06-3.93-7.94-7.65-11.75-11.44-.4-.4-.48-1.18-.58-1.81-1.12-6.94-6.56-10.65-11.34-15.15-1.88-1.53-3.56-2.91-5.36-4.51-.92-1.25-1.72-2.29-2.52-3.33-.37,.28-.75,.55-1.12,.83,.75,.93,1.5,1.86,2.23,3.1,.53,1.8,.96,3.36,1.67,4.78,.87,1.76,1.98,3.4,2.92,5.21,.21,.29,.48,.47,.88,.88,4.03,4.28,7.92,8.33,11.95,12.58,2.09,2.18,4.04,4.15,6.06,6.35,.55,.54,1.05,.85,1.57,1.14,.02-.01,.05,0,.02,.32,1.01,2.39,1.87,4.58,3.13,6.52,1.78,2.73,5.91,4.71,2.35,8.83-.07,.08,0,.25-.02,.38-.5,4.22-3.2,7.03-7.4,7.79-.63,.11-1.2,.51-2.13,.91,5.47,2.17,11.31-.66,11.82-5.3,.51-4.63,3.5-6.32,7.84-5.11,3.74,1.04,7.69,1.36,11.77,2.19,1.18,.38,2.13,.57,3.1,.77,.02,.01,.04,.05,.06,.27,.28,.57,.54,.91,.79,1.25-.01,0,.01-.01,.05,.27,1.54,.92,3.05,1.55,4.67,2.33,.26,.34,.45,.5,.79,.91,4.53,.6,8.93,.91,13.55,1.38,2.33,.65,4.48,1.04,6.55,1.68,4.47,1.37,8.9,2.88,13.6,4.32,.68-.25,1.1-.49,1.82-.67,1.66,.29,3.03,.51,4.39,.75-.01,0,0-.02,.03,.26,2.1,2.97,4.17,5.66,6.21,8.67-.91,1.42-1.92,3.57-2.66,3.48-7-.85-13.97-2.02-20.92-3.24-1.43-.25-3.02-1.04-.66-2.88,.64-.36,1.11-.54,1.71-.59,.54,0,.95-.11,1.51-.46,.71-1.39,1.28-2.55,1.85-3.71-1.4,.1-3-.19-4.17,.38-2.51,1.21-4.8,2.87-7.29,4.51-.31,.33-.52,.5-1.01,.61-8.7-1.9-16.88-5.77-26.31-3.33,1.23-2.4,2.52-5.03,4.62-6.21,3.16-1.78,1.33-3.26,.8-5.38-2.77,2.45-5.95,4.19-7.45,6.87-2.1,3.76-5.08,4.54-8.56,4.19-3.06-.31-6-1.78-9.06-2.21-4.94-.69-9.95-.86-14.91-1.42-4.27-.48-8.52-1.15-12.75-1.86-2.63-.44-5.47-.61-7.79-1.76-5.18-2.56-10.03-6.15-16.06-2.3-2.84-1.34-5.81-2.47-8.49-4.08-2.03-1.22-3.7-3.03-5.65-5.11-.91-2.11-1.71-3.7-2.51-5.54-.44-.93-.87-1.6-1.35-2.47-.06-.34-.09-.48-.16-.86-.53-.62-1.01-1.01-1.61-1.53-.28-.31-.47-.46-.68-.96,.5-11.38,.99-22.39,1.49-33.4,0,0,.03-.01,.26-.04,.64-.28,1.05-.53,1.69-.84,.81-1.02,1.39-1.97,2.14-3.08,.34-.6,.51-1.04,.77-1.63,.26-.36,.44-.52,.82-.73,.36-.25,.52-.43,.9-.73,2.43-1.97,3.84-5.36,7.76-3.82,.04,.11,.33,.15,.33,.15,0,0,.17-.27,.19-.57,1.35-2.9,2.67-5.49,4-8.09m6.07,63.02c-.04,.76-.08,1.52-.11,2.03,2.47-.33,4.54-.61,6.88-.64,.41-.12,.82-.23,1.46-.81,.75-.59,1.5-1.17,2.38-1.61,.23,.05,.37-.05,.56-.84,.46-1.78,.93-3.57,1.39-5.35-.35-.15-.7-.29-1.05-.44-2.76,3.43-5.35,7.13-10.84,6.59-.2,.16-.36,.36-.69,1.07m.42-35.52c-.15-1.42-.3-2.85-.45-4.27-1.82,1.8-2.56,3.41,.45,4.27m-12.34,33.95c.57,.53,1.13,1.06,1.7,1.58,.25-.63,.5-1.26,.74-1.9-.78-.05-1.57-.1-2.44,.31m5.88-29.04c.46,.5,.91,.99,1.37,1.49,.23-.25,.46-.51,.69-.76-.57-.33-1.14-.66-2.06-.73m15.42,6.49c.49,0,.97,0,1.46-.01l-.3-.98c-.44,.2-.88,.39-1.16,1m-4.56-27.49c-.35,.14-.7,.28-1.05,.42,.31,.31,.62,.61,.92,.92,.14-.35,.28-.7,.13-1.34m-.99,4c.39,.07,.78,.15,1.17,.22-.12-.33-.24-.67-.36-1-.32,.15-.63,.29-.81,.78m-14.97,1.16c-.25-.15-.5-.3-.75-.45l-.23,.68c.29,.03,.57,.06,.98-.23m12.28,43.34c-.18,0-.36-.02-.53,0-.02,0-.02,.19-.03,.29,.18-.02,.35-.03,.57-.28m-2.26-22.86c-.13,.11-.26,.22-.39,.33,.07,.08,.15,.15,.22,.23,.11-.13,.23-.25,.17-.56m-4.53-6.63c-.19-.08-.39-.17-.58-.25,.14,.14,.27,.27,.58,.25m27.12,13.27c-.11-.13-.22-.25-.33-.38-.07,.07-.15,.15-.22,.22,.13,.11,.25,.22,.55,.16m-23.9-9.45l-.23,.07s.23,.07,.23-.07m14.29-5.13l.07,.23s.07-.23-.07-.23m-8.03,13.74l-.23,.07s.23,.07,.23-.07m3.77-23.02s.03-.01,0,0m5.48,10.96s.03-.01,0,0m-3.09-5.48s-.03,.01,0,0m-14.12,11.77s-.01-.03,0,0m.79,3.08s.01,.03,0,0m8.61-22.66s-.01-.03,0,0m-4.69,30.49s.01,.03,0,0m6.28,.03s-.03,.01,0,0m14.07,1.59s-.01-.03,0,0m-29.73-36.82s-.03,.01,0,0Z"/><path class="cls-8" d="M356.35,965.72c-.84-.52-1.69-1.05-2.75-1.89-.35-.64-.48-.95-.61-1.26l-.39,1.32c-.32-.46-.65-.93-.92-1.87,0-.87-.05-1.27-.1-1.66-.13,0-.26,.02-.4,.03v1.66c-.18,.33-.35,.65-.78,.78-2.82-1.32-5.39-2.43-7.96-3.55,0,0-.01,.03-.02-.23-.54-.64-1.06-1.01-1.63-1.65-1.8-3.47-3.32-6.94-7.74-7.62-.34-.34-.57-.5-.8-.66,0,0-.01,.03-.08-.15-.28-.33-.49-.48-.7-.63,0,0,0,.03,0-.25-.27-.75-.54-1.21-1.02-1.78-.87-.14-1.52-.17-2.16-.21-.51-.65-1.02-1.3-1.35-2.29,.58-.8,.98-1.24,1.63-1.69,.89-.16,1.53-.31,2.17-.46v-1.11c-1.3,0-2.6,0-3.92-.01-.02-.01-.06-.05-.06-.23s0-.55,.01-.83c-.47-1.36-.95-2.44-1.44-3.55-.02-.02-.07-.05,.04-.28,1.38-1.87,2.65-3.52,3.92-5.16,0,0,.23-.09,.54,.15,1.26,.61,2.21,.99,3.08,1.58,.14,.74,.37,1.27,.6,1.8,.37-.67,.75-1.33,1.26-2.14,3.7,1.01,7.26,2.16,10.83,3.55,.21,.63,.41,1.02,.62,1.41,.38-.38,.76-.77,1.33-.97,3.99,3.9,7.71,7.71,11.62,11.31,1.8,1.66,3.97,2.91,5.76,4.47-.49,.79-.76,1.45-1.04,2.11,.3,.09,.6,.18,.9,.27,.12-.83,.23-1.66,.64-2.46,1.71,.49,3.12,.95,4.27,1.44-.92,.33-1.58,.62-2.24,.91,.24,.29,.47,.58,.71,.87,.61-.6,1.22-1.21,2.08-1.79,1.48,.13,2.71,.22,4.28,.35,0,.35,0,1.61-.18,3.03-.44,.95-.7,1.73-.96,2.5,.45,.13,.9,.25,1.34,.38,.23-1,.47-2,.9-3.18,2.75,.08,5.33,.18,7.85,.63,4.8,.86,9.56,1.91,14.34,2.87,3.35,.67,6.7,1.32,10.06,1.99,1.28,.26,2.59,.88,3.82,.75,2.98-.34,5.92-1.03,8.97-1.34,2.53,1.86,2.17-.22,2.74-1.53,4.54,.05,8.75,.21,12.95,.16,5.67-.06,10.62-1.48,13.43-7.16,1.73-3.49,3.78-6.82,5.81-10.15,2.85-4.69,3.62-11.5,11.3-11.46,.01,0,.03-.24,.04-.37,.68,.21,1.37,.41,2.35,.96,3.51,4.32,8.13,5.21,12.79,6.04,4.49,2.88,8.98,5.76,13.66,9.16,1.51,2.99,2.5,5.72,4.23,7.86,1.44,1.79,3.74,2.89,5.66,4.29,0,0,.23,.03,.06,.4,.29,3.95,2.85,5.09,5.93,5.63,0,0-.04,0-.09,.28,.43,1.11,.73,2.18,1.43,2.76,2.08,1.73,4.31,3.27,6.12,4.85-6.34-.09-12.31-.16-18.39-.5-3.98-1.37-7.86-2.46-11.82-3.72-.25-.37-.45-.52-.78-.78-.25-.36-.45-.51-.82-.84-1.09-.6-2.05-.98-3.1-1.51-.25-.36-.44-.51-.8-.83-.83-.6-1.52-.98-2.36-1.59-1.06-.63-1.99-1.03-3-1.7-1.59-.87-3.1-1.47-4.71-2.34-1.41-.57-2.72-.87-4.03-1.16-.05,.37-.11,.74-.16,1.11,1.3,.26,2.59,.51,4.02,1,1.6,.84,3.07,1.46,4.69,2.29,1.13,.56,2.11,.91,3.19,1.48,.82,.6,1.55,.96,2.38,1.49,.25,.35,.44,.5,.76,.87,1.08,.61,2.07,.97,3.15,1.48,.25,.35,.44,.5,.76,.78,.25,.37,.46,.52,.79,.87,3.92,1.44,7.73,2.63,11.73,4.07,5.05,.49,9.91,.7,14.78,.98,1.39,.08,3.2-.09,4.08,.69,2.58,2.27,5.23,1.65,8.01,.95,5.76,2.82,11.56,5.59,17.27,8.51,1.62,.83,3.01,2.12,4.96,3.44,.93,.35,1.41,.45,1.89,.55,0,0-.04,0-.06,.28,1.74,1.13,3.44,2.17,5.28,2.81,3.36,1.18,6.8,2.12,10.21,3.16,9.96,3.66,19.92,7.32,30.35,11.26,2.33,1.4,4.19,2.51,5.7,3.65-4.69-.6-9.36-.4-13.27-2.04-4.44-1.86-8.76-1.91-13.27-1.92-4.67-.01-9.34,.02-14.01,.04l-.02-.28c-2.89-1.15-5.74-2-8.59-2.85,0,0,.02,.02-.11-.24-4.83-1.91-9.48-3.73-14.25-5.15-3.62-1.08-7.38-1.64-11.09-2.43,0,0-.02,0-.28-.22-1.78-.33-3.3-.45-4.81-.57l-.02-.28c-1.31-1.01-2.61-1.74-3.97-2.53-.06-.06-.3-.3-.44-.57-1.24-.62-2.32-.97-3.4-1.32,0,0,.02,.02-.09-.23-1.09-.61-2.06-.97-3.03-1.33l.06-.25c.54-.67,1.03-1.42,1.52-1.42,3.08,0,6.16,.15,9.35,.49,1.08,.6,2.05,.96,3.14,1.57,1.08,.61,2.05,.98,3.13,1.61,2.8,.88,5.5,1.51,8.19,2.12,7.06,1.6,14.13,3.19,21.19,4.78,.12-.44,.23-.88,.35-1.31-3.57-.97-7.09-2.17-10.71-2.88-6.28-1.23-12.61-2.16-19.06-3.45-1.09-.6-2.03-.97-3.12-1.57-1.09-.6-2.04-.97-3.17-1.6-.73-.57-1.26-1.11-1.83-1.16-7.17-.6-14.35-1.28-21.53-1.63-5.69-.28-11.39-.12-17.2-.44-3.56-1.61-7.04-4.07-10.48-4.02-6.19,.09-11.57-1.69-17.01-4.4-.25-.36-.44-.51-.77-.78-.25-.37-.45-.52-.85-.87-1.92-.63-3.67-1.02-5.42-1.4l-.16,1.34c1.84,.17,3.69,.34,5.63,.68,.24,.38,.44,.53,.79,.77,.25,.35,.44,.5,.76,.87,4.23,3.27,8.59,5.63,13.99,5.07,1.12-.11,2.34,.06,3.43,.37,3.29,.95,6.54,2.04,9.98,3.33,1.68,.49,3.18,.91,4.69,.93,7.23,.07,14.45,.03,21.68,.03v.57c-15.82,.35-31.64,.7-47.45,1.05,0,0,.02,.02-.11-.24-3.97-1.13-7.8-2.01-11.63-2.88l-.02-.29c-1.35-.9-2.64-1.88-4.01-2.03-5.16-.56-10.34-.85-15.84-1.26,1.9-1.52,3.52-2.82,5.3-4.22,.35-.25,.5-.44,.73-.73-.03-.09-.18-.12-.48-.05-.36,.25-.51,.45-.89,.72-5.41,2.16-10.54,4.29-15.68,6.39-1.95,.8-3.93,1.51-5.9,2.26l-.36-.02c-3.81-.02-7.28-.23-10.7,.08-1.36,.12-2.61,1.42-4.19,2.22-.85,.06-1.42,.1-1.99,.08,0-.05,.02-.13-.07-.38-3.78-2.18-7.41-4.25-11.22-5.92-.91-.4-2.42,.58-3.87,.76-1.31-.64-2.42-1.11-3.66-1.81-.87-.64-1.6-1.07-2.34-1.49-.06-.16-.16-.3-.48-.75-.75-.69-1.3-1.04-1.85-1.4l.04-.28c-1.04-1.15-2.11-2.01-3.17-2.86,0,0,.02,.02-.06-.16-.3-.33-.52-.48-.72-.62,0,0,.02,.02,0-.25-.12-.8-.2-1.33-.08-1.95,.44-.31,.66-.54,.89-.78-.26-.17-.52-.35-.78-.52-.23,.5-.45,1-.91,1.59-1.7-.38-3.16-.85-4.73-1.46-.26-.31-.44-.44-.65-.55v-.26c.26-.87,.52-1.48,.86-2,.08,.09,.43,.14,.43,.14,0,0,.28-.22,.35-.26,.06-.03,.07-.2,.07-.2,0,0-.15,.22-.34,.22s-.58,0-.59-.24c-.49-.44-.96-.64-1.44-.84-.29,.83-.57,1.67-1.14,2.41-1.47-.19-2.65-.29-3.84-.39m14.13-9.49v.17s.14-.23,.27-.29v-.17s-.14,.22-.27,.29m16.58,18.33c0-.13,0-.26,.22-.58,.05-.17,.1-.35,.14-.52-.12,.23-.24,.47-.55,.87-.13,.25-.07,.46,.23,.76h.17s-.23-.14-.23-.53m24.43,1.92v-.21s-.21,.22-.33,.31v.2s.2-.21,.33-.3m-42.31-13.33v-.17s-.14,.23-.27,.29v.17s.14-.22,.27-.29m2.35-.78v-.17s-.14,.23-.27,.29v.17s.14-.22,.27-.29m76.21-1.34c-.02,.3-.04,.61-.06,.91,.2-.32,.4-.64,.91-1.15,.2-.16,.35-.35,.94-.63,.45-.35,.9-.7,1.36-1.06-.16-.17-.32-.35-.47-.52-.52,.47-1.05,.95-1.89,1.61-.2,.16-.35,.35-.79,.83m7.83-8.18l.08-.95c-.25,.28-.5,.57-1.05,1.08-.16,.2-.27,.43-.73,.96-.3,.57-.6,1.14-.9,1.72,.16,.09,.33,.18,.49,.27,.39-.63,.79-1.25,1.47-2.11,.18-.18,.31-.4,.63-.97m-16.16,18.26c.57-.53,1.15-1.07,2.11-1.72,.13-.23,.25-.45,.94-.66,.91-.48,1.81-.95,3.15-1.62,.33-.56,.65-1.11,.98-1.67-.17-.1-.35-.21-.52-.31-.38,.63-.76,1.25-1.71,1.9-.56,.03-1.13,.05-1.77-.26-.22,.4-.45,.8-.71,1.54,0,0-.02,.34-.4,.35,0,0-.38,.01-.61-.37-.45-.27-.9-.54-1.36-.81-.09,.2-.18,.41-.28,.61,.62,.2,1.24,.39,1.84,.96,0,0-.02,.37-.51,.42-.63,.49-1.26,.98-2.34,1.58-.27,.35-.54,.7-.8,1.06,.16,.12,.32,.24,.49,.36,.33-.43,.66-.87,1.51-1.38m-3.55-1.64c-.61,.25-1.23,.51-2.21,.86-.22,.25-.44,.49-.65,.75,0,0,.16,.15,.25,.23,.28-.34,.55-.68,1.25-.85,.64-.32,1.29-.64,2.05-1.04v-.19s-.17,.21-.69,.24m-87.23-22.06h-.17s.22,.14,.34,.61c.48,.36,.96,.73,1.56,1.64,1.71,1.19,3.42,2.39,5.13,3.58,.3-.33,.59-.66,.89-.98-.74-1.3-1.47-2.6-2.25-4.22-.25,.1-.49,.2-1.15,.23-.91,.02-1.81,.05-2.72-.33-.52-.13-1.04-.26-1.62-.51m71.26,25.84h-.17s.22,.14,.35,.6c.49,.27,.99,.54,1.48,.81,.1-.23,.2-.47,.29-.7-.63-.19-1.26-.38-1.96-.7m-40.24-1.06l5.33,.29c.08-.43,.15-.86,.23-1.29-1.81-.89-3.57-1.92-5.46-2.56-.46-.15-1.36,1.03-2.33,1.94,.58,.42,1.16,.83,2.23,1.61m45.7-.9c.39-1.18,.67-2.41,1.22-3.51,.53-1.07,1.33-2,2.13-3.06v-.17s-.14,.22-.62,.29c-1.35-.39-2.71-.78-4.94-1.41,.09,1.62,.26,3.31,.26,5.01,0,1.13-.23,2.25-.47,3.46v.18s.17-.22,.54,.19c.72,.61,1.36,1.52,2.18,1.74,.51,.14,1.31-.74,1.97-1.17-.73-.34-1.46-.67-2.27-1.54m-38.35-9.77h-.15s.23,.11-.02,.52c-.67,.57-1.34,1.14-2.05,1.74,.24,.32,.4,.77,.71,.91,5.49,2.63,10.97,5.28,16.53,7.74,.78,.35,2.04-.14,3-.48,2.91-1.02,5.78-2.16,8.78-2.85,.43-.02,.86-.04,1.29-.05-.47-.39-.94-.77-2.07-1.15-3.47,.05-7.05,.97-10.08-1.77-1.81-1.64-3.92-1.67-6.45-1.71-2.8-.04-6.7,.85-8.52-2.86l.02-.15s-.13,.22-.53,.23c-.13,0-.26,0-.46-.13m-8.54-2.52c.1,2.8,1.13,3.98,3.1,3.53-.24-.83-.28-1.82-.78-2.46-.54-.69-1.5-1.06-2.32-1.07m184.89,37.49c-.88-.07-1.76-.15-2.64-.22-.04,.41-.09,.82-.13,1.23,2.01,.29,4.02,.58,6.03,.87,.06-.36,.12-.73,.17-1.09-.95-.19-1.9-.39-3.42-.78m-144.95-31.58c-.65,.75-1.3,1.5-2.39,2.76h4.86c-.91-1.2-1.64-2.17-2.46-2.76m47.08-9.55c-1.41,.08-2.81,.16-4.22,.24,.03,.32,.06,.63,.09,.95h5.9c.04-.19,.07-.38,.11-.57-.42-.19-.83-.38-1.87-.61m-106.93-.76c.67,.06,1.34,.12,2.94,.27-2.04-1.47-3.02-1.56-2.94-.27m56.15,20.49c-.38,.2-.76,.4-1.13,.61,.35,.23,.7,.46,1.04,.69,.17-.39,.34-.78,.09-1.3m-51.44-16.38c.16-.49,.33-.98,.49-1.48-.27-.05-.54-.11-.81-.16,.02,.45,.05,.9,.32,1.64m94.69-9.8l-1.9,.69c.15,.26,.3,.52,.46,.78,.47-.34,.94-.69,1.45-1.47m-59.93,27.59c-.09,.32-.17,.64-.26,.96h.66c-.02-.33-.04-.65-.4-.96m-37.83-15.22c.15-.25,.3-.5,.45-.75-.23-.08-.45-.15-.68-.23-.03,.29-.06,.57,.23,.98m-24.12-28.16c-.02,.21-.03,.41-.05,.62h.35c0-.21-.02-.41-.3-.63m23.12,16.96c-.13-.16-.26-.32-.4-.48-.09,.08-.17,.16-.26,.24,.15,.14,.3,.28,.65,.24m50.69,22.88c.02-.21,.03-.41,.05-.62h-.35c0,.21,.02,.41,.3,.63m-42.56-14.97c.18,0,.36,.02,.53,0,.02,0,.02-.19,.03-.29-.18,.02-.35,.03-.57,.28m28.22,18.92c-.14-.08-.28-.17-.42-.25-.03,.1-.1,.28-.07,.3,.13,.09,.29,.13,.49-.05m-37.73-16.9l-.23,.07s.23,.07,.23-.07m37.45,1.01l.08-.26s-.19,.17-.08,.26m-18.88-1.01l.15,.21s-.02-.27-.15-.21m-7.63,.16l-.15-.21s.02,.27,.15,.21m31.22,.34s-.01-.03,0,0m46.82,3.07l.25,.12s-.05-.29-.25-.12m-24.89,.06s-.01-.03,0,0m30.56-6.5l-.11,.27s.26-.07,.11-.27m-106.49-4.49s-.03,.01,0,0Z"/><path class="cls-4" d="M332.98,931.98c-.95-.38-1.9-.75-3.05-1.32,6.19-.24,12.57-.22,18.95-.33,27.12-.5,54.24-1.15,81.36-1.49,9.98-.13,19.96,.42,29.94,.74,2.02,.07,4.04,.49,6.39,.82,.33,.19,.31,.43,.3,.43-7.68-.04-8.44,6.77-11.3,11.46-2.03,3.33-4.08,6.66-5.81,10.15-2.81,5.68-7.76,7.09-13.43,7.16-4.21,.05-8.42-.11-13.06-.33-.87-.05-1.3,.06-1.92,.28-.36,.51-.54,.9-.7,1.25,0-.05-.09-.08-.09-.08-2.96,.55-5.9,1.24-8.88,1.57-1.23,.14-2.54-.49-3.82-.75-3.35-.67-6.71-1.31-10.06-1.99-4.78-.96-9.54-2.02-14.34-2.87-2.52-.45-5.1-.56-8.07-.64-.57,.16-.72,.15-.87,.13v-2.87c-1.57-.13-2.8-.23-4.32-.3-.29,.02-.24-.08-.24-.08-1.41-.46-2.83-.92-4.53-1.41-.29-.04-.3-.03-.3-.03-2-1.43-4.17-2.68-5.97-4.34-3.91-3.6-7.62-7.41-11.66-11.3-.24-.17-.26-.09-.29-.3-.54-.29-1.04-.36-1.59-.44-.03,0-.04,.07-.04,.07-3.56-1.15-7.12-2.3-11.09-3.31-.77,.14-1.14,.13-1.5,.12h-.01Z"/><path class="cls-1" d="M298.19,1013.25c5.72-3.9,10.56-.32,15.75,2.24,2.32,1.15,5.16,1.32,7.79,1.76,4.24,.71,8.49,1.37,12.75,1.86,4.96,.56,9.97,.73,14.91,1.42,3.06,.43,6,1.9,9.06,2.21,3.47,.36,6.46-.42,8.56-4.19,1.5-2.68,4.68-4.42,7.45-6.87,.53,2.12,2.36,3.6-.8,5.38-2.1,1.18-3.38,3.81-4.62,6.21,9.43-2.43,17.6,1.44,26.48,3.53,1.95,.11,3.44-.02,5.1-.31,.77-.25,1.37-.34,1.96-.44-2.18,1.66-.59,2.44,.84,2.69,6.95,1.22,13.92,2.39,20.92,3.24,.74,.09,1.75-2.05,2.83-3.68-.25-2.48-.68-4.45-1.34-7.42,2.05,.91,3.13,1.39,4.23,2.22,.02,3.31,.02,6.27,.02,9.4,3.55,.39,7.24,.8,10.99,1.43,2.39,.58,4.72,.93,7.41,1.3,10.54,.03,20.71-.1,30.87,.12,3.42,.07,4-2.45,4.36-4.42,.46-2.54-.11-5.29-.46-7.91-.03-.25-1.68-.44-2.56-.39-2.71,.16-5.41,.46-8.12,.58-.01-.12-.08-.36,.12-.6,5.66-2.67,11.16-1.88,16.5-.37-1.01,1.76-2.26,3.27-2.56,4.95-.41,2.35-.1,4.83-.1,6.52,6.07,0,12.26,.06,18.45-.06,1.13-.02,2.85-.49,3.26-1.29,1.81-3.53,2.67-7.29,1.17-11.33,.83-.08,1.51-.03,2.19,.39,0,3.35,.06,6.33,0,9.3-.05,2.11,.82,3.24,2.98,2.96,4.04-.53,8.18-.75,12.08-1.84,4.99-1.4,4.63-1.65,3.4-6.57-.71-2.85-.4-5.96-.31-8.89,.4,.08,.56,.09,.9,.31,1.42,4.42,2.67,8.63,3.93,12.91,4.91-.67,10.35-1.55,15.83-2.09,2.33-.23,2.95-1.36,2.64-3.27-.33-2.1-.92-4.15-1.18-6.32,1.35-.03,2.47,.03,3.61,.44,0,1.91-.27,3.52,.03,5.02,1.23,6.04,5.56,.34,8.08,1.9,.06,.04,1.61-1.73,1.88-2.8,.21-.87-.46-1.97-.72-2.99,.03-.03,.04-.12,.29-.04,1.15,.89,2.04,1.7,2.93,2.79-.62,4.3-.37,4.48,3.44,3.83,1.77-.3,3.63,0,5.41-.25,1.15-.16,2.22-.84,3.52-1.36,5.58,2.26,11.88,1.67,18.48,1.35,5.86,.52,11.37,1.2,16.91,1.57,2.38,.16,4.8-.31,7.2-.5,.04-.52,.09-1.04,.13-1.56-1.35-.55-2.65-1.39-4.05-1.6-3.32-.49-7.28,1.85-9.72-2.39-.14-.24-.99-.12-1.51-.07-2.57,.25-5.13,.54-7.88,.7-.61-.7-1.03-1.29-1.65-2.14-2.12,2.26-3.85,1.22-5.54-1.23-3.46-.58-6.71-.92-9.7-1.34,13.15,.39,26.02,1.18,38.57,4.3,1.99,.5,3.5,2.93,5.2,4.75-.84,1.38-1.64,2.47-2.44,3.56-15.39-.56-30.79-1.68-46.17-1.53-17.25,.16-34.52,1.2-51.17,6.58-2.16,.7-4.53,1.01-6.81,1.07-22.84,.58-45.68,1.59-68.51,1.37-11.03-.11-22.11-2.21-33.05-4.07-12.23-2.08-24.33-4.95-36.5-7.4-1.25-.25-2.6-.08-3.9-.04-9.53,.26-18.97-.29-28.35-2.29-6.58-1.4-13.29-2.33-19.98-3.14-7.82-.94-15.57-1.87-22.89-5.19-2.58-1.17-5.63-1.32-8.78-2l-.04,.03Z"/><path class="cls-6" d="M626.77,1026.05c-1.73-1.54-3.24-3.97-5.24-4.46-12.55-3.12-25.42-3.91-38.83-4.37-1.86-.02-3.19-.06-4.68-.32-3.73-1.87-7.31-3.51-10.88-5.14,0,.01,.03,.01-.13-.26-1.45-.63-2.74-1.25-4.05-1.29-4.35-.14-8.7-.08-13.21-.32-4.72-3.31-9.34-6.33-13.82-9.55-1.29-.93-2.18-2.42-2.94-3.61,1.41,.33,2.5,.62,3.58,.91,5.76,1.58,11.52,3.16,17.28,4.74,0,0-.02-.01,.03,.26,2.89,1.14,5.73,2,8.57,2.87l.07,.29c1.28,.6,2.48,1.14,3.69,1.16,4.43,.1,8.88-.19,13.29,.12,3.16,.22,6.25,1.32,9.41,1.72,5.07,.64,10.17,1.03,15.57,1.55,1.63-.3,2.95-.61,4.27-.91,6.25,3.38,12.54,6.7,18.72,10.2,1.46,.82,2.56,2.27,3.89,3.97-1.49,1.18-3.05,1.81-4.6,2.44h0Z"/><path class="cls-17" d="M277.43,993.03c.21,.13,.4,.27,.77,.8,.66,.75,1.11,1.16,1.56,1.56,.02,.14,.05,.27-.08,.8-2.52,3.57-4.69,6.92-7.3,9.88-2.07,2.35-3.1,6.33-7.5,5.72-3.97-1.63-5.31-8.32-2.18-11.06,2.06-1.8,4.19-3.5,6.76-5.17,1.52,.24,2.79,.85,3.61,.48,1.59-.71,2.92-1.98,4.36-3.01h0Z"/><path class="cls-11" d="M205.32,889.59c-3.9,.71-8.19-1.02-9.72-3.92-.3-.58-.39-1.7-.04-2.12,2.62-3.14,5.37-6.17,8.09-9.23,5.85,5.24,6.61,10.87,1.68,15.27h0Z"/><path class="cls-7" d="M277.43,992.65c-1.44,1.41-2.78,2.67-4.36,3.39-.82,.37-2.08-.24-3.36-.58,.92-1.39,1.92-2.79,3.22-3.81,2.34-1.84,2.1-3.82,.7-5.98-1.03-1.58-2.14-3.11-2.93-4.88,1.56-.29,3.5,.15,4.02-.51,2.15-2.78-.15-7.37-3.62-7.68,3.83-3.58,6.53-7.79,7.57-13.21-.23,10.87-.73,21.89-1.22,33.27h-.02Z"/><path class="cls-11" d="M243.34,862.18c.12-.72,.19-1.58,.36-1.59,3.05-.32,6.82,2.72,6.89,6.31,.03,1.55-1.62,3.95-3.08,4.53-3.8,1.53-6.33-.06-7.74-3.97-.13-.36-.4-.66-.1-.17,1.38-1.83,2.53-3.34,3.67-5.11h0Z"/><path class="cls-7" d="M293.23,948.26c-3.88-1.44-5.29,1.95-7.88,4.01-.61,.34-.77,.52-.9,.74-.22,.12-.41,.28-.87,.68-.45,.72-.6,1.23-.74,1.75-.58,.95-1.15,1.9-2.09,2.76-.56-.27-.76-.45-.95-.63-.23-4,1.32-6.9,4.82-9.08,4.34-2.7,8.41-5.81,12.88-8.7-1.04,2.65-2.37,5.24-3.85,8.15-.15,.31-.42,.31-.42,.31h0Z"/><path class="cls-11" d="M321.32,938.08c-.8-.6-1.6-1.19-2.67-1.98-1.17,2.98-2.28,5.81-3.38,8.63-.46-.09-.92-.18-1.39-.27,0-.99-.06-1.98,.01-2.96,.15-1.93,.38-3.86,.58-5.78-1.91,.48-3.83,.89-5.7,1.48-.55,.17-.95,.84-1.73,1.51-.32,.23-.63,.23-.63,.23l-.03-.24c-.28-.6-.54-.97-.8-1.33,5.04-2.08,10.08-4.17,15.42-5.89,.3,2.44,.31,4.52,.32,6.6h0Z"/><path class="cls-7" d="M265.01,1012.06c4.26,.33,5.29-3.65,7.37-6,2.61-2.96,4.79-6.31,7.34-9.68,.63,.49,1.06,1.16,1.3,2.23-1.51,2.29-2.83,4.18-4.16,6.07-2.01,2.08-3.8,4.46-6.11,6.13-1.47,1.06-3.72,1.06-5.75,1.25h.01Z"/><path class="cls-17" d="M270.82,972.75c3.73,.16,6.03,4.75,3.88,7.53-.51,.66-2.45,.22-4.04,.23-.23-2.58-.17-5.09,.16-7.76Z"/><path class="cls-13" d="M527.31,975.61c-2.68,.87-5.33,1.49-7.91-.78-.88-.78-2.69-.61-4.08-.69-4.86-.29-9.73-.49-14.68-1.1-.08-.37,.12-.58,.12-.58,5.97,.06,11.94,.12,18.49,.39,2.82,.87,5.06,1.52,7.3,2.18,.22,.13,.44,.27,.76,.57h0Z"/><path class="cls-2" d="M626.74,1026.33c1.59-.92,3.14-1.55,4.77-2.48,1.23,.32,2.38,.92,3.64,1.76-2.3,2.76-4.7,5.3-7.36,7.93-1.26-.98-2.27-2.07-3.39-3.41,.7-1.34,1.5-2.43,2.34-3.81h0Z"/><path class="cls-2" d="M901.21,1038.41c-.07,1.71,.02,3.64-.88,4.79-.68,.86-2.63,.73-4.01,1.04-.11-.99-.43-2.01-.28-2.96,.19-1.17,.76-2.29,1.38-3.56,1.31,.1,2.42,.33,3.79,.69h0Z"/><path class="cls-4" d="M321.62,938.1c-.3-2.1-.31-4.18-.31-6.56,2.42-.6,4.84-.9,7.62-1.14-.92,1.7-2.19,3.34-3.8,5.16-.7,.99-1.07,1.81-1.44,2.62-.59-.02-1.18-.04-2.07-.08h0Z"/><path class="cls-2" d="M689.84,1045.49c.58,.46,1.03,.94,1.19,1.49,.4,1.4,.67,2.85,.99,4.27-1.27,.26-3.29,1.12-3.64,.66-.8-1.02-.81-2.68-1.06-4.1-.06-.32,.25-.71,.41-1.33,.64-.5,1.25-.72,2.12-.99h0Z"/><path class="cls-2" d="M655.54,1042.88c.08,.36,.1,.5,.05,.61-.65,1.64-1.3,3.27-1.95,4.9-1.09-.49-2.17-.97-3.26-1.46,.81-1.71,1.62-3.43,2.68-5.27,.96,.24,1.67,.62,2.48,1.22h0Z"/><path class="cls-4" d="M526.45,974.76c-2.14-.39-4.38-1.05-6.83-1.88-2.38-1.79-4.61-3.33-6.69-5.06-.7-.58-1-1.65-1.42-2.78,4.98,2.96,9.91,6.2,14.94,9.72h0Z"/><path class="cls-4" d="M505.49,958.52c-1.81-1.17-4.11-2.27-5.55-4.06-1.73-2.14-2.72-4.88-4.09-7.66,3.14,3.63,6.33,7.56,9.63,11.72h0Z"/><path class="cls-4" d="M566.86,994.26c-3.31-.77-6.75-1.71-10.11-2.89-1.84-.64-3.53-1.68-5.27-2.83,4.51,1.45,8.99,3.21,13.48,4.94,.58,.23,1.21,.34,1.91,.78h0Z"/><path class="cls-11" d="M481.89,937.19c-4.49-.57-9.11-1.46-12.35-5.71,4.05,1.64,8.12,3.55,12.35,5.71Z"/><path class="cls-2" d="M277.17,1004.69c1.01-1.9,2.34-3.79,3.86-5.82,.99,1.44,1.79,3.03,2.6,4.89-2.04,.5-4.09,.72-6.46,.93Z"/><path class="cls-4" d="M608.63,1009.16c-1.19,.58-2.51,.89-4.26,1.02-.63-.38-.82-.57-1.01-.77-1.86-1.12-3.72-2.23-5.76-3.57,3.51,.87,7.2,1.95,11.03,3.32Z"/><path class="cls-4" d="M511.52,964.53c-3-.29-5.57-1.43-5.84-5.26,2.04,1.5,3.91,3.25,5.84,5.26Z"/><path class="cls-15" d="M305.32,937.39c.52,.35,.77,.72,1.05,1.31-.64,.09-1.3-.05-2.15-.53-.19-.34-.2-.66-.2-.66,.34-.04,.69-.07,1.29-.13h.01Z"/><path class="cls-10" d="M279.56,957.68c.43,.08,.63,.25,.95,.59-.29,.41-.69,.66-1.35,.92-.11-.46,.02-.93,.39-1.51h0Z"/><path class="cls-10" d="M302.23,938.23c-.15,.25-.54,.44-1.16,.66,.16-.22,.53-.47,1.16-.66Z"/><path class="cls-4" d="M551.43,988.01c-.38,.16-.86,.06-1.53-.22,.35-.13,.89-.08,1.53,.22Z"/><path class="cls-10" d="M303.82,937.48c.2,.03,.22,.35,.21,.51-.15,.16-.29,.15-.65,.14-.07-.24,.08-.46,.43-.65h.01Z"/><path class="cls-2" d="M879.7,1067.9c-1.12,1.39-2.25,2.76-3.69,3.59-.43,.25-2.56-1.17-2.48-1.51,.37-1.62,1.22-3.13,2.13-5.22,1.74,1.29,2.83,2.09,4.04,3.13h0Z"/><path class="cls-2" d="M750.82,1051.36c-.83-1.61-1.56-3.07-1.83-4.61-.04-.24,2.23-1.45,3.04-1.14,1.1,.41,1.82,1.84,2.7,2.84-1.22,1.01-2.43,2.03-3.91,2.92h0Z"/><path class="cls-2" d="M801.4,1067.67c-1.66,.62-3.21,1.22-4.74,1.16-.38-.01-1.2-2.34-.87-3.26,.31-.88,2.44-2.07,2.77-1.82,1.21,.93,2,2.4,2.84,3.93h0Z"/><path class="cls-2" d="M825.05,1072.51c1.68,1.83,3.03,3.94,.34,5.14-1.37,.61-3.57-.63-5.39-1.04-.06-.67-.11-1.34-.17-2.02,1.66-.75,3.32-1.5,5.22-2.09h0Z"/><path class="cls-2" d="M852.27,1056.41c1.07,2.69,1.31,5.03-2.14,5.31-.85,.07-2.2-.97-2.59-1.83-.38-.84-.17-2.75,.4-3.06,1.15-.62,2.72-.48,4.33-.43h0Z"/><path class="cls-2" d="M866.34,1054c-.78-1.23-1.32-2.29-1.87-3.35,.19-.4,.37-.81,.56-1.21,1.89,.37,3.86,.56,5.6,1.29,.3,.12-.12,2.7-.74,3.84-.2,.36-2.16-.24-3.54-.56h-.01Z"/><path class="cls-2" d="M736.44,1046.66c.31,2.77-.78,4.54-3.32,3.97-.98-.22-1.75-2.36-2.12-3.76-.14-.51,1.22-2.04,1.79-1.98,1.22,.12,2.37,.97,3.66,1.78h0Z"/><path class="cls-2" d="M737.02,1029.38c3.23,.2,2.56,2.44,2.05,3.97-.27,.82-2.13,1.86-2.86,1.61-1.09-.37-1.81-1.8-2.69-2.78,1.08-.92,2.15-1.83,3.49-2.79h.01Z"/><path class="cls-5" d="M894.13,1076.36c-1.16,1.34-2.25,2.66-3.66,3.33-.4,.19-2.5-1.58-2.44-2.34,.11-1.47,1.21-2.86,1.9-4.28,.34,.12,.68,.25,1.02,.37,.2,.8,.4,1.6,.65,2.58,.43-.7,.75-1.21,1.23-2.01,.48,.81,.86,1.44,1.3,2.33v.02Z"/><path class="cls-2" d="M784.41,1045.86c-1.8-.21-3.46-.56-5.01-1.19-.13-.05,.14-2.29,.79-2.81,.81-.65,3.08-.98,3.2-.74,.65,1.39,.84,2.99,1.02,4.74Z"/><path class="cls-2" d="M752.94,1061.34c1.32-.97,2.55-1.96,3.88-2.15,.44-.06,1.92,2.3,1.62,2.89-.59,1.17-2.1,1.88-3.22,2.78-.78-1.07-1.55-2.15-2.28-3.52Z"/><path class="cls-2" d="M641.31,1037.81c2.6-.56,4,.59,4.03,2.83,.01,.99-1.07,2.78-1.73,2.82-1.17,.07-3.1-.68-3.42-1.56-.39-1.08,.54-2.63,1.12-4.1h0Z"/><path class="cls-5" d="M930.73,1056.17c-3.5-2.79-1.55-4.57,1.54-6.79,.84,1.65,1.97,3.14,2.19,4.76,.07,.53-2.23,1.39-3.73,2.03Z"/><path class="cls-5" d="M776.58,1069.21c.81,1.42,1.36,2.86,1.92,4.3-1.23,.41-2.52,1.22-3.69,1.09-.78-.09-1.41-1.53-2.11-2.36,1.21-1,2.42-2,3.88-3.03Z"/><path class="cls-2" d="M858.73,1072.46c-1.41,.02-2.58,.03-3.75,.05,.17-1.68,.34-3.36,.51-5.05,1.24,.38,2.67,.48,3.67,1.19,1.61,1.15,2.02,2.64-.43,3.81Z"/><path class="cls-2" d="M760.89,1034.98c-1.19,3.32-3.49,2.2-5.08,1.21-.55-.35-.4-3.4,.37-3.99,2.88-2.2,3.95,.18,4.71,2.78Z"/><path class="cls-2" d="M791.71,1053.05c1.13,1.31,2,2.56,2.87,3.82-1.63,.61-3.26,1.23-5.18,1.95-.85-2.88-1.19-4.99,2.31-5.77h0Z"/><path class="cls-2" d="M820.49,1056.03c-.46,2.37-1.38,3.94-3.97,3.11-2.42-.78-1.69-2.57-1.12-4.1,.26-.71,1.43-1.79,1.65-1.68,1.22,.63,2.28,1.58,3.44,2.67h0Z"/><path class="cls-2" d="M829.72,1062.12c-3.96-.33-4.53-1.6-2.36-5.27,.32,.68,.55,1.17,.95,2.01,.25-.97,.43-1.69,.63-2.45,4.28,2.89,4.35,3.34,.77,5.71h0Z"/><path class="cls-2" d="M712.48,1047.36c.53,1.39,.81,2.78,1.09,4.16-.29,.15-.58,.31-.87,.46-1.18-1.9-5.34,1.2-4.84-3.22,.34-3.04,2.59-1.91,4.63-1.4h-.01Z"/><path class="cls-2" d="M888.77,1054.7c1.51,.3,3.09,.33,3.97,1.14,.57,.52,.11,2.17,.11,3.57-2.01-.56-3.47-.97-5.29-1.48,.29-.93,.64-2.04,1.22-3.22h0Z"/><path class="cls-1" d="M372.04,1003.2c5.91,1.32,11.88,2.4,17.69,4.05,2.73,.77,5.14,2.64,7.56,4.21-2.7,.19-5.25,.18-7.88-.12-3.49-.99-6.9-1.7-10.61-2.5-1.35-.14-2.4-.2-3.45-.25,0,0-.03,.01-.01-.21-.26-.57-.53-.91-.81-1.25,0,0-.02-.03-.15-.28-1.16-.41-2.19-.57-3.22-.73-3.85-.64-7.8-.95-11.54-1.99-4.34-1.21-7.33,.48-7.84,5.11-.52,4.64-6.35,7.46-11.82,5.3,.92-.41,1.5-.8,2.13-.91,4.19-.75,6.89-3.56,7.4-7.79,.02-.13-.04-.31,.02-.38,3.56-4.12-.58-6.1-2.35-8.83-1.26-1.94-2.12-4.13-2.88-6.48,1.12,.26,1.96,.78,2.91,1.49,2.47,1.82,5.46,2.99,7.08,5.17,3.81,5.16,9.35,5.4,14.76,6.36,0,0,.02,0,.11,.23,1.03,.09,1.98-.06,2.93-.2h-.03Z"/><path class="cls-1" d="M488.18,1019.48c3.58-1.22,7.08-2.76,10.75-3.6,7.12-1.64,14.28-3.18,21.5-4.22,4.84-.7,9.81-.47,15.44-.65,2.81,.06,4.9,.12,7.28,.31,8.2,.24,16.11,.35,24.02,.45,0,0-.02,0,.01,.25,1.85,1.88,3.67,3.5,5.17,5.12-5.08-.38-9.85-.75-14.75-1.31-2.36,.05-4.58,.29-6.79,.32,.71-.69,1.41-1.16,2.1-1.63-.07-.33-.13-.66-.2-1-5.89,0-11.77,0-18.02-.05-4.46-.08-8.56-.3-12.63-.02-1.47,.1-2.85,1.42-4.26,2.2,.02,0-.01-.02-.24-.1-1.64,.5-3.06,1.08-4.47,1.66,.01,0-.02-.02-.22-.05-.34-.03-.47-.03-.9,.05-8.13,.81-15.97,1.53-23.81,2.26h.02Z"/><path class="cls-15" d="M437.11,998.53c-8.41-1.48-16.78-3.61-25.25-4.24-6.79-.5-12.19-3.89-18.23-5.95-2.82-.96-6-.9-9.89-1.42,1.53-.71,2.29-1.06,2.94-1.37-1.94-1.24-3.86-2.48-5.86-3.99-.07-.27-.03-.32,.25-.26,3.5,1.57,6.71,3.08,10.05,4.76,.38,.27,.64,.36,1.14,.34,1.3-.28,2.36-.43,3.42-.59,0,0-.02,.09-.01,.39,.3,.87,.6,1.44,1.17,2.08,7.61,1.98,14.91,4.06,22.28,5.78,5.11,1.2,10.35,1.88,15.51,2.89,.94,.19,1.79,.88,2.63,1.4-.05,.06-.15,.18-.15,.18h0Z"/><path class="cls-1" d="M323.6,968.72c-1-1.69-2.11-3.33-2.98-5.09-.71-1.42-1.13-2.97-1.42-4.79,.61-.34,.94-.35,1.28-.36,1.68,1.39,3.35,2.77,5.32,4.6,2.36,3.79,4.01,7.52,6.63,10.35,2.4,2.61,4.16,5.04,3.81,8.65-3.9-4.04-7.79-8.08-11.88-12.53-.34-.61-.53-.75-.76-.84h0Z"/><path class="cls-1" d="M417.01,1017.88c.2-.32,.45-.93,.6-.9,6.91,.97,14.22-.83,20.76,3,.91,.53,2.26,.43,3.41,.44,9.2,.08,18.41,.14,27.61,.11,1.07,0,2.14-.59,3.43-.69-.01,.79-.24,1.36-.83,1.98-12.7-.18-25.05-.3-37.39-.71-4.63-.16-9.25-1-13.87-1.54,0,0-.01,.03-.05-.27-1.25-.67-2.47-1.05-3.68-1.42h0Z"/><path class="cls-16" d="M420.78,1019.85c4.59,.26,9.2,1.1,13.83,1.26,12.34,.42,24.69,.53,37.42,.99,.41,.41,.43,.59,.44,.78,0,0,.07,.23-.3,.4-4.88,.43-9.38,.7-14.1,.88-1.34-.26-2.48-.42-3.94-.61-4.77-.53-9.2-1.28-13.66-1.46-3.47-.14-6.97,.43-10.45,.69-1.08-.48-2.16-.96-4.22-1.87,.66,2.97,1.1,4.94,1.37,7.11-2.23-2.5-4.3-5.19-6.4-8.16h.01Z"/><path class="cls-18" d="M369.02,1002.89c-5.42-.67-10.96-.91-14.77-6.07-1.61-2.19-4.61-3.35-6.76-5.18,.84-.22,1.47-.24,2.1-.26,5.88,2.8,11.79,5.54,17.6,8.48,.86,.43,1.25,1.81,1.84,3.04h-.01Z"/><path class="cls-18" d="M472.68,1022.64c-.23,.05-.25-.13-.29-.6,.2-.85,.43-1.42,.72-2.21,4.81-.25,9.57-.27,14.7-.32,8.22-.75,16.06-1.48,24.31-2.11,.62,.29,.83,.48,.91,.88-.57,1.08-1.01,1.94-1.45,2.8-.68-.05-1.35-.09-2.56-.02-3.75,.11-6.98,0-10.2,.14-3.16,.15-6.31,.59-9.46,.9-5.52-1.34-11.03-2.13-16.68,.54h0Z"/><path class="cls-15" d="M349.39,991.18c-.43,.21-1.06,.23-2,.26-1.16-.51-2-1.03-3.09-1.6-.25-.04-.28-.06-.29-.31-.55-.54-1.09-.83-1.63-1.12-1.96-1.97-3.92-3.94-6-6.12,.23-3.82-1.53-6.25-3.94-8.86-2.61-2.84-4.26-6.57-6.42-10.21,4.49,4.06,9.93,7.77,11.05,14.71,.1,.63,.18,1.41,.58,1.81,3.81,3.79,7.69,7.51,11.75,11.44h0Z"/><path class="cls-16" d="M530.97,1004.86c-1.56-1.73-3.09-3.48-4.7-5.16-.94-.98-2.04-2.65-3.01-2.61-4.82,.2-9.94,0-14.36,1.59-4.42,1.59-8.64,2.36-13.75,1.94-1.95-.31-3.34-.41-4.74-.54-2.88-.26-5.76-.53-8.63-.8,0-.01,.01-.03,.38-.04,6.35-.01,12.34,.13,18.32-.1,2.24-.09,4.89-.48,6.57-1.76,2.66-2.03,5.41-2.12,8.39-2.08,2.6,.04,5.2-.02,8.09-.01,.87,.03,1.45,.04,2.1,.3,1.37,1.89,2.67,3.52,3.98,5.42,.55,1.4,1.09,2.52,1.56,3.69-.07,.05-.2,.16-.2,.16h0Z"/><path class="cls-1" d="M414.28,1019.52c-4.45-1.45-8.88-2.96-13.35-4.33-2.07-.64-4.23-1.02-6.32-1.86,1.71-.49,3.4-.64,5.08-.79,4.53,.89,9.09,1.69,13.58,2.76,.96,.23,1.68,1.47,2.63,2.49,.12,.25,.12,.24-.09,.34-.65,.53-1.1,.96-1.55,1.39h.02Z"/><path class="cls-7" d="M310.36,1004.02c-2.07,.28-4.14,.55-6.61,.88,.03-.51,.07-1.27,.37-2.38,.45-.51,.61-.7,.74-.92,5.18,.75,7.77-2.95,10.53-6.38,.35,.15,.7,.29,1.05,.44-.46,1.78-.93,3.57-1.61,5.66-.22,.3-.49,.4-.49,.4-.75,.59-1.5,1.17-2.61,2-.7,.27-1.03,.29-1.36,.32v-.02Z"/><path class="cls-7" d="M402.74,1025.87c-.77,.28-1.37,.38-2.43,.59-1.59-.13-2.72-.37-3.85-.62,2.38-1.48,4.67-3.14,7.18-4.35,1.18-.57,2.77-.28,4.17-.38-.57,1.16-1.13,2.32-2.09,3.73-.73,.27-1.06,.29-1.39,.32-.47,.17-.94,.35-1.58,.71h-.01Z"/><path class="cls-15" d="M459.1,999.25c-5.35,.51-10.7,1.22-16.06,1.44-1.88,.08-3.81-1.05-5.83-1.89-.1-.27,0-.39,.36-.36,4.66-.13,8.95-.38,13.25-.43,2.76-.03,5.52,.25,8.28,.6v.64Z"/><path class="cls-16" d="M459.36,999.44c-.26-.33-.26-.47,.11-.8,7.16-.2,13.96-.2,20.99-.17,.6,.29,.98,.53,1.35,.77,0,0,0,.02-.29,.04-1.13,.26-1.98,.51-2.83,.76-6.35-.14-12.71-.27-19.32-.6h0Z"/><path class="cls-10" d="M478.86,1000.29c.67-.5,1.52-.74,2.65-1,3.16,.26,6.03,.53,8.91,.78,1.39,.12,2.79,.23,4.46,.51-5.1,.09-10.47,.02-16.02-.3h0Z"/><path class="cls-10" d="M333.16,949.94c4.31,.51,5.82,3.97,7.36,7.45-.56,.22-.9,.16-1.24,.11-.09-.14-.19-.26-.53-.71-1.01-.69-1.8-1.05-2.6-1.4l-.09-.16c-.25-.37-.45-.53-.7-.62l-.09-.16c-.25-.37-.45-.53-.7-.62l-.11-.23c-.52-1.37-.92-2.51-1.32-3.64l.02-.02Z"/><path class="cls-15" d="M399.5,1012.36c-1.49,.33-3.17,.48-5.09,.81-4.64-.13-9.04-.45-13.54-1.08-.09-.32-.02-.39,.33-.38,3-.02,5.64-.05,8.29-.07,2.55,.01,5.11,.03,7.99,0,.83,.15,1.32,.35,2.02,.72h0Z"/><path class="cls-6" d="M371.91,975.57c-3.57-2.12-7.14-4.24-10.51-6.55,2.43,.56,4.65,1.3,6.88,2.04,0,0-.01-.02,.04,.18,.28,.33,.51,.47,.75,.61,0,0-.01-.02,0,.24,1.05,1.13,2.08,2.01,3.11,2.89l-.08,.14c-.08,.15-.19,.46-.19,.46h0Z"/><path class="cls-13" d="M368.25,970.79c-2.2-.47-4.42-1.21-6.93-2.04-1.81-.91-3.34-1.73-4.91-2.79,1.13-.13,2.32-.03,3.98,.27,.86,.43,1.24,.67,1.61,.9l.09,.15c.23,.35,.42,.47,.66,.53,1.46,.47,2.93,.95,4.71,1.29,.32-.13,.5-.18,.5-.18,.09,.53,.17,1.06,.29,1.87h0Z"/><path class="cls-16" d="M342.49,959.54c2.51,.85,5.08,1.96,7.72,3.34-2.51-.85-5.08-1.96-7.72-3.34Z"/><path class="cls-10" d="M304.04,967.41c-2.77-.92-2.03-2.54-.21-4.33,.15,1.42,.3,2.85,.21,4.33Z"/><path class="cls-16" d="M542.87,1011.18c-2.09-.06-4.18-.12-6.62-.2-.38-.35-.42-.67-.45-1.28,.02-.28,.07-.34,.42-.33,2-.03,3.65-.07,5.5-.04,.52,.32,.85,.57,1.17,1.08,0,.43,0,.6-.01,.77h0Z"/><path class="cls-15" d="M375.38,1008.89c1.01-.23,2.06-.18,3.49,.17,.65,.82,.92,1.35,1.16,1.91-.03,.03-.09,.1-.09,.1-1.51-.63-3.02-1.26-4.56-2.18h0Z"/><path class="cls-16" d="M535.79,1009.46c-3.08,.4-4.39-1.25-4.77-4.32-.05-.29,.08-.4,.36-.29,1.68,1.57,3.09,3.04,4.49,4.51,0,0-.05,.06-.08,.1h0Z"/><path class="cls-10" d="M291.99,1001.07c.83-.18,1.61-.13,2.4-.08-.25,.63-.5,1.26-.74,1.9-.57-.53-1.13-1.06-1.65-1.81h-.01Z"/><path class="cls-10" d="M320.36,958.26c-.21,.23-.55,.24-1.14,.27-1-.91-1.75-1.84-2.5-2.77,.37-.28,.75-.55,1.12-.83,.8,1.04,1.6,2.08,2.52,3.33h0Z"/><path class="cls-1" d="M323.72,938.46c.34-1.09,.7-1.9,1.29-2.66,.22,.06,.28,.08,.22,.35-.79,1.97-.64,3.25,1.51,3.59,0,0,0,.37-.18,.56s-.53,.2-.53,.2c-.76-.59-1.52-1.18-2.31-2.03h0Z"/><path class="cls-15" d="M376.98,978.82c1.11,.48,2.21,.95,3.53,1.76,.22,.33,.27,.66,.27,.66,0,0-.04,.05-.06,.07-1.64-.65-3.27-1.33-4.82-2.2,.4-.23,.74-.26,1.08-.29h0Z"/><path class="cls-10" d="M396.35,1026c1.24,.08,2.37,.33,3.79,.61-1.2,.17-2.69,.3-4.34,.24,.03-.36,.24-.53,.55-.86h0Z"/><path class="cls-16" d="M416.76,1017.93c1.46,.33,2.68,.71,3.94,1.37-1.32,.06-2.69-.17-4.36-.64-.3-.25-.31-.63-.31-.63h0c.16-.01,.33-.03,.73-.1h0Z"/><path class="cls-10" d="M297.99,972.13c.74,.2,1.32,.53,1.89,.86-.23,.25-.46,.51-.69,.76-.46-.5-.91-.99-1.2-1.62Z"/><path class="cls-16" d="M333.04,949.76c.52,1.31,.92,2.45,1.44,3.82-2.9,.19-2.2-2.05-2.26-4.16,.25-.16,.48,0,.82,.34h0Z"/><path class="cls-1" d="M328.35,946.3c.58-.18,1.22-.15,2.05,.3,.12,.82,.06,1.23,0,1.65-.66-.57-1.32-1.15-2.05-1.94h0Z"/><path class="cls-15" d="M311.03,945.3c-.76-.88-1.52-1.75-2.28-2.92,0-.3,.13-.41,.13-.41,.77,.87,1.54,1.75,2.27,2.94-.04,.31-.11,.4-.11,.4h-.01Z"/><path class="cls-16" d="M339.34,957.8c.29-.24,.63-.18,1.23-.13,.78,.36,1.31,.74,1.86,1.37-1-.14-2.02-.54-3.09-1.23h0Z"/><path class="cls-10" d="M313.17,978.55c.36-.4,.8-.6,1.24-.79l.3,.98c-.49,0-.97,0-1.54-.19h0Z"/><path class="cls-15" d="M371.38,1006.32c.8-.03,1.83,.13,2.97,.52-.84,.05-1.79-.14-2.97-.52Z"/><path class="cls-10" d="M308.83,951.41c0,.5-.13,.85-.27,1.2-.31-.31-.62-.61-.92-.92,.35-.14,.7-.28,1.2-.28h-.01Z"/><path class="cls-16" d="M336.22,955.65c.72,.08,1.51,.44,2.44,1.05-.7-.09-1.53-.43-2.44-1.05Z"/><path class="cls-10" d="M307.63,955.1c.25-.32,.56-.46,.88-.61,.12,.33,.24,.67,.36,1-.39-.07-.78-.15-1.24-.39Z"/><path class="cls-15" d="M308.68,942.13c-.53-.59-1-1.24-1.48-2.15-.01-.26,.03-.3,.03-.3,.53,.59,1.07,1.17,1.63,2.02,.02,.26-.1,.37-.17,.43h0Z"/><path class="cls-18" d="M371.74,1003.19c-.65,.16-1.59,.31-2.62,.23,.72-.23,1.52-.24,2.62-.23Z"/><path class="cls-13" d="M376.84,978.6c-.2,.25-.54,.27-1.12,.33-.55-.41-.86-.84-1.19-1.55,.71,.15,1.44,.58,2.31,1.22Z"/><path class="cls-1" d="M328.3,942.1c-.4,.44-.8,.89-1.41,1.43-.37-.28-.54-.66-.49-1.26,.52-.23,.82-.24,1.31-.22,.19,.02,.58,.06,.58,.06h.01Z"/><path class="cls-10" d="M292.66,956.59c-.35,.13-.63,.1-.92,.07,.08-.23,.15-.45,.23-.68,.25,.15,.5,.3,.69,.61Z"/><path class="cls-1" d="M342.42,988.65c.49,.06,1.03,.35,1.56,.9-.51-.05-1.01-.35-1.56-.9Z"/><path class="cls-10" d="M283.01,955.28c-.03-.35,.11-.87,.47-1.43,.04,.39-.12,.83-.47,1.43Z"/><path class="cls-13" d="M372.13,975.78c-.22-.21-.12-.53-.04-.67,.63,.21,1.19,.57,1.84,1.17-.46,.07-1.02-.11-1.8-.5Z"/><path class="cls-10" d="M304.99,999.89c-.19,.13-.37,.15-.55,.17,.01-.1,.01-.29,.03-.29,.18-.02,.35,0,.51,.12h0Z"/><path class="cls-8" d="M327.53,942.03c-.3,0-.6,.02-1.12,.03-.29-.34-.35-.69-.39-1.3,.02-.26,.37-.27,.55-.28,.17,0,.22,.02,.31,.23,.28,.58,.47,.95,.65,1.32h0Z"/><path class="cls-10" d="M415.83,1018.13c.21-.1,.21,.27,.22,.46-.41,.43-.84,.67-1.52,.92,.19-.42,.64-.85,1.29-1.38h0Z"/><path class="cls-12" d="M351.31,962.03c-.12-.54-.12-1.09-.12-1.65,.13,0,.26-.02,.4-.03,.05,.4,.1,.79,.13,1.44-.03,.25-.28,.22-.4,.23h-.01Z"/><path class="cls-10" d="M302.82,976.99c-.03,.21-.14,.34-.26,.47-.07-.08-.15-.15-.22-.23,.13-.11,.26-.22,.48-.24Z"/><path class="cls-10" d="M298.12,970.36c-.22-.06-.36-.19-.49-.33,.19,.08,.39,.17,.49,.33Z"/><path class="cls-10" d="M279.71,995.14c-.4-.16-.85-.56-1.4-1.18,.39,.17,.87,.55,1.4,1.18Z"/><path class="cls-12" d="M352.8,963.91c-.07-.46,.06-.9,.19-1.34,.13,.31,.26,.63,.4,1.13-.13,.2-.26,.21-.59,.21Z"/><path class="cls-10" d="M325.25,983.64c-.21-.02-.34-.13-.46-.24,.07-.07,.15-.15,.22-.22,.11,.13,.22,.25,.24,.46h0Z"/><path class="cls-10" d="M301.43,974.17c0,.07-.23,0-.23,0,0,0,.23-.07,.23,0Z"/><path class="cls-15" d="M374.54,1007.37c.26,.12,.53,.46,.8,1.02-.26-.12-.52-.46-.8-1.02Z"/><path class="cls-10" d="M404.46,1025.28c.2-.15,.53-.18,1.11-.21-.16,.1-.57,.22-1.11,.21Z"/><path class="cls-10" d="M315.79,968.97c.07,0,0,.23,0,.23,0,0-.07-.23,0-.23Z"/><path class="cls-10" d="M323.54,968.84c.29-.04,.48,.11,.69,.47-.21,0-.48-.18-.69-.47Z"/><path class="cls-16" d="M330.66,948.29c-.21-.45-.15-.87-.05-1.59,.31,.15,.57,.62,.86,1.35-.17,.27-.35,.28-.81,.24h0Z"/><path class="cls-10" d="M310.49,1004.14c.2-.15,.53-.18,1.11-.21-.16,.1-.57,.22-1.11,.21Z"/><path class="cls-10" d="M307.7,982.79c0,.07-.23,0-.23,0,0,0,.23-.07,.23,0Z"/><path class="cls-15" d="M311.91,945.96c.24,.1,.44,.26,.68,.64,.08,.18,.04,.22,.04,.22-.25-.1-.45-.25-.68-.65-.07-.19-.04-.22-.04-.22h0Z"/><path class="cls-15" d="M311.86,946.01c-.25-.08-.45-.22-.73-.56-.11-.15-.04-.23,0-.27,.25,.09,.43,.26,.68,.62,.09,.16,.06,.19,.04,.21h.01Z"/><path class="cls-15" d="M306.5,939.11c-.08-.17,.23-.17,.39-.17s.26,.37,.3,.56c.04,.19,0,.22-.02,.24-.25-.1-.43-.26-.66-.63h-.01Z"/><path class="cls-10" d="M314.4,1001.77c-.07-.07,.2-.16,.34-.19,.1,.22-.04,.32-.34,.19Z"/><path class="cls-10" d="M304.7,1001.7c.03,.12-.13,.31-.48,.58-.04-.12,.12-.31,.48-.58Z"/><path class="cls-16" d="M334.68,953.99c.16-.07,.36,.08,.61,.45-.16,.08-.37-.07-.61-.45Z"/><path class="cls-16" d="M335.46,954.77c.16-.07,.36,.08,.61,.45-.16,.08-.37-.07-.61-.45Z"/><path class="cls-10" d="M293.27,948.36c-.04-.11,.23-.1,.36-.11s-.04,.26-.04,.26c0,0-.29-.04-.33-.15h.01Z"/><path class="cls-16" d="M331.56,948.49c.12-.02,.33,.13,.62,.46-.16,.08-.37-.07-.62-.46Z"/><path class="cls-15" d="M312.69,946.76l.25,.19s-.22,0-.26-.06c-.04-.07,0-.11,.01-.13Z"/><path class="cls-10" d="M284.61,952.92c-.03-.12,.13-.31,.49-.55,.03,.12-.14,.3-.49,.55Z"/><path class="cls-15" d="M380.74,1011.81c-.25-.09-.43-.25-.7-.59-.1-.15-.05-.22,.14-.15,.38,.23,.54,.41,.66,.63,0,0-.07,.07-.1,.11h0Z"/><path class="cls-6" d="M482.17,999.23c-.74-.24-1.11-.48-1.82-1.04-2.92-.91-5.48-1.82-8.1-2.04-12.33-1.02-24.84,1.92-37.07-2.27-5.08-1.74-10.58-2.26-15.86-3.43-6.64-1.47-13.26-3.05-19.62-4.8,3.43-.34,6.61-.34,9.76-.65,1.18-.12,2.3-.94,3.45-1.44l.33,.03c1.88-.13,3.51-.03,4.96-.5,10.49-3.36,20.98-2.27,31.5-.31l.06,.28c3.94,1.14,7.82,2,11.7,2.85,0,0-.02-.01,.06,.28,1.52,.6,2.98,1.19,4.43,1.17,13.71-.19,27.41-.51,41.12-.7,1.76-.02,3.52,.52,5.28,.81l.05,.27c1.07,.62,2.08,.96,3.1,1.3,0,0-.02-.01,.05,.28,1.2,.62,2.34,.96,3.48,1.29,0,0,.24,.24,.31,.61,1.37,1.08,2.68,1.8,3.98,2.52l-.04,.25c-.03,.58-.03,.92-.02,1.25-2.6,.02-5.2,.08-7.8,.04-2.98-.04-5.72,.05-8.39,2.08-1.68,1.28-4.33,1.67-6.57,1.76-5.98,.23-11.97,.09-18.32,.1h0Z"/><path class="cls-13" d="M512.4,987.24c-1.81-.02-3.57-.57-5.33-.55-13.71,.19-27.41,.51-41.12,.7-1.45,.02-2.91-.57-4.44-1.17,15.74-.65,31.56-1,47.38-1.34v-.57c-7.23,0-14.45,.04-21.68-.03-1.5-.01-3.01-.44-4.59-1.04-.08-.37,.12-.59,.12-.59,5.7,.04,11.41-.11,17.09,.16,7.19,.35,14.36,1.03,21.53,1.63,.57,.05,1.1,.59,1.77,1.22,.12,.31,0,.43,0,.43-3.08-.1-6.16-.26-9.24-.25-.49,0-.98,.75-1.52,1.42l.03-.02Z"/><path class="cls-1" d="M387.83,961.65c1.95,3.65,5.85,2.76,8.65,2.8,2.53,.03,4.64,.07,6.45,1.71,3.04,2.74,6.61,1.82,10.42,1.97,.33,.33,.34,.46,.34,.6-2.89,1.09-5.76,2.23-8.67,3.26-.96,.34-2.22,.82-3,.48-5.56-2.46-11.04-5.12-16.53-7.74-.31-.15-.47-.59-.71-.91,.71-.6,1.38-1.17,2.17-1.94l.12-.2h.59c.2,0,.19,0,.19,0l-.02-.03Z"/><path class="cls-1" d="M542.89,1010.16c-.33-.25-.65-.5-1.3-1.05-4.21-2.99-8.1-5.69-12-8.38-1.3-1.63-2.59-3.25-3.69-5.23,.96-.55,1.71-.75,2.46-.95,0,0,.01,0,.15,.22,.68,.58,1.22,.95,1.86,1.41,.34,.04,.57-.02,1.02-.07,.57,.2,.92,.38,1.28,.57,1.07,1.23,1.96,2.73,3.26,3.66,4.48,3.22,9.1,6.24,13.47,9.58-2.31,.25-4.42,.25-6.53,.25h.02Z"/><path class="cls-13" d="M449.68,982.5c-10.49-1.67-20.99-2.75-31.48,.61-1.45,.46-3.08,.36-4.96,.5,1.63-.78,3.61-1.5,5.56-2.29,5.14-2.1,10.27-4.23,15.73-6.34,.33,0,.44,.11,.44,.11-1.62,1.3-3.25,2.6-5.14,4.12,5.5,.41,10.69,.7,15.84,1.26,1.37,.15,2.66,1.13,4.01,2.03Z"/><path class="cls-13" d="M603,1009.43c.55,.18,.74,.37,1.06,.73-4.96-.33-10.07-.72-15.14-1.36-3.16-.4-6.25-1.5-9.41-1.72-4.41-.3-8.86-.01-13.29-.12-1.21-.03-2.41-.56-3.69-1.16,4.59-.31,9.26-.35,13.93-.34,4.5,.01,8.82,.06,13.27,1.92,3.91,1.64,8.58,1.44,13.27,2.04h0Z"/><path class="cls-13" d="M529.64,988.98c6.31,1.06,12.64,1.99,18.92,3.22,3.62,.71,7.15,1.9,10.71,2.88-.12,.44-.23,.88-.35,1.31-7.06-1.59-14.13-3.18-21.19-4.78-2.69-.61-5.39-1.23-8.14-2.18-.06-.33,.05-.45,.05-.45h0Z"/><path class="cls-13" d="M482.45,982.97c-3.36-.92-6.61-2.01-9.9-2.96-1.09-.32-2.31-.49-3.43-.37-5.41,.55-9.76-1.8-13.94-5.12-.03-.31,.07-.41,.07-.41,5.35,2.55,10.73,4.33,16.92,4.24,3.44-.05,6.92,2.41,10.48,4.02,.1,.28-.1,.5-.2,.61h0Z"/><path class="cls-13" d="M533.01,996.73c-.68-.23-1.03-.42-1.83-.63-.59-.02-.74-.02-.89-.02-.54-.36-1.08-.73-1.76-1.31,3.57,.57,7.34,1.13,10.95,2.21,4.77,1.42,9.42,3.24,14.25,5.15-5.63-1.32-11.39-2.91-17.15-4.48-1.08-.3-2.17-.58-3.58-.91h.01Z"/><path class="cls-12" d="M423.05,971.81c.13-1.13,.36-2.25,.35-3.38,0-1.69-.17-3.38-.26-5.01,2.23,.64,3.58,1.03,5.18,1.39,.24-.03,.25-.02,.25-.02-.68,.99-1.48,1.93-2.01,2.99-.54,1.1-.82,2.34-1.24,3.81-.02,.3-.03,.46-.03,.46l.14-.23c.73,.34,1.46,.67,2.19,1.01-.67,.42-1.46,1.31-1.97,1.17-.82-.22-1.47-1.12-2.38-1.95-.19-.22-.22-.24-.22-.24Z"/><path class="cls-12" d="M381.06,981.3c-.29-.06-.34-.4-.35-.56,1.23-.51,2.74-1.49,3.65-1.09,3.81,1.66,7.44,3.74,11.22,5.92-.97,.41-2.03,.56-3.49,.71-.63-.13-.87-.26-1.11-.38-3.21-1.51-6.43-3.02-9.93-4.59h0Z"/><path class="cls-13" d="M412.54,983.56c-.78,.52-1.9,1.34-3.08,1.46-3.15,.31-6.33,.32-9.98,.68-.77,.27-1.05,.31-1.39,.3-.05-.06-.16-.17-.16-.17,1.3-.76,2.55-2.06,3.91-2.19,3.42-.31,6.89-.1,10.7-.08Z"/><path class="cls-1" d="M377.68,970.25c.7-.57,1.6-1.76,2.06-1.6,1.89,.63,3.65,1.67,5.46,2.56-.08,.43-.15,.86-.23,1.29-1.78-.1-3.55-.2-5.5-.67-.71-.78-1.25-1.17-1.79-1.57h0Z"/><path class="cls-1" d="M354.16,948.35c.74,1.3,1.47,2.6,2.21,3.91-.3,.33-.59,.66-.89,.98-1.71-1.19-3.42-2.39-5.18-4.05-.05-.6-.05-.73-.05-.86,.91-.02,1.81-.05,3.12-.03,.4,.04,.79,.05,.79,.05h0Z"/><path class="cls-13" d="M488.92,968.62c3.87,1.09,7.74,2.18,11.73,3.56,.11,.28-.09,.5-.19,.61-3.92-1.07-7.74-2.26-11.6-3.76-.04-.31,.06-.42,.06-.42h0Z"/><path class="cls-13" d="M461.33,985.68c-3.74-.59-7.62-1.45-11.57-2.59,3.77,.58,7.6,1.46,11.57,2.59Z"/><path class="cls-12" d="M378.47,958.76c.8,.26,1.76,.63,2.3,1.32,.5,.64,.54,1.64,.78,2.46-1.97,.44-2.99-.82-3.08-3.78Z"/><path class="cls-13" d="M562.43,1005.22c-2.81-.57-5.66-1.43-8.55-2.58,2.81,.58,5.66,1.43,8.55,2.58Z"/><path class="cls-13" d="M563.63,996.59c1.24,.29,2.19,.49,3.14,.68-.06,.36-.12,.73-.17,1.09-2.01-.29-4.02-.58-6.03-.87,.04-.41,.09-.82,.13-1.23,.88,.07,1.76,.15,2.93,.32h0Z"/><path class="cls-12" d="M418.44,964.72c.78,.78,1.51,1.75,2.42,2.95h-4.86c1.1-1.26,1.74-2.01,2.44-2.95h0Z"/><path class="cls-13" d="M465.79,955.38c.73,.21,1.14,.4,1.56,.59-.04,.19-.07,.38-.11,.57h-5.9c-.03-.32-.06-.63-.09-.95,1.41-.08,2.81-.16,4.53-.21h0Z"/><path class="cls-13" d="M453.48,972.76c-1.84-.17-3.69-.34-5.53-.51l.16-1.34c1.75,.38,3.5,.77,5.36,1.45,.11,.3,0,.41,0,.41h.01Z"/><path class="cls-12" d="M327.72,942.05c-.38-.39-.56-.76-.82-1.33,1.22-.19,2.52-.19,3.82-.19v1.11c-.64,.15-1.28,.3-2.17,.46-.25,0-.64-.02-.84-.05h.01Z"/><path class="cls-13" d="M477.63,961.9c-1.47-.61-2.94-1.23-4.44-2.19-.03-.34,.17-.56,.17-.56,1.51,.6,3.02,1.21,4.51,2.18-.02,.37-.23,.57-.23,.57h-.01Z"/><path class="cls-13" d="M473.05,959.48c-1.39-.14-2.69-.4-3.99-.65,.05-.37,.11-.74,.16-1.11,1.31,.3,2.62,.6,4.03,1.16,.1,.27-.1,.49-.2,.6h0Z"/><path class="cls-12" d="M374.33,956.34c.33-.15,.48-.13,.86-.11,0,1-.24,2-.47,3-.45-.13-.9-.25-1.34-.38,.26-.78,.52-1.56,.96-2.5h0Z"/><path class="cls-12" d="M326.75,939.45c-2.16-.05-2.31-1.34-1.5-3.28,.55,.84,1.03,1.92,1.5,3.28Z"/><path class="cls-12" d="M358.38,954.44c.03-1.19,1.06-1.05,3.1,.42-1.59-.14-2.27-.2-3.1-.42Z"/><path class="cls-12" d="M421.54,959.43c.43-.11,.86-.22,1.4-.16-.13,1.46,.23,3.55-2.3,1.68-.09-.24,0-.21,.17-.29,.35-.47,.54-.85,.72-1.23h0Z"/><path class="cls-13" d="M523.29,993.48c-1.29-.44-2.59-1.15-3.9-2.17,1.29,.43,2.59,1.16,3.9,2.17Z"/><path class="cls-13" d="M528.12,994.33c-.5,.41-1.25,.61-2.28,.9-.85,.08-1.43,.08-2.3,.05-.3-.36-.31-.69-.27-1.27,1.56-.13,3.08-.01,4.86,.32h0Z"/><path class="cls-12" d="M362.01,966.87c-.39,.02-.77-.21-1.34-.56,.09-.95,.38-1.78,.66-2.61,.48,.2,.95,.39,1.44,.84,.01,.24,.01,.25,.01,.25-.26,.61-.51,1.22-.78,2.09h0Z"/><path class="cls-13" d="M372.21,974.68c-1.06-.59-2.1-1.47-3.15-2.61,1.04,.6,2.12,1.46,3.15,2.61Z"/><path class="cls-12" d="M414.9,975.15c.04,.45-.13,.85-.3,1.24-.35-.23-.7-.46-1.04-.69,.38-.2,.76-.4,1.35-.54h-.01Z"/><path class="cls-12" d="M413.74,968.92c-.06-.34-.06-.47-.06-.81,.47,.18,.94,.57,1.4,.96-.43,.02-.86,.04-1.34-.15Z"/><path class="cls-12" d="M332.9,932.19c.45-.21,.81-.2,1.45-.2-.1,.66-.48,1.33-.85,2-.23-.53-.46-1.05-.6-1.8Z"/><path class="cls-13" d="M518.87,990.37c-.99-.07-2.13-.4-3.34-1.03,1.02,.06,2.11,.41,3.34,1.03Z"/><path class="cls-12" d="M369.94,952.98c-.57,.56-1.18,1.16-1.79,1.77-.24-.29-.47-.58-.71-.87,.66-.29,1.32-.58,2.24-.91,.26-.03,.22,.07,.26,.02h0Z"/><path class="cls-13" d="M445.17,967.31c-.91,.48-1.81,.95-3.01,1.41-.29-.02-.31-.04-.31-.04,0,0,.02-.34,.19-.63,.36-.47,.51-.68,.61-.92,.56-.03,1.13-.05,2.04-.01,.35,.06,.47,.2,.47,.2h.01Z"/><path class="cls-13" d="M396.56,988.21c-.29-.57-.59-1.15-.89-1.97,.56-.29,1.13-.32,1.98-.38,.28-.03,.39,.08,.37,.35-.5,.85-.98,1.42-1.46,2Z"/><path class="cls-13" d="M523.33,985.9c1.01,.31,1.96,.69,2.99,1.34,.09,.28-.03,.4-.03,.4-.97-.36-1.94-.73-3.02-1.33-.11-.24,0-.35,.06-.41h0Z"/><path class="cls-13" d="M484.22,965.49c.95,.37,1.91,.75,2.95,1.4,.09,.28-.01,.39-.01,.39-.99-.36-1.97-.72-3-1.38-.04-.3,.06-.41,.06-.41h0Z"/><path class="cls-13" d="M526.46,987.47c1,.32,1.95,.69,3.03,1.29,.14,.22,.04,.34-.01,.41-1.02-.31-1.99-.67-3.08-1.28-.11-.24,0-.35,.06-.41h0Z"/><path class="cls-12" d="M365.13,951.48c-.12,.84-.24,1.67-.35,2.51-.3-.09-.6-.18-.9-.27,.28-.66,.55-1.32,1.04-2.11,.21-.13,.22-.14,.22-.13h-.01Z"/><path class="cls-13" d="M477.94,961.59c1.03,.3,1.96,.7,2.96,1.39,.08,.28-.03,.39-.03,.39-.98-.34-1.97-.69-3.1-1.25-.15-.22,.06-.42,.17-.53Z"/><path class="cls-12" d="M377.55,970.42c.67,.23,1.21,.63,1.68,1.22-.66-.22-1.23-.64-1.68-1.22Z"/><path class="cls-13" d="M515.38,988.82c-.9-.1-1.92-.44-2.99-1.06,.92,.09,1.9,.45,2.99,1.06Z"/><path class="cls-12" d="M363.13,958.57c-.15-.59-.17-1.05-.19-1.5,.27,.05,.54,.11,.81,.16-.16,.49-.33,.98-.62,1.33h0Z"/><path class="cls-13" d="M457.92,949.13c-.49,.56-.96,.91-1.43,1.25-.15-.26-.3-.52-.46-.78,.63-.23,1.27-.46,1.89-.47h0Z"/><path class="cls-12" d="M419.95,973.39c.63,.19,1.26,.38,1.89,.58-.1,.23-.2,.47-.29,.7-.49-.27-.99-.54-1.54-1.04-.06-.23-.05-.24-.05-.24h-.01Z"/><path class="cls-12" d="M350.25,948.14v.79c-.49-.17-.97-.53-1.5-1.13-.06-.24-.05-.24-.05-.24,.52,.13,1.04,.26,1.56,.59h-.01Z"/><path class="cls-13" d="M481.04,963.19c.76,.33,1.46,.71,2.23,1.36,.07,.27-.03,.37-.03,.37-.73-.37-1.45-.73-2.28-1.33-.1-.23,.02-.34,.08-.4h0Z"/><path class="cls-12" d="M347.29,935.66c-.34,.38-.72,.76-1.1,1.14-.2-.39-.41-.79-.62-1.41,0-.23,0-.3,.23-.21,.63,.25,1.02,.41,1.42,.57,0,0,.02-.08,.06-.08h0Z"/><path class="cls-12" d="M398.18,976.49c.19,.32,.21,.64,.23,.97h-.66c.09-.32,.17-.64,.43-.97Z"/><path class="cls-12" d="M368.17,968.85c-.21,.08-.39,.14-.48,.17,.14-.47,.36-.96,.59-1.46,.26,.17,.52,.35,.78,.52-.23,.23-.45,.46-.89,.78h0Z"/><path class="cls-12" d="M441.1,968.7c-.62-.2-1.24-.39-1.86-.59,.09-.2,.18-.41,.28-.61,.45,.27,.9,.54,1.47,1,.11,.19,.12,.2,.12,.2h-.01Z"/><path class="cls-13" d="M448.84,960.02c.52-.47,1.05-.95,1.57-1.42,.16,.17,.32,.35,.47,.52-.45,.35-.9,.7-1.65,1.03-.29-.03-.39-.13-.39-.13h0Z"/><path class="cls-12" d="M360.02,961.22c-.13-.35-.1-.63-.07-.92,.23,.08,.45,.15,.68,.23-.15,.25-.3,.5-.61,.69Z"/><path class="cls-12" d="M434.02,970.24c.61-.25,1.23-.51,2.11-.76,.27,0,.3,.02,.3,.02-.64,.32-1.29,.64-2.15,.86-.22-.1-.25-.12-.25-.12h0Z"/><path class="cls-13" d="M441.13,969.52c-.57,.53-1.15,1.07-2.04,1.58-.31-.02-.43-.13-.43-.13,.63-.49,1.26-.98,2.16-1.48,.27,0,.31,.03,.31,.03h0Z"/><path class="cls-13" d="M454.65,954.06c-.39,.63-.79,1.25-1.18,1.88-.16-.09-.33-.18-.49-.27,.3-.57,.6-1.14,1.19-1.76,.29-.05,.49,.15,.49,.15h-.01Z"/><path class="cls-13" d="M438.83,971.14c-.27,.49-.61,.92-.94,1.35-.16-.12-.32-.24-.49-.36,.27-.35,.54-.7,1.03-1.11,.22-.05,.34,.06,.4,.12Z"/><path class="cls-12" d="M336.19,933.12c.15,.21,.15,.42,.16,.62h-.35c.02-.21,.03-.41,.19-.62Z"/><path class="cls-13" d="M444.98,967.1c.32-.7,.7-1.33,1.08-1.95,.17,.1,.35,.21,.52,.31-.33,.56-.65,1.11-1.2,1.76-.21,.09-.34-.05-.4-.12h0Z"/><path class="cls-12" d="M359.08,950.17c-.25-.05-.4-.19-.55-.33,.09-.08,.17-.16,.26-.24,.13,.16,.26,.32,.3,.57h-.01Z"/><path class="cls-12" d="M409.73,972.95c-.15-.21-.15-.42-.16-.62h.35c-.02,.21-.03,.41-.19,.62Z"/><path class="cls-12" d="M434.06,970.28c-.26,.35-.54,.7-.82,1.04-.09-.08-.25-.22-.25-.23,.21-.26,.43-.5,.84-.8,.19-.05,.21-.02,.23,0h0Z"/><path class="cls-12" d="M367.33,957.87c.2-.13,.37-.15,.55-.17-.01,.1-.01,.29-.03,.29-.18,.02-.35,0-.51-.12h0Z"/><path class="cls-12" d="M395.51,977.02c-.18,.06-.34,.02-.47-.07-.03-.02,.04-.2,.07-.3,.14,.08,.28,.17,.39,.37h0Z"/><path class="cls-12" d="M442.62,966.96c-.06,.41-.21,.62-.56,.92,.07-.28,.29-.68,.56-.92Z"/><path class="cls-13" d="M454.9,952.76c.25-.28,.5-.57,.75-.85-.03,.32-.06,.63-.31,1.01-.23,.06-.44-.16-.44-.16h0Z"/><path class="cls-12" d="M357.81,960.08c0,.07-.23,0-.23,0,0,0,.23-.07,.23,0Z"/><path class="cls-1" d="M387.07,974.16c.12-.23,.24-.47,.36-.7-.05,.17-.1,.35-.26,.62-.12,.1-.1,.08-.1,.08h0Z"/><path class="cls-12" d="M354.14,948.19c.02,.16-.37,.15-.56,.14,.05-.1,.3-.2,.56-.14Z"/><path class="cls-13" d="M448.28,961c-.2,.32-.4,.64-.6,.96,.02-.3,.04-.61,.27-.99,.22-.07,.33,.03,.33,.03h0Z"/><path class="cls-12" d="M395.21,960.97s.13-.21,.13-.21c0,0-.08,.26-.13,.21Z"/><path class="cls-12" d="M376.45,959.97c.06-.03,.08,.24,.08,.24,0,0-.15-.21-.08-.24Z"/><path class="cls-12" d="M368.7,960.2c-.06,.03-.08-.24-.08-.24,0,0,.15,.21,.08,.24Z"/><path class="cls-12" d="M436.38,969.47l.16-.23s0,.19-.06,.23-.09,.02-.1,0Z"/><path class="cls-13" d="M441.07,969.47s0-.39,.01-.58,0-.19,0-.19c0,0,.38,0,.57-.02,.19,0,.21,.01,.22,.02-.12,.24-.24,.46-.56,.75-.19,.06-.23,.02-.25,0v.02Z"/><path class="cls-13" d="M488.76,968.78c-.29-.05-.49-.2-.69-.62-.04-.22,.07-.32,.07-.32,.24,.1,.44,.25,.69,.62,.1,.16,0,.27-.06,.32h-.01Z"/><path class="cls-13" d="M448.12,960.84c.05-.28,.2-.48,.56-.73,.16-.1,.26,0,.32,.06-.06,.28-.21,.47-.56,.72-.16,.1-.26,0-.31-.06h-.01Z"/><path class="cls-1" d="M387.06,961.65l-.22-.13s.15,.01,.18,.08c.03,.06,.04,.06,.04,.05Z"/><path class="cls-13" d="M487.98,967.99c-.28-.06-.47-.21-.72-.56-.1-.16,0-.26,.06-.31,.28,.05,.48,.2,.73,.56,.1,.16,0,.26-.06,.32h-.01Z"/><path class="cls-12" d="M362.65,967.68c-.13,.08-.32-.05-.56-.4,.12-.05,.3,.09,.56,.4Z"/><path class="cls-1" d="M387.84,961.65l.13-.22s-.02,.15-.08,.18-.06,.03-.05,.04h0Z"/><path class="cls-13" d="M483.4,964.77c.28,.05,.48,.2,.73,.56,.1,.16,0,.26-.06,.32-.28-.06-.47-.21-.72-.56-.1-.16,0-.26,.06-.31h-.01Z"/><path class="cls-12" d="M371.39,962.43l.15-.23s0,.17-.08,.2c-.07,.03-.07,.02-.07,.02h0Z"/><path class="cls-12" d="M363.57,964.79l-.28,.22s-.34-.05-.43-.14l-.08-.09h.79Z"/><path class="cls-12" d="M428.56,964.78l.15-.23s0,.17-.07,.2c-.06,.03-.07,.03-.08,.02h0Z"/><path class="cls-12" d="M363.56,964.78l.15-.23s0,.17-.07,.2c-.06,.03-.07,.03-.07,.02h0Z"/><path class="cls-13" d="M446.89,963.49c.1-.08,.15,.21,.15,.21,0,0-.25-.12-.15-.21Z"/><path class="cls-12" d="M369.04,963.21l.15-.23s0,.17-.07,.2-.08,.02-.08,.02h0Z"/><path class="cls-12" d="M371.4,962.44l-.14,.23s0-.17,.07-.2,.07-.03,.07-.02h0Z"/><path class="cls-12" d="M369.05,963.22l-.15,.23s0-.17,.07-.2c.06-.03,.07-.03,.07-.02h0Z"/><path class="cls-13" d="M452.54,957.24c.08,.1-.19,.17-.19,.17,0,0,.11-.27,.19-.17Z"/><path class="cls-12" d="M411.28,976.5l.2-.22s.01,.21-.07,.23-.13-.01-.13-.01Z"/><path class="cls-12" d="M411.34,976.55l-.17,.23s-.01-.2,.05-.24,.1,0,.12,.01h0Z"/><path class="cls-13" d="M454.35,953.76c-.02-.34,.1-.57,.4-.89,.15-.12,.36,.1,.47,.2,.02,.35-.11,.56-.43,.86-.15,.12-.35-.08-.45-.18h.01Z"/><path class="cls-12" d="M387.07,974.95l.23,.15s-.17-.01-.2-.08-.02-.07-.02-.07h-.01Z"/><path class="cls-12" d="M370.62,956.18l-.15,.23s0-.17,.07-.2,.07-.02,.07-.02h0Z"/><path class="cls-12" d="M370.61,956.17l.14-.23s0,.17-.07,.2c-.06,.03-.07,.03-.07,.02h0Z"/><path class="cls-13" d="M453.64,972.6c.29,.05,.49,.2,.69,.62,.04,.22-.06,.32-.06,.32-.25-.09-.45-.24-.69-.62-.1-.16,0-.27,.06-.32Z"/><path class="cls-12" d="M348.68,947.56l-.23-.14s.17,0,.2,.07c.03,.06,.03,.07,.02,.07h.01Z"/><path class="cls-13" d="M368.98,971.66c-.15,.05-.38-.09-.67-.43,.16-.05,.38,.1,.67,.43Z"/><path class="cls-12" d="M423.09,971.84l-.16,.23s0-.18,.06-.22,.09-.02,.1,0h0Z"/><path class="cls-12" d="M419.94,973.4l-.23-.15s.17,0,.2,.07c.03,.06,.03,.07,.02,.07h.01Z"/><path class="cls-13" d="M435.53,974.11c.15,.03,.29,.06,.27,.09-.17,.01-.27-.09-.27-.09Z"/><path class="cls-13" d="M454.43,973.38c.28,.05,.48,.2,.73,.56,.1,.16,0,.26-.06,.32-.28-.06-.47-.21-.72-.56-.1-.16,0-.26,.06-.31h-.01Z"/><path class="cls-12" d="M387.05,974.96c-.24-.17-.3-.38-.08-.72,.09-.08,.08-.07,.09-.08v.58q0,.2-.01,.21h0Z"/><path class="cls-13" d="M435.68,974.27c-.06,.28-.21,.47-.56,.72-.16,.1-.26,0-.31-.06,.05-.28,.2-.48,.56-.73,.16-.1,.26,0,.32,.06h-.01Z"/><path class="cls-8" d="M347.2,935.54c-.37,.05-.76-.11-1.36-.36,.31,0,.82,.07,1.36,.36Z"/><path class="cls-8" d="M421.35,959.54c0,.27-.18,.65-.53,1.17,0-.27,.17-.66,.53-1.17Z"/><path class="cls-10" d="M458.28,1024.24c4.51-.27,9.02-.53,13.9-.84,3.08-.29,5.78-.58,8.49-.74,.88-.05,2.53,.14,2.56,.39,.35,2.63,.92,5.38,.46,7.91-.36,1.98-.94,4.5-4.36,4.42-10.16-.22-20.33-.09-30.68-.32,.83-1.18,1.84-2.14,3.06-3.15,2.33-2.6,4.45-5.13,6.57-7.67Z"/><path class="cls-9" d="M511.58,1021.45c.44-1.24,.88-2.1,1.45-3.39,.11-.57,.09-.72,.07-.86,0,0,.03,.01,.34,.03,1.66-.52,3.02-1.05,4.37-1.59,0,0,.03,.03,.34,0,4.04-.65,7.83-2.06,11.34,.72,.15,3-.17,6.11,.54,8.96,1.23,4.92,1.59,5.16-3.4,6.57-3.89,1.09-8.03,1.32-12.08,1.84-2.16,.28-3.03-.85-2.98-2.96,.06-2.98,0-5.95,0-9.3v-.02Z"/><path class="cls-9" d="M489.18,1022.27c3.34-.48,6.48-.92,9.64-1.07,3.22-.15,6.45-.03,10.04-.02,2.03,3.92,1.16,7.69-.65,11.21-.41,.8-2.13,1.26-3.26,1.29-6.19,.12-12.37,.06-18.45,.06,0-1.69-.31-4.17,.1-6.52,.29-1.68,1.55-3.19,2.56-4.95h.02Z"/><path class="cls-10" d="M430.04,1023.12c3.47-.61,6.96-1.18,10.43-1.04,4.46,.18,8.89,.94,13.54,1.71-1.03,1.8-2.34,3.29-3.49,4.89-1.14,1.58-2.11,3.28-3.51,4.94-2.25,.04-4.14,.08-6.03,.11-3.68-.41-7.37-.82-10.92-1.21,0-3.13,0-6.09-.02-9.4Z"/><path class="cls-9" d="M551.61,1018.05c.48,2.07,1.07,4.13,1.4,6.22,.3,1.91-.31,3.04-2.64,3.27-5.47,.54-10.91,1.42-15.83,2.09-1.26-4.28-2.51-8.49-3.81-13.16,1.16-.53,2.42-.83,3.59-.63,1.33,.23,2.56,1.21,3.89,1.33,4.46,.42,8.93,.6,13.4,.88h0Z"/><path class="cls-10" d="M598.45,1025.88c-6.27,.28-12.57,.88-18.15-1.39-1.3,.52-2.37,1.2-3.52,1.36-1.78,.25-3.64-.05-5.41,.25-3.81,.65-4.06,.46-3.36-4.09,3.47-.62,6.86-.7,10.23-.63,.12,.29,.25,.42,.38,.55,.04-.23,.09-.46,.38-.62,3.52,0,6.79-.08,10.06-.15,0,0,.02,.02,.08,.28,2.88,1.12,5.7,1.98,8.52,2.84,0,0,.03,.02,.04,.25,.25,.6,.49,.97,.73,1.35h.02Z"/><path class="cls-18" d="M598.78,1025.85c-.57-.34-.81-.71-.84-1.35,.42-1.34,4.38,.93,2.1-2.38,2.56-.28,5.13-.56,7.69-.82,.51-.05,1.37-.17,1.51,.07,2.45,4.23,6.41,1.89,9.72,2.39,1.4,.21,2.71,1.05,4.05,1.6-.04,.52-.09,1.04-.13,1.56-2.4,.18-4.82,.66-7.2,.5-5.54-.37-11.05-1.05-16.91-1.57h.01Z"/><path class="cls-18" d="M578.26,1021.23c-3.39,.08-6.77,.17-10.24,.51-.98-.55-1.87-1.37-3.12-2.51-2.62-1.29-4.88-2.24-7.15-3.2,4.76,.37,9.53,.74,14.91,1.15,2.25,0,3.89-.02,5.53-.05,1.33,.04,2.66,.08,4.25,.19,3.51,.41,6.77,.74,9.88,1.32-3.11,.24-6.08,.24-8.92,.24,1.88,.76,3.77,1.52,5.67,2.29-3.27,.08-6.54,.15-10.18,.15-.38-.08-.63-.07-.63-.07v-.02Z"/><path class="cls-15" d="M557.62,1015.84c2.4,1.14,4.67,2.1,7.03,3.31,.1,.25,.09,.34-.26,.38-3.22-.47-6.09-.98-8.95-1.49-1.12-.06-2.24-.12-3.59-.09-4.7-.18-9.17-.36-13.63-.78-1.32-.12-2.55-1.1-3.89-1.33-1.17-.2-2.43,.1-3.77,.43-.28,.24-.44,.23-.84,.15-3.74-2.84-7.53-1.44-11.59-.79,1.1-.74,2.48-2.06,3.95-2.16,4.07-.28,8.18-.06,12.71,.29,1.26,.84,2.04,1.73,2.9,1.81,4.37,.39,8.75,.56,13.13,.81,2.22-.24,4.45-.48,6.81-.53h0Z"/><path class="cls-9" d="M555.44,1018.39c2.86,.16,5.72,.67,8.92,1.17,.61,.99,1.28,2.08,1.07,2.95-.26,1.07-1.81,2.83-1.88,2.8-2.51-1.56-6.85,4.14-8.08-1.9-.3-1.5-.03-3.11-.03-5.02h0Z"/><path class="cls-10" d="M589.07,1021.16c-1.9-.77-3.8-1.53-5.68-2.29h9.12c1.83,2.2,3.57,3.25,5.69,.99,.62,.86,1.04,1.44,1.65,2.14,2.47,3.43-1.49,1.15-1.93,2.27-.22,.04-.24,.02-.31-.27-2.89-1.14-5.7-1.98-8.52-2.83l-.02-.02h0Z"/><path class="cls-15" d="M441.05,1033.96c1.83-.25,3.72-.29,6.17-.46,1.8-.6,3.04-1.06,4.28-1.52-1.01,.96-2.03,1.92-3.22,3.07-2.51-.16-4.83-.51-7.23-1.09Z"/><path class="cls-13" d="M542.88,1010.42c2.12-.26,4.23-.26,6.69-.28,4.7-.01,9.06-.07,13.41,.07,1.31,.04,2.6,.66,4.05,1.29-7.76,.17-15.67,.06-23.87-.18-.28-.31-.28-.48-.27-.9h0Z"/><path class="cls-13" d="M578.03,1016.9c-1.48,.25-3.11,.28-5.05,.28-2.12-1.65-3.93-3.27-5.79-5.16,3.53,1.38,7.11,3.02,10.84,4.89h0Z"/><path class="cls-10" d="M381.2,1011.71c-.48-.23-.64-.41-.99-.67-.42-.63-.69-1.16-1.04-1.9,3.33,.5,6.74,1.21,10.23,2.21-2.57,.31-5.21,.34-8.21,.36h0Z"/><path class="cls-10" d="M550.83,1016.16c-4.4-.04-8.78-.21-13.15-.6-.86-.08-1.64-.97-2.53-1.76,5.81-.27,11.7-.27,17.58-.27,.07,.33,.13,.66,.2,1-.69,.47-1.39,.94-2.1,1.63Z"/><path class="cls-15" d="M517.58,1015.55c-1.13,.62-2.49,1.16-4.16,1.68,1.1-.6,2.52-1.18,4.16-1.68Z"/><path class="cls-15" d="M512.89,1017.17c.22,.18,.24,.32,.26,.68-.21,.03-.42-.16-.75-.53,.02-.18,.16-.18,.49-.15h0Z"/><path class="cls-1" d="M396.84,988.27c.2-.64,.68-1.21,1.23-2.01,.36-.25,.64-.29,1.14-.36,6.84,1.51,13.46,3.09,20.1,4.56,5.28,1.17,10.78,1.69,15.86,3.43,12.22,4.19,24.74,1.24,37.07,2.27,2.62,.22,5.18,1.13,7.87,1.99-6.69,.28-13.49,.28-20.65,.27-3.13-.16-5.89-.44-8.65-.41-4.3,.04-8.6,.29-13.2,.37-1.2-.55-2.04-1.24-2.98-1.43-5.16-1.02-10.39-1.7-15.51-2.89-7.38-1.73-14.67-3.8-22.28-5.78h0Z"/><path class="cls-13" d="M391.11,986.06c.12-.05,.35,.08,.75,.33-.1,.03-.36-.06-.75-.33Z"/><path class="cls-7" d="M451.71,1031.91c-1.45,.52-2.7,.97-4.14,1.57,.84-1.51,1.82-3.21,2.95-4.8,1.15-1.6,2.46-3.09,3.82-4.87,1.25-.08,2.39,.09,3.73,.35-1.91,2.63-4.03,5.16-6.36,7.76h0Z"/><path class="cls-10" d="M529.61,1001.01c3.87,2.42,7.77,5.11,11.78,8.03-1.53,.26-3.18,.3-5.18,.34-1.75-1.48-3.16-2.94-4.77-4.57-.74-1.28-1.28-2.4-1.83-3.8h0Z"/><path class="cls-6" d="M530.38,996.17c.05-.1,.21-.1,.59-.09-.01,.07-.25,.13-.59,.09Z"/><path class="cls-8" d="M425.36,971.86c.06-.03-.08,.19-.08,.19,0,0,.01-.16,.08-.19Z"/><path class="cls-18" d="M589.16,1021.44c2.75,.58,5.56,1.42,8.45,2.55-2.75-.57-5.57-1.43-8.45-2.55Z"/><path class="cls-1" d="M578.25,1021.38c.01-.15,.26-.16,.39-.15,.08,.24,.04,.47,0,.7-.13-.13-.26-.26-.38-.55h-.01Z"/></g></svg>